<ttFont>
    <TTGlyph name="A" xMin="14" yMin="-14" xMax="895" yMax="1430">
      <contour>
        <pt x="694" y="-14" on="1"/>
        <pt x="645" y="254" on="1"/>
        <pt x="597" y="256" on="0"/>
        <pt x="503" y="258" on="0"/>
        <pt x="455" y="258" on="1"/>
        <pt x="404" y="258" on="0"/>
        <pt x="300" y="256" on="0"/>
        <pt x="248" y="254" on="1"/>
        <pt x="235" y="186" on="0"/>
        <pt x="212" y="54" on="0"/>
        <pt x="201" y="-12" on="1"/>
        <pt x="14" y="-14" on="1"/>
        <pt x="58" y="163" on="0"/>
        <pt x="135" y="523" on="0"/>
        <pt x="207" y="885" on="0"/>
        <pt x="277" y="1247" on="0"/>
        <pt x="313" y="1425" on="1"/>
        <pt x="571" y="1430" on="1"/>
        <pt x="643" y="1069" on="0"/>
        <pt x="802" y="341" on="0"/>
        <pt x="895" y="-14" on="1"/>
      </contour>
      <contour>
        <pt x="449" y="1247" on="1"/>
        <pt x="401" y="1036" on="0"/>
        <pt x="315" y="611" on="0"/>
        <pt x="274" y="397" on="1"/>
        <pt x="318" y="395" on="0"/>
        <pt x="404" y="397" on="0"/>
        <pt x="449" y="397" on="1"/>
        <pt x="492" y="397" on="0"/>
        <pt x="574" y="395" on="0"/>
        <pt x="616" y="397" on="1"/>
        <pt x="576" y="612" on="0"/>
        <pt x="494" y="1036" on="0"/>
      </contour>
    </TTGlyph>
    <TTGlyph name="AE" xMin="-27" yMin="-14" xMax="1384" yMax="1425">
      <contour>
        <pt x="1384" y="1423" on="1"/>
        <pt x="1384" y="1286" on="1"/>
        <pt x="836" y="1286" on="1"/>
        <pt x="836" y="676" on="1"/>
        <pt x="1270" y="676" on="1"/>
        <pt x="1270" y="528" on="1"/>
        <pt x="829" y="528" on="1"/>
        <pt x="829" y="166" on="1"/>
        <pt x="1362" y="166" on="1"/>
        <pt x="1362" y="8" on="1"/>
        <pt x="651" y="8" on="1"/>
        <pt x="651" y="70" on="0"/>
        <pt x="655" y="192" on="0"/>
        <pt x="655" y="254" on="1"/>
        <pt x="609" y="256" on="0"/>
        <pt x="515" y="258" on="0"/>
        <pt x="467" y="258" on="1"/>
        <pt x="416" y="258" on="0"/>
        <pt x="313" y="256" on="0"/>
        <pt x="260" y="254" on="1"/>
        <pt x="234" y="186" on="0"/>
        <pt x="182" y="54" on="0"/>
        <pt x="158" y="-12" on="1"/>
        <pt x="-27" y="-14" on="1"/>
        <pt x="52" y="163" on="0"/>
        <pt x="202" y="523" on="0"/>
        <pt x="348" y="885" on="0"/>
        <pt x="491" y="1247" on="0"/>
        <pt x="563" y="1425" on="1"/>
      </contour>
      <contour>
        <pt x="664" y="1247" on="1"/>
        <pt x="573" y="1036" on="0"/>
        <pt x="400" y="612" on="0"/>
        <pt x="315" y="397" on="1"/>
        <pt x="359" y="395" on="0"/>
        <pt x="444" y="397" on="0"/>
        <pt x="489" y="397" on="1"/>
        <pt x="533" y="397" on="0"/>
        <pt x="615" y="395" on="0"/>
        <pt x="657" y="397" on="1"/>
        <pt x="659" y="477" on="0"/>
        <pt x="662" y="643" on="0"/>
        <pt x="663" y="842" on="0"/>
        <pt x="664" y="1087" on="0"/>
      </contour>
    </TTGlyph>
    <TTGlyph name="AEacute" xMin="-27" yMin="-14" xMax="1384" yMax="1876">
      <component glyphName="AE" x="0" y="0" flags="0x204"/>
      <component glyphName="acute" x="686" y="389" flags="0x4"/>
    </TTGlyph>
    <TTGlyph name="Aacute" xMin="14" yMin="-14" xMax="895" yMax="1837">
      <component glyphName="A" x="0" y="0" flags="0x204"/>
      <component glyphName="acute" x="426" y="350" flags="0x4"/>
    </TTGlyph>
    <TTGlyph name="Abreve" xMin="14" yMin="-14" xMax="895" yMax="1737">
      <component glyphName="A" x="0" y="0" flags="0x204"/>
      <component glyphName="breve" x="244" y="332" flags="0x4"/>
    </TTGlyph>
    <TTGlyph name="Acircumflex" xMin="14" yMin="-14" xMax="895" yMax="1839">
      <component glyphName="A" x="0" y="0" flags="0x204"/>
      <component glyphName="circumflex" x="223" y="358" flags="0x4"/>
    </TTGlyph>
    <TTGlyph name="Adieresis" xMin="14" yMin="-14" xMax="895" yMax="1706">
      <component glyphName="A" x="0" y="0" flags="0x204"/>
      <component glyphName="dieresis" x="203" y="350" flags="0x4"/>
    </TTGlyph>
    <TTGlyph name="Agrave" xMin="14" yMin="-14" xMax="895" yMax="1824">
      <component glyphName="A" x="0" y="0" flags="0x204"/>
      <component glyphName="grave" x="88" y="354" flags="0x4"/>
    </TTGlyph>
    <TTGlyph name="Amacron" xMin="14" yMin="-14" xMax="895" yMax="1645">
      <component glyphName="A" x="0" y="0" flags="0x204"/>
      <component glyphName="macron" x="238" y="340" flags="0x4"/>
    </TTGlyph>
    <TTGlyph name="Aogonek" xMin="14" yMin="-264" xMax="940" yMax="1430">
      <contour>
        <pt x="940" y="-215" on="1"/>
        <pt x="909" y="-237" on="0"/>
        <pt x="844" y="-264" on="0"/>
        <pt x="809" y="-264" on="1"/>
        <pt x="785" y="-264" on="0"/>
        <pt x="741" y="-251" on="0"/>
        <pt x="706" y="-226" on="0"/>
        <pt x="686" y="-190" on="0"/>
        <pt x="686" y="-166" on="1"/>
        <pt x="686" y="-126" on="0"/>
        <pt x="735" y="-46" on="0"/>
        <pt x="766" y="-14" on="1"/>
        <pt x="694" y="-14" on="1"/>
        <pt x="645" y="254" on="1"/>
        <pt x="597" y="256" on="0"/>
        <pt x="503" y="258" on="0"/>
        <pt x="455" y="258" on="1"/>
        <pt x="404" y="258" on="0"/>
        <pt x="300" y="256" on="0"/>
        <pt x="248" y="254" on="1"/>
        <pt x="235" y="186" on="0"/>
        <pt x="212" y="54" on="0"/>
        <pt x="201" y="-12" on="1"/>
        <pt x="14" y="-14" on="1"/>
        <pt x="58" y="163" on="0"/>
        <pt x="135" y="523" on="0"/>
        <pt x="207" y="885" on="0"/>
        <pt x="277" y="1247" on="0"/>
        <pt x="313" y="1425" on="1"/>
        <pt x="571" y="1430" on="1"/>
        <pt x="643" y="1069" on="0"/>
        <pt x="802" y="341" on="0"/>
        <pt x="895" y="-14" on="1"/>
        <pt x="838" y="-14" on="1"/>
        <pt x="828" y="-27" on="0"/>
        <pt x="807" y="-57" on="0"/>
        <pt x="789" y="-88" on="0"/>
        <pt x="778" y="-119" on="0"/>
        <pt x="778" y="-133" on="1"/>
        <pt x="778" y="-149" on="0"/>
        <pt x="798" y="-172" on="0"/>
        <pt x="813" y="-172" on="1"/>
        <pt x="832" y="-172" on="0"/>
        <pt x="867" y="-152" on="0"/>
        <pt x="881" y="-139" on="1"/>
      </contour>
      <contour>
        <pt x="449" y="1247" on="1"/>
        <pt x="401" y="1036" on="0"/>
        <pt x="315" y="611" on="0"/>
        <pt x="274" y="397" on="1"/>
        <pt x="318" y="395" on="0"/>
        <pt x="404" y="397" on="0"/>
        <pt x="449" y="397" on="1"/>
        <pt x="492" y="397" on="0"/>
        <pt x="574" y="395" on="0"/>
        <pt x="616" y="397" on="1"/>
        <pt x="576" y="612" on="0"/>
        <pt x="494" y="1036" on="0"/>
      </contour>
    </TTGlyph>
    <TTGlyph name="Aring" xMin="14" yMin="-14" xMax="895" yMax="1704">
      <component glyphName="A" x="0" y="0" flags="0x204"/>
      <component glyphName="ring" x="270" y="240" flags="0x4"/>
    </TTGlyph>
    <TTGlyph name="Atilde" xMin="14" yMin="-14" xMax="895" yMax="1744">
      <component glyphName="A" x="0" y="0" flags="0x204"/>
      <component glyphName="tilde" x="217" y="317" flags="0x4"/>
    </TTGlyph>
    <TTGlyph name="B" xMin="111" yMin="-23" xMax="883" yMax="1466">
      <contour>
        <pt x="883" y="983" on="1"/>
        <pt x="875" y="903" on="0"/>
        <pt x="837" y="826" on="1"/>
        <pt x="821" y="793" on="0"/>
        <pt x="772" y="722" on="0"/>
        <pt x="703" y="652" on="0"/>
        <pt x="611" y="587" on="0"/>
        <pt x="551" y="559" on="1"/>
        <pt x="618" y="551" on="0"/>
        <pt x="712" y="507" on="0"/>
        <pt x="774" y="449" on="0"/>
        <pt x="809" y="386" on="0"/>
        <pt x="825" y="331" on="0"/>
        <pt x="829" y="291" on="0"/>
        <pt x="829" y="287" on="1"/>
        <pt x="829" y="225" on="0"/>
        <pt x="783" y="132" on="0"/>
        <pt x="710" y="63" on="0"/>
        <pt x="618" y="17" on="0"/>
        <pt x="526" y="-11" on="0"/>
        <pt x="442" y="-23" on="0"/>
        <pt x="414" y="-23" on="1"/>
        <pt x="407" y="-23" on="0"/>
        <pt x="359" y="-21" on="0"/>
        <pt x="281" y="-12" on="0"/>
        <pt x="175" y="5" on="0"/>
        <pt x="111" y="20" on="1"/>
        <pt x="111" y="1413" on="1"/>
        <pt x="151" y="1431" on="0"/>
        <pt x="244" y="1452" on="0"/>
        <pt x="333" y="1463" on="0"/>
        <pt x="411" y="1466" on="0"/>
        <pt x="436" y="1466" on="1"/>
        <pt x="527" y="1466" on="0"/>
        <pt x="690" y="1415" on="0"/>
        <pt x="812" y="1301" on="0"/>
        <pt x="883" y="1116" on="0"/>
      </contour>
      <contour>
        <pt x="688" y="1018" on="1"/>
        <pt x="685" y="1109" on="0"/>
        <pt x="653" y="1180" on="1"/>
        <pt x="639" y="1210" on="0"/>
        <pt x="598" y="1269" on="0"/>
        <pt x="536" y="1315" on="0"/>
        <pt x="453" y="1343" on="0"/>
        <pt x="399" y="1343" on="1"/>
        <pt x="376" y="1343" on="0"/>
        <pt x="327" y="1339" on="0"/>
        <pt x="299" y="1333" on="1"/>
        <pt x="299" y="537" on="1"/>
        <pt x="371" y="553" on="0"/>
        <pt x="481" y="612" on="0"/>
        <pt x="563" y="685" on="0"/>
        <pt x="620" y="769" on="0"/>
        <pt x="638" y="810" on="1"/>
        <pt x="681" y="906" on="0"/>
      </contour>
      <contour>
        <pt x="418" y="471" on="1"/>
        <pt x="390" y="471" on="0"/>
        <pt x="331" y="466" on="0"/>
        <pt x="299" y="461" on="1"/>
        <pt x="299" y="102" on="1"/>
        <pt x="328" y="96" on="0"/>
        <pt x="392" y="88" on="0"/>
        <pt x="424" y="88" on="1"/>
        <pt x="471" y="88" on="0"/>
        <pt x="558" y="108" on="0"/>
        <pt x="626" y="158" on="0"/>
        <pt x="666" y="241" on="0"/>
        <pt x="666" y="303" on="1"/>
        <pt x="662" y="350" on="0"/>
        <pt x="635" y="387" on="1"/>
        <pt x="623" y="403" on="0"/>
        <pt x="588" y="433" on="0"/>
        <pt x="535" y="457" on="0"/>
        <pt x="464" y="471" on="0"/>
      </contour>
    </TTGlyph>
    <TTGlyph name="C" xMin="63" yMin="-29" xMax="969" yMax="1479">
      <contour>
        <pt x="797" y="965" on="1"/>
        <pt x="797" y="1057" on="0"/>
        <pt x="765" y="1184" on="0"/>
        <pt x="716" y="1266" on="0"/>
        <pt x="659" y="1311" on="0"/>
        <pt x="609" y="1332" on="0"/>
        <pt x="576" y="1335" on="0"/>
        <pt x="575" y="1335" on="1"/>
        <pt x="506" y="1335" on="0"/>
        <pt x="392" y="1260" on="0"/>
        <pt x="311" y="1107" on="0"/>
        <pt x="266" y="876" on="0"/>
        <pt x="266" y="721" on="1"/>
        <pt x="266" y="566" on="0"/>
        <pt x="307" y="332" on="0"/>
        <pt x="381" y="174" on="0"/>
        <pt x="486" y="94" on="0"/>
        <pt x="551" y="94" on="1"/>
        <pt x="600" y="98" on="0"/>
        <pt x="642" y="130" on="1"/>
        <pt x="660" y="143" on="0"/>
        <pt x="697" y="185" on="0"/>
        <pt x="730" y="247" on="0"/>
        <pt x="758" y="330" on="0"/>
        <pt x="766" y="385" on="1"/>
        <pt x="926" y="373" on="1"/>
        <pt x="915" y="298" on="0"/>
        <pt x="871" y="183" on="0"/>
        <pt x="814" y="98" on="0"/>
        <pt x="749" y="40" on="0"/>
        <pt x="717" y="21" on="1"/>
        <pt x="641" y="-23" on="0"/>
        <pt x="553" y="-29" on="1"/>
        <pt x="436" y="-29" on="0"/>
        <pt x="253" y="66" on="0"/>
        <pt x="128" y="253" on="0"/>
        <pt x="63" y="531" on="0"/>
        <pt x="63" y="713" on="1"/>
        <pt x="63" y="1092" on="0"/>
        <pt x="321" y="1479" on="0"/>
        <pt x="590" y="1479" on="1"/>
        <pt x="593" y="1479" on="0"/>
        <pt x="628" y="1477" on="0"/>
        <pt x="682" y="1465" on="0"/>
        <pt x="750" y="1440" on="0"/>
        <pt x="820" y="1392" on="0"/>
        <pt x="886" y="1320" on="0"/>
        <pt x="938" y="1213" on="0"/>
        <pt x="969" y="1069" on="0"/>
        <pt x="969" y="975" on="1"/>
      </contour>
    </TTGlyph>
    <TTGlyph name="Cacute" xMin="63" yMin="-29" xMax="969" yMax="1876">
      <component glyphName="C" x="0" y="0" flags="0x204"/>
      <component glyphName="acute" x="571" y="389" flags="0x4"/>
    </TTGlyph>
    <TTGlyph name="Ccaron" xMin="63" yMin="-29" xMax="969" yMax="1878">
      <component glyphName="C" x="0" y="0" flags="0x204"/>
      <component glyphName="caron" x="354" y="397" flags="0x4"/>
    </TTGlyph>
    <TTGlyph name="Ccedilla" xMin="63" yMin="-332" xMax="969" yMax="1479">
      <contour>
        <pt x="516" y="-332" on="1"/>
        <pt x="478" y="-332" on="0"/>
        <pt x="420" y="-300" on="0"/>
        <pt x="395" y="-272" on="1"/>
        <pt x="446" y="-201" on="1"/>
        <pt x="457" y="-215" on="0"/>
        <pt x="493" y="-244" on="0"/>
        <pt x="510" y="-244" on="1"/>
        <pt x="529" y="-244" on="0"/>
        <pt x="553" y="-214" on="0"/>
        <pt x="553" y="-199" on="1"/>
        <pt x="553" y="-183" on="0"/>
        <pt x="525" y="-165" on="0"/>
        <pt x="487" y="-156" on="0"/>
        <pt x="448" y="-154" on="0"/>
        <pt x="436" y="-154" on="1"/>
        <pt x="498" y="-25" on="1"/>
        <pt x="393" y="-15" on="0"/>
        <pt x="231" y="90" on="0"/>
        <pt x="120" y="276" on="0"/>
        <pt x="63" y="542" on="0"/>
        <pt x="63" y="713" on="1"/>
        <pt x="63" y="1092" on="0"/>
        <pt x="321" y="1479" on="0"/>
        <pt x="590" y="1479" on="1"/>
        <pt x="593" y="1479" on="0"/>
        <pt x="628" y="1477" on="0"/>
        <pt x="682" y="1465" on="0"/>
        <pt x="750" y="1440" on="0"/>
        <pt x="820" y="1392" on="0"/>
        <pt x="886" y="1320" on="0"/>
        <pt x="938" y="1213" on="0"/>
        <pt x="969" y="1069" on="0"/>
        <pt x="969" y="975" on="1"/>
        <pt x="797" y="965" on="1"/>
        <pt x="797" y="1057" on="0"/>
        <pt x="765" y="1184" on="0"/>
        <pt x="716" y="1266" on="0"/>
        <pt x="659" y="1311" on="0"/>
        <pt x="609" y="1332" on="0"/>
        <pt x="576" y="1335" on="0"/>
        <pt x="575" y="1335" on="1"/>
        <pt x="506" y="1335" on="0"/>
        <pt x="392" y="1260" on="0"/>
        <pt x="311" y="1107" on="0"/>
        <pt x="266" y="876" on="0"/>
        <pt x="266" y="721" on="1"/>
        <pt x="266" y="566" on="0"/>
        <pt x="307" y="332" on="0"/>
        <pt x="381" y="174" on="0"/>
        <pt x="486" y="94" on="0"/>
        <pt x="551" y="94" on="1"/>
        <pt x="600" y="98" on="0"/>
        <pt x="642" y="130" on="1"/>
        <pt x="660" y="143" on="0"/>
        <pt x="697" y="185" on="0"/>
        <pt x="730" y="247" on="0"/>
        <pt x="758" y="330" on="0"/>
        <pt x="766" y="385" on="1"/>
        <pt x="926" y="373" on="1"/>
        <pt x="912" y="279" on="0"/>
        <pt x="852" y="147" on="0"/>
        <pt x="776" y="58" on="0"/>
        <pt x="694" y="6" on="0"/>
        <pt x="622" y="-21" on="0"/>
        <pt x="568" y="-29" on="0"/>
        <pt x="559" y="-29" on="1"/>
        <pt x="530" y="-104" on="1"/>
        <pt x="549" y="-104" on="0"/>
        <pt x="587" y="-119" on="0"/>
        <pt x="617" y="-147" on="0"/>
        <pt x="635" y="-186" on="0"/>
        <pt x="635" y="-211" on="1"/>
        <pt x="635" y="-244" on="0"/>
        <pt x="613" y="-290" on="0"/>
        <pt x="578" y="-319" on="0"/>
        <pt x="536" y="-332" on="0"/>
      </contour>
    </TTGlyph>
    <TTGlyph name="Ccircumflex" xMin="63" yMin="-29" xMax="969" yMax="1870">
      <component glyphName="C" x="0" y="0" flags="0x204"/>
      <component glyphName="circumflex" x="362" y="389" flags="0x4"/>
    </TTGlyph>
    <TTGlyph name="Cdotaccent" xMin="63" yMin="-29" xMax="969" yMax="1739">
      <component glyphName="C" x="0" y="0" flags="0x204"/>
      <component glyphName="dotaccent" x="481" y="365" flags="0x4"/>
    </TTGlyph>
    <TTGlyph name="D" xMin="96" yMin="-29" xMax="944" yMax="1481">
      <contour>
        <pt x="942" y="733" on="1"/>
        <pt x="935" y="606" on="0"/>
        <pt x="869" y="394" on="0"/>
        <pt x="768" y="225" on="0"/>
        <pt x="640" y="98" on="0"/>
        <pt x="503" y="13" on="0"/>
        <pt x="364" y="-29" on="0"/>
        <pt x="303" y="-29" on="1"/>
        <pt x="252" y="-28" on="0"/>
        <pt x="210" y="-23" on="1"/>
        <pt x="192" y="-21" on="0"/>
        <pt x="156" y="-14" on="0"/>
        <pt x="125" y="-5" on="0"/>
        <pt x="101" y="7" on="0"/>
        <pt x="96" y="16" on="1"/>
        <pt x="125" y="1438" on="1"/>
        <pt x="145" y="1451" on="0"/>
        <pt x="198" y="1468" on="0"/>
        <pt x="257" y="1477" on="0"/>
        <pt x="317" y="1481" on="0"/>
        <pt x="344" y="1481" on="1"/>
        <pt x="405" y="1481" on="0"/>
        <pt x="542" y="1458" on="0"/>
        <pt x="676" y="1400" on="0"/>
        <pt x="797" y="1303" on="0"/>
        <pt x="889" y="1153" on="0"/>
        <pt x="944" y="947" on="0"/>
        <pt x="944" y="809" on="1"/>
        <pt x="944" y="790" on="0"/>
        <pt x="944" y="753" on="0"/>
      </contour>
      <contour>
        <pt x="741" y="756" on="1"/>
        <pt x="741" y="761" on="0"/>
        <pt x="741" y="818" on="0"/>
        <pt x="734" y="904" on="0"/>
        <pt x="716" y="1011" on="0"/>
        <pt x="680" y="1121" on="0"/>
        <pt x="624" y="1225" on="0"/>
        <pt x="539" y="1307" on="0"/>
        <pt x="423" y="1357" on="0"/>
        <pt x="346" y="1358" on="1"/>
        <pt x="256" y="78" on="1"/>
        <pt x="301" y="82" on="0"/>
        <pt x="403" y="112" on="0"/>
        <pt x="504" y="174" on="0"/>
        <pt x="599" y="273" on="0"/>
        <pt x="676" y="421" on="0"/>
        <pt x="731" y="623" on="0"/>
      </contour>
    </TTGlyph>
    <TTGlyph name="Dcaron" xMin="96" yMin="-29" xMax="944" yMax="1887">
      <component glyphName="D" x="0" y="0" flags="0x204"/>
      <component glyphName="caron" x="287" y="406" flags="0x4"/>
    </TTGlyph>
    <TTGlyph name="Dcroat" xMin="47" yMin="-29" xMax="971" yMax="1481">
      <component glyphName="Eth" x="0" y="0" flags="0x204"/>
    </TTGlyph>
    <TTGlyph name="Delta" xMin="41" yMin="-12" xMax="860" yMax="1442">
      <contour>
        <pt x="733" y="164" on="1"/>
        <pt x="696" y="90" on="1"/>
        <pt x="418" y="1260" on="1"/>
        <pt x="457" y="1270" on="1"/>
        <pt x="221" y="90" on="1"/>
        <pt x="172" y="162" on="1"/>
      </contour>
      <contour>
        <pt x="334" y="1442" on="1"/>
        <pt x="520" y="1442" on="1"/>
        <pt x="860" y="-12" on="1"/>
        <pt x="41" y="-12" on="1"/>
      </contour>
    </TTGlyph>
    <TTGlyph name="E" xMin="111" yMin="8" xMax="836" yMax="1423">
      <contour>
        <pt x="836" y="1423" on="1"/>
        <pt x="836" y="1286" on="1"/>
        <pt x="287" y="1286" on="1"/>
        <pt x="287" y="676" on="1"/>
        <pt x="721" y="676" on="1"/>
        <pt x="721" y="528" on="1"/>
        <pt x="281" y="528" on="1"/>
        <pt x="281" y="166" on="1"/>
        <pt x="813" y="166" on="1"/>
        <pt x="813" y="8" on="1"/>
        <pt x="111" y="8" on="1"/>
        <pt x="111" y="1423" on="1"/>
      </contour>
    </TTGlyph>
    <TTGlyph name="Eacute" xMin="111" yMin="8" xMax="836" yMax="1837">
      <component glyphName="E" x="0" y="0" flags="0x204"/>
      <component glyphName="acute" x="438" y="350" flags="0x4"/>
    </TTGlyph>
    <TTGlyph name="Ebreve" xMin="111" yMin="8" xMax="836" yMax="1727">
      <component glyphName="E" x="0" y="0" flags="0x204"/>
      <component glyphName="breve" x="264" y="322" flags="0x4"/>
    </TTGlyph>
    <TTGlyph name="Ecaron" xMin="111" yMin="8" xMax="836" yMax="1835">
      <component glyphName="E" x="0" y="0" flags="0x204"/>
      <component glyphName="caron" x="238" y="354" flags="0x4"/>
    </TTGlyph>
    <TTGlyph name="Ecircumflex" xMin="111" yMin="8" xMax="836" yMax="1837">
      <component glyphName="E" x="0" y="0" flags="0x204"/>
      <component glyphName="circumflex" x="266" y="356" flags="0x4"/>
    </TTGlyph>
    <TTGlyph name="Edieresis" xMin="111" yMin="8" xMax="836" yMax="1678">
      <component glyphName="E" x="0" y="0" flags="0x204"/>
      <component glyphName="dieresis" x="221" y="322" flags="0x4"/>
    </TTGlyph>
    <TTGlyph name="Edotaccent" xMin="111" yMin="8" xMax="836" yMax="1683">
      <component glyphName="E" x="0" y="0" flags="0x204"/>
      <component glyphName="dotaccent" x="399" y="309" flags="0x4"/>
    </TTGlyph>
    <TTGlyph name="Egrave" xMin="111" yMin="8" xMax="836" yMax="1820">
      <component glyphName="E" x="0" y="0" flags="0x204"/>
      <component glyphName="grave" x="115" y="350" flags="0x4"/>
    </TTGlyph>
    <TTGlyph name="Emacron" xMin="111" yMin="8" xMax="836" yMax="1647">
      <component glyphName="E" x="0" y="0" flags="0x204"/>
      <component glyphName="macron" x="258" y="342" flags="0x4"/>
    </TTGlyph>
    <TTGlyph name="Eng" xMin="29" yMin="-526" xMax="924" yMax="1430">
      <contour>
        <pt x="924" y="1427" on="1"/>
        <pt x="904" y="1250" on="0"/>
        <pt x="876" y="893" on="0"/>
        <pt x="854" y="536" on="0"/>
        <pt x="836" y="178" on="0"/>
        <pt x="825" y="-2" on="1"/>
        <pt x="818" y="-119" on="0"/>
        <pt x="763" y="-312" on="0"/>
        <pt x="660" y="-450" on="0"/>
        <pt x="509" y="-526" on="0"/>
        <pt x="406" y="-526" on="1"/>
        <pt x="311" y="-526" on="0"/>
        <pt x="169" y="-456" on="0"/>
        <pt x="75" y="-339" on="0"/>
        <pt x="29" y="-187" on="0"/>
        <pt x="29" y="-106" on="1"/>
        <pt x="244" y="-98" on="1"/>
        <pt x="244" y="-157" on="0"/>
        <pt x="264" y="-266" on="0"/>
        <pt x="306" y="-352" on="0"/>
        <pt x="372" y="-403" on="0"/>
        <pt x="418" y="-403" on="1"/>
        <pt x="467" y="-403" on="0"/>
        <pt x="547" y="-361" on="0"/>
        <pt x="606" y="-259" on="0"/>
        <pt x="645" y="-85" on="0"/>
        <pt x="653" y="47" on="1"/>
        <pt x="297" y="995" on="1"/>
        <pt x="273" y="499" on="0"/>
        <pt x="270" y="2" on="1"/>
        <pt x="109" y="0" on="1"/>
        <pt x="111" y="106" on="0"/>
        <pt x="111" y="318" on="0"/>
        <pt x="111" y="426" on="1"/>
        <pt x="111" y="922" on="0"/>
        <pt x="96" y="1417" on="1"/>
        <pt x="319" y="1413" on="1"/>
        <pt x="676" y="338" on="1"/>
        <pt x="680" y="418" on="0"/>
        <pt x="686" y="609" on="0"/>
        <pt x="691" y="817" on="0"/>
        <pt x="694" y="1035" on="0"/>
        <pt x="694" y="1141" on="1"/>
        <pt x="694" y="1216" on="0"/>
        <pt x="692" y="1361" on="0"/>
        <pt x="690" y="1430" on="1"/>
      </contour>
    </TTGlyph>
    <TTGlyph name="Eogonek" xMin="111" yMin="-240" xMax="836" yMax="1423">
      <contour>
        <pt x="823" y="-190" on="1"/>
        <pt x="792" y="-212" on="0"/>
        <pt x="727" y="-240" on="0"/>
        <pt x="692" y="-240" on="1"/>
        <pt x="668" y="-240" on="0"/>
        <pt x="624" y="-227" on="0"/>
        <pt x="590" y="-202" on="0"/>
        <pt x="569" y="-165" on="0"/>
        <pt x="569" y="-141" on="1"/>
        <pt x="569" y="-121" on="0"/>
        <pt x="582" y="-82" on="0"/>
        <pt x="604" y="-44" on="0"/>
        <pt x="632" y="-8" on="0"/>
        <pt x="647" y="8" on="1"/>
        <pt x="111" y="8" on="1"/>
        <pt x="111" y="1423" on="1"/>
        <pt x="836" y="1423" on="1"/>
        <pt x="836" y="1286" on="1"/>
        <pt x="287" y="1286" on="1"/>
        <pt x="287" y="676" on="1"/>
        <pt x="721" y="676" on="1"/>
        <pt x="721" y="528" on="1"/>
        <pt x="281" y="528" on="1"/>
        <pt x="281" y="166" on="1"/>
        <pt x="813" y="166" on="1"/>
        <pt x="813" y="8" on="1"/>
        <pt x="721" y="8" on="1"/>
        <pt x="699" y="-17" on="0"/>
        <pt x="662" y="-81" on="0"/>
        <pt x="662" y="-109" on="1"/>
        <pt x="662" y="-124" on="0"/>
        <pt x="681" y="-147" on="0"/>
        <pt x="696" y="-147" on="1"/>
        <pt x="715" y="-147" on="0"/>
        <pt x="750" y="-127" on="0"/>
        <pt x="764" y="-115" on="1"/>
      </contour>
    </TTGlyph>
    <TTGlyph name="Eth" xMin="47" yMin="-29" xMax="971" yMax="1481">
      <contour>
        <pt x="330" y="-29" on="1"/>
        <pt x="279" y="-28" on="0"/>
        <pt x="237" y="-23" on="1"/>
        <pt x="219" y="-21" on="0"/>
        <pt x="183" y="-14" on="0"/>
        <pt x="152" y="-5" on="0"/>
        <pt x="128" y="7" on="0"/>
        <pt x="123" y="16" on="1"/>
        <pt x="135" y="612" on="1"/>
        <pt x="47" y="612" on="1"/>
        <pt x="47" y="762" on="1"/>
        <pt x="137" y="762" on="1"/>
        <pt x="152" y="1438" on="1"/>
        <pt x="172" y="1451" on="0"/>
        <pt x="225" y="1468" on="0"/>
        <pt x="284" y="1477" on="0"/>
        <pt x="344" y="1481" on="0"/>
        <pt x="371" y="1481" on="1"/>
        <pt x="432" y="1481" on="0"/>
        <pt x="569" y="1458" on="0"/>
        <pt x="702" y="1400" on="0"/>
        <pt x="824" y="1303" on="0"/>
        <pt x="916" y="1153" on="0"/>
        <pt x="971" y="947" on="0"/>
        <pt x="971" y="809" on="1"/>
        <pt x="971" y="715" on="0"/>
        <pt x="931" y="518" on="0"/>
        <pt x="856" y="332" on="0"/>
        <pt x="745" y="167" on="0"/>
        <pt x="602" y="43" on="0"/>
        <pt x="430" y="-29" on="0"/>
      </contour>
      <contour>
        <pt x="319" y="612" on="1"/>
        <pt x="283" y="80" on="1"/>
        <pt x="410" y="97" on="0"/>
        <pt x="594" y="232" on="0"/>
        <pt x="712" y="428" on="0"/>
        <pt x="768" y="662" on="0"/>
        <pt x="768" y="778" on="1"/>
        <pt x="768" y="806" on="0"/>
        <pt x="761" y="913" on="0"/>
        <pt x="735" y="1041" on="0"/>
        <pt x="685" y="1175" on="0"/>
        <pt x="597" y="1286" on="0"/>
        <pt x="466" y="1357" on="0"/>
        <pt x="373" y="1358" on="1"/>
        <pt x="330" y="762" on="1"/>
        <pt x="512" y="762" on="1"/>
        <pt x="512" y="612" on="1"/>
      </contour>
    </TTGlyph>
    <TTGlyph name="Euro" xMin="43" yMin="-29" xMax="795" yMax="1026">
      <contour>
        <pt x="655" y="653" on="1"/>
        <pt x="655" y="716" on="0"/>
        <pt x="634" y="804" on="0"/>
        <pt x="603" y="860" on="0"/>
        <pt x="566" y="891" on="0"/>
        <pt x="534" y="905" on="0"/>
        <pt x="512" y="907" on="0"/>
        <pt x="512" y="907" on="1"/>
        <pt x="421" y="907" on="0"/>
        <pt x="309" y="704" on="0"/>
        <pt x="309" y="496" on="1"/>
        <pt x="309" y="392" on="0"/>
        <pt x="336" y="235" on="0"/>
        <pt x="386" y="129" on="0"/>
        <pt x="454" y="76" on="0"/>
        <pt x="496" y="76" on="1"/>
        <pt x="528" y="79" on="0"/>
        <pt x="555" y="101" on="1"/>
        <pt x="578" y="120" on="0"/>
        <pt x="624" y="200" on="0"/>
        <pt x="635" y="274" on="1"/>
        <pt x="766" y="266" on="1"/>
        <pt x="758" y="210" on="0"/>
        <pt x="726" y="126" on="0"/>
        <pt x="685" y="64" on="0"/>
        <pt x="638" y="22" on="0"/>
        <pt x="615" y="8" on="1"/>
        <pt x="560" y="-25" on="0"/>
        <pt x="496" y="-29" on="1"/>
        <pt x="330" y="-29" on="0"/>
        <pt x="152" y="235" on="0"/>
        <pt x="152" y="489" on="1"/>
        <pt x="152" y="755" on="0"/>
        <pt x="334" y="1026" on="0"/>
        <pt x="522" y="1026" on="1"/>
        <pt x="598" y="1021" on="0"/>
        <pt x="658" y="984" on="1"/>
        <pt x="683" y="968" on="0"/>
        <pt x="733" y="920" on="0"/>
        <pt x="771" y="850" on="0"/>
        <pt x="795" y="755" on="0"/>
        <pt x="795" y="692" on="1"/>
        <pt x="795" y="662" on="1"/>
      </contour>
      <contour>
        <pt x="66" y="481" on="1"/>
        <pt x="86" y="604" on="1"/>
        <pt x="508" y="604" on="1"/>
        <pt x="492" y="498" on="1"/>
      </contour>
      <contour>
        <pt x="43" y="340" on="1"/>
        <pt x="63" y="455" on="1"/>
        <pt x="487" y="455" on="1"/>
        <pt x="467" y="340" on="1"/>
      </contour>
    </TTGlyph>
    <TTGlyph name="F" xMin="111" yMin="6" xMax="817" yMax="1421">
      <contour>
        <pt x="817" y="1421" on="1"/>
        <pt x="817" y="1284" on="1"/>
        <pt x="279" y="1284" on="1"/>
        <pt x="279" y="676" on="1"/>
        <pt x="713" y="676" on="1"/>
        <pt x="713" y="528" on="1"/>
        <pt x="270" y="528" on="1"/>
        <pt x="270" y="6" on="1"/>
        <pt x="111" y="6" on="1"/>
        <pt x="111" y="1421" on="1"/>
      </contour>
    </TTGlyph>
    <TTGlyph name="G" xMin="66" yMin="-43" xMax="946" yMax="1464">
      <contour>
        <pt x="780" y="950" on="1"/>
        <pt x="780" y="1043" on="0"/>
        <pt x="748" y="1170" on="0"/>
        <pt x="700" y="1252" on="0"/>
        <pt x="644" y="1297" on="0"/>
        <pt x="596" y="1318" on="0"/>
        <pt x="563" y="1321" on="0"/>
        <pt x="563" y="1321" on="1"/>
        <pt x="495" y="1321" on="0"/>
        <pt x="385" y="1245" on="0"/>
        <pt x="307" y="1092" on="0"/>
        <pt x="264" y="862" on="0"/>
        <pt x="264" y="707" on="1"/>
        <pt x="264" y="552" on="0"/>
        <pt x="303" y="317" on="0"/>
        <pt x="374" y="159" on="0"/>
        <pt x="476" y="80" on="0"/>
        <pt x="539" y="80" on="1"/>
        <pt x="541" y="80" on="0"/>
        <pt x="575" y="84" on="0"/>
        <pt x="622" y="106" on="0"/>
        <pt x="677" y="155" on="0"/>
        <pt x="726" y="245" on="0"/>
        <pt x="761" y="384" on="0"/>
        <pt x="766" y="485" on="1"/>
        <pt x="689" y="479" on="0"/>
        <pt x="541" y="457" on="0"/>
        <pt x="467" y="440" on="1"/>
        <pt x="467" y="602" on="1"/>
        <pt x="605" y="596" on="0"/>
        <pt x="741" y="596" on="1"/>
        <pt x="789" y="596" on="0"/>
        <pt x="884" y="596" on="0"/>
        <pt x="932" y="598" on="1"/>
        <pt x="932" y="478" on="0"/>
        <pt x="899" y="295" on="0"/>
        <pt x="846" y="160" on="0"/>
        <pt x="777" y="67" on="0"/>
        <pt x="705" y="7" on="0"/>
        <pt x="636" y="-25" on="0"/>
        <pt x="580" y="-40" on="0"/>
        <pt x="545" y="-43" on="0"/>
        <pt x="543" y="-43" on="1"/>
        <pt x="429" y="-43" on="0"/>
        <pt x="251" y="52" on="0"/>
        <pt x="129" y="239" on="0"/>
        <pt x="66" y="516" on="0"/>
        <pt x="66" y="698" on="1"/>
        <pt x="66" y="895" on="0"/>
        <pt x="128" y="1183" on="0"/>
        <pt x="254" y="1372" on="0"/>
        <pt x="447" y="1464" on="0"/>
        <pt x="578" y="1464" on="1"/>
        <pt x="581" y="1464" on="0"/>
        <pt x="639" y="1459" on="0"/>
        <pt x="721" y="1431" on="0"/>
        <pt x="814" y="1370" on="0"/>
        <pt x="893" y="1258" on="0"/>
        <pt x="946" y="1084" on="0"/>
        <pt x="946" y="958" on="1"/>
      </contour>
    </TTGlyph>
    <TTGlyph name="Gbreve" xMin="66" yMin="-43" xMax="946" yMax="1753">
      <component glyphName="G" x="0" y="0" flags="0x204"/>
      <component glyphName="breve" x="365" y="348" flags="0x4"/>
    </TTGlyph>
    <TTGlyph name="Gcircumflex" xMin="66" yMin="-43" xMax="946" yMax="1856">
      <component glyphName="G" x="0" y="0" flags="0x204"/>
      <component glyphName="circumflex" x="336" y="375" flags="0x4"/>
    </TTGlyph>
    <TTGlyph name="Gcommaaccent" xMin="66" yMin="-358" xMax="946" yMax="1464">
      <component glyphName="G" x="0" y="0" flags="0x204"/>
      <component glyphName="uni0326" x="348" y="41" flags="0x4"/>
    </TTGlyph>
    <TTGlyph name="Gdotaccent" xMin="66" yMin="-43" xMax="946" yMax="1722">
      <component glyphName="G" x="0" y="0" flags="0x204"/>
      <component glyphName="dotaccent" x="459" y="348" flags="0x4"/>
    </TTGlyph>
    <TTGlyph name="H" xMin="102" yMin="16" xMax="901" yMax="1448">
      <contour>
        <pt x="317" y="1432" on="1"/>
        <pt x="293" y="997" on="0"/>
        <pt x="281" y="569" on="1"/>
        <pt x="670" y="580" on="1"/>
        <pt x="676" y="1012" on="0"/>
        <pt x="676" y="1448" on="1"/>
        <pt x="901" y="1446" on="1"/>
        <pt x="872" y="1090" on="0"/>
        <pt x="826" y="374" on="0"/>
        <pt x="813" y="16" on="1"/>
        <pt x="657" y="16" on="1"/>
        <pt x="666" y="418" on="1"/>
        <pt x="276" y="418" on="1"/>
        <pt x="270" y="218" on="0"/>
        <pt x="270" y="20" on="1"/>
        <pt x="115" y="18" on="1"/>
        <pt x="115" y="376" on="0"/>
        <pt x="109" y="1081" on="0"/>
        <pt x="102" y="1436" on="1"/>
      </contour>
    </TTGlyph>
    <TTGlyph name="Hbar" xMin="29" yMin="16" xMax="948" yMax="1448">
      <contour>
        <pt x="850" y="752" on="1"/>
        <pt x="838" y="566" on="0"/>
        <pt x="819" y="200" on="0"/>
        <pt x="813" y="16" on="1"/>
        <pt x="657" y="16" on="1"/>
        <pt x="666" y="418" on="1"/>
        <pt x="276" y="418" on="1"/>
        <pt x="270" y="218" on="0"/>
        <pt x="270" y="20" on="1"/>
        <pt x="115" y="18" on="1"/>
        <pt x="115" y="202" on="0"/>
        <pt x="113" y="566" on="0"/>
        <pt x="111" y="752" on="1"/>
        <pt x="29" y="752" on="1"/>
        <pt x="29" y="879" on="1"/>
        <pt x="111" y="879" on="1"/>
        <pt x="102" y="1436" on="1"/>
        <pt x="317" y="1432" on="1"/>
        <pt x="309" y="1291" on="0"/>
        <pt x="296" y="1016" on="0"/>
        <pt x="291" y="879" on="1"/>
        <pt x="674" y="879" on="1"/>
        <pt x="676" y="1021" on="0"/>
        <pt x="676" y="1304" on="0"/>
        <pt x="676" y="1448" on="1"/>
        <pt x="901" y="1446" on="1"/>
        <pt x="889" y="1303" on="0"/>
        <pt x="867" y="1021" on="0"/>
        <pt x="858" y="879" on="1"/>
        <pt x="948" y="879" on="1"/>
        <pt x="948" y="752" on="1"/>
      </contour>
      <contour>
        <pt x="670" y="580" on="1"/>
        <pt x="670" y="623" on="0"/>
        <pt x="670" y="708" on="0"/>
        <pt x="672" y="752" on="1"/>
        <pt x="285" y="752" on="1"/>
        <pt x="281" y="569" on="1"/>
      </contour>
    </TTGlyph>
    <TTGlyph name="Hcircumflex" xMin="102" yMin="16" xMax="901" yMax="1837">
      <component glyphName="H" x="0" y="0" flags="0x204"/>
      <component glyphName="circumflex" x="276" y="356" flags="0x4"/>
    </TTGlyph>
    <TTGlyph name="I" xMin="47" yMin="16" xMax="522" yMax="1458">
      <contour>
        <pt x="485" y="16" on="1"/>
        <pt x="47" y="16" on="1"/>
        <pt x="49" y="172" on="1"/>
        <pt x="81" y="170" on="0"/>
        <pt x="145" y="168" on="0"/>
        <pt x="176" y="168" on="1"/>
        <pt x="181" y="369" on="0"/>
        <pt x="186" y="771" on="0"/>
        <pt x="186" y="975" on="1"/>
        <pt x="186" y="1055" on="0"/>
        <pt x="186" y="1215" on="0"/>
        <pt x="184" y="1296" on="1"/>
        <pt x="57" y="1278" on="1"/>
        <pt x="47" y="1458" on="1"/>
        <pt x="107" y="1456" on="0"/>
        <pt x="227" y="1456" on="0"/>
        <pt x="287" y="1456" on="1"/>
        <pt x="346" y="1456" on="0"/>
        <pt x="463" y="1456" on="0"/>
        <pt x="522" y="1458" on="1"/>
        <pt x="520" y="1327" on="1"/>
        <pt x="486" y="1325" on="0"/>
        <pt x="419" y="1320" on="0"/>
        <pt x="385" y="1317" on="1"/>
        <pt x="363" y="1028" on="0"/>
        <pt x="328" y="457" on="0"/>
        <pt x="315" y="168" on="1"/>
        <pt x="359" y="168" on="0"/>
        <pt x="442" y="173" on="0"/>
        <pt x="485" y="178" on="1"/>
      </contour>
    </TTGlyph>
    <TTGlyph name="IJ" xMin="47" yMin="-27" xMax="1407" yMax="1458">
      <component glyphName="I" x="0" y="0" flags="0x4"/>
      <component glyphName="J" x="530" y="0" flags="0x4"/>
    </TTGlyph>
    <TTGlyph name="Iacute" xMin="47" yMin="16" xMax="639" yMax="1870">
      <component glyphName="I" x="0" y="0" flags="0x204"/>
      <component glyphName="acute" x="274" y="383" flags="0x4"/>
    </TTGlyph>
    <TTGlyph name="Ibreve" xMin="47" yMin="16" xMax="522" yMax="1755">
      <component glyphName="I" x="0" y="0" flags="0x204"/>
      <component glyphName="breve" x="76" y="350" flags="0x4"/>
    </TTGlyph>
    <TTGlyph name="Icircumflex" xMin="47" yMin="16" xMax="522" yMax="1858">
      <component glyphName="I" x="0" y="0" flags="0x204"/>
      <component glyphName="circumflex" x="78" y="377" flags="0x4"/>
    </TTGlyph>
    <TTGlyph name="Idieresis" xMin="33" yMin="16" xMax="537" yMax="1727">
      <component glyphName="I" x="0" y="0" flags="0x204"/>
      <component glyphName="dieresis" x="33" y="371" flags="0x4"/>
    </TTGlyph>
    <TTGlyph name="Idotaccent" xMin="47" yMin="16" xMax="522" yMax="1716">
      <component glyphName="I" x="0" y="0" flags="0x204"/>
      <component glyphName="dotaccent" x="190" y="342" flags="0x4"/>
    </TTGlyph>
    <TTGlyph name="Igrave" xMin="-48" yMin="16" xMax="522" yMax="1859">
      <component glyphName="I" x="0" y="0" flags="0x204"/>
      <component glyphName="grave" x="-48" y="389" flags="0x4"/>
    </TTGlyph>
    <TTGlyph name="Imacron" xMin="47" yMin="16" xMax="522" yMax="1663">
      <component glyphName="I" x="0" y="0" flags="0x204"/>
      <component glyphName="macron" x="63" y="358" flags="0x4"/>
    </TTGlyph>
    <TTGlyph name="Iogonek" xMin="47" yMin="-213" xMax="522" yMax="1458">
      <contour>
        <pt x="393" y="-164" on="1"/>
        <pt x="362" y="-186" on="0"/>
        <pt x="297" y="-213" on="0"/>
        <pt x="262" y="-213" on="1"/>
        <pt x="238" y="-213" on="0"/>
        <pt x="194" y="-200" on="0"/>
        <pt x="160" y="-175" on="0"/>
        <pt x="139" y="-139" on="0"/>
        <pt x="139" y="-115" on="1"/>
        <pt x="139" y="-81" on="0"/>
        <pt x="176" y="-13" on="0"/>
        <pt x="201" y="16" on="1"/>
        <pt x="47" y="16" on="1"/>
        <pt x="49" y="172" on="1"/>
        <pt x="81" y="170" on="0"/>
        <pt x="145" y="168" on="0"/>
        <pt x="176" y="168" on="1"/>
        <pt x="181" y="369" on="0"/>
        <pt x="186" y="771" on="0"/>
        <pt x="186" y="975" on="1"/>
        <pt x="186" y="1055" on="0"/>
        <pt x="186" y="1215" on="0"/>
        <pt x="184" y="1296" on="1"/>
        <pt x="57" y="1278" on="1"/>
        <pt x="47" y="1458" on="1"/>
        <pt x="107" y="1456" on="0"/>
        <pt x="227" y="1456" on="0"/>
        <pt x="287" y="1456" on="1"/>
        <pt x="346" y="1456" on="0"/>
        <pt x="463" y="1456" on="0"/>
        <pt x="522" y="1458" on="1"/>
        <pt x="520" y="1327" on="1"/>
        <pt x="486" y="1325" on="0"/>
        <pt x="419" y="1320" on="0"/>
        <pt x="385" y="1317" on="1"/>
        <pt x="363" y="1028" on="0"/>
        <pt x="328" y="457" on="0"/>
        <pt x="315" y="168" on="1"/>
        <pt x="359" y="168" on="0"/>
        <pt x="442" y="173" on="0"/>
        <pt x="485" y="178" on="1"/>
        <pt x="485" y="16" on="1"/>
        <pt x="276" y="16" on="1"/>
        <pt x="258" y="-7" on="0"/>
        <pt x="231" y="-59" on="0"/>
        <pt x="231" y="-82" on="1"/>
        <pt x="231" y="-97" on="0"/>
        <pt x="251" y="-121" on="0"/>
        <pt x="266" y="-121" on="1"/>
        <pt x="285" y="-121" on="0"/>
        <pt x="320" y="-100" on="0"/>
        <pt x="334" y="-88" on="1"/>
      </contour>
    </TTGlyph>
    <TTGlyph name="Itilde" xMin="37" yMin="16" xMax="522" yMax="1775">
      <component glyphName="I" x="0" y="0" flags="0x204"/>
      <component glyphName="tilde" x="37" y="348" flags="0x4"/>
    </TTGlyph>
    <TTGlyph name="J" xMin="27" yMin="-27" xMax="877" yMax="1448">
      <contour>
        <pt x="868" y="629" on="1"/>
        <pt x="854" y="459" on="0"/>
        <pt x="788" y="212" on="0"/>
        <pt x="676" y="51" on="0"/>
        <pt x="514" y="-27" on="0"/>
        <pt x="403" y="-27" on="1"/>
        <pt x="308" y="-27" on="0"/>
        <pt x="172" y="43" on="0"/>
        <pt x="82" y="177" on="0"/>
        <pt x="34" y="371" on="0"/>
        <pt x="27" y="496" on="1"/>
        <pt x="242" y="504" on="1"/>
        <pt x="243" y="388" on="0"/>
        <pt x="263" y="232" on="0"/>
        <pt x="305" y="137" on="0"/>
        <pt x="370" y="96" on="0"/>
        <pt x="416" y="96" on="1"/>
        <pt x="475" y="96" on="0"/>
        <pt x="565" y="176" on="0"/>
        <pt x="626" y="355" on="0"/>
        <pt x="657" y="643" on="0"/>
        <pt x="657" y="850" on="1"/>
        <pt x="657" y="907" on="0"/>
        <pt x="654" y="1044" on="0"/>
        <pt x="647" y="1192" on="0"/>
        <pt x="633" y="1347" on="0"/>
        <pt x="623" y="1421" on="1"/>
        <pt x="850" y="1448" on="1"/>
        <pt x="865" y="1280" on="0"/>
        <pt x="877" y="999" on="0"/>
        <pt x="877" y="893" on="1"/>
        <pt x="877" y="830" on="0"/>
        <pt x="874" y="733" on="0"/>
        <pt x="872" y="699" on="1"/>
        <pt x="870" y="659" on="0"/>
      </contour>
    </TTGlyph>
    <TTGlyph name="Jcircumflex" xMin="27" yMin="-27" xMax="928" yMax="1858">
      <component glyphName="J" x="0" y="0" flags="0x204"/>
      <component glyphName="circumflex" x="516" y="377" flags="0x4"/>
    </TTGlyph>
    <TTGlyph name="K" xMin="98" yMin="-18" xMax="920" yMax="1438">
      <contour>
        <pt x="356" y="1427" on="1"/>
        <pt x="336" y="1213" on="0"/>
        <pt x="306" y="791" on="0"/>
        <pt x="295" y="578" on="1"/>
        <pt x="428" y="764" on="0"/>
        <pt x="623" y="1200" on="0"/>
        <pt x="686" y="1438" on="1"/>
        <pt x="920" y="1421" on="1"/>
        <pt x="848" y="1244" on="0"/>
        <pt x="682" y="916" on="0"/>
        <pt x="580" y="760" on="1"/>
        <pt x="879" y="-8" on="1"/>
        <pt x="653" y="-8" on="1"/>
        <pt x="494" y="637" on="1"/>
        <pt x="444" y="568" on="0"/>
        <pt x="342" y="436" on="0"/>
        <pt x="287" y="371" on="1"/>
        <pt x="282" y="274" on="0"/>
        <pt x="278" y="79" on="0"/>
        <pt x="276" y="-18" on="1"/>
        <pt x="106" y="-18" on="1"/>
        <pt x="108" y="112" on="0"/>
        <pt x="111" y="370" on="0"/>
        <pt x="111" y="500" on="1"/>
        <pt x="111" y="733" on="0"/>
        <pt x="104" y="1192" on="0"/>
        <pt x="98" y="1425" on="1"/>
      </contour>
    </TTGlyph>
    <TTGlyph name="Kcommaaccent" xMin="98" yMin="-307" xMax="920" yMax="1438">
      <component glyphName="K" x="0" y="0" flags="0x204"/>
      <component glyphName="uni0326" x="289" y="92" flags="0x4"/>
    </TTGlyph>
    <TTGlyph name="L" xMin="98" yMin="-12" xMax="743" yMax="1444">
      <contour>
        <pt x="743" y="10" on="1"/>
        <pt x="111" y="-12" on="1"/>
        <pt x="113" y="108" on="0"/>
        <pt x="115" y="348" on="0"/>
        <pt x="115" y="469" on="1"/>
        <pt x="115" y="712" on="0"/>
        <pt x="106" y="1191" on="0"/>
        <pt x="98" y="1434" on="1"/>
        <pt x="338" y="1444" on="1"/>
        <pt x="327" y="1259" on="0"/>
        <pt x="310" y="931" on="0"/>
        <pt x="297" y="622" on="0"/>
        <pt x="287" y="321" on="0"/>
        <pt x="283" y="164" on="1"/>
        <pt x="335" y="161" on="0"/>
        <pt x="441" y="160" on="0"/>
        <pt x="494" y="160" on="1"/>
        <pt x="617" y="160" on="0"/>
        <pt x="743" y="166" on="1"/>
      </contour>
    </TTGlyph>
    <TTGlyph name="Lacute" xMin="98" yMin="-12" xMax="743" yMax="1876">
      <component glyphName="L" x="0" y="0" flags="0x204"/>
      <component glyphName="acute" x="199" y="389" flags="0x4"/>
    </TTGlyph>
    <TTGlyph name="Lcaron" xMin="98" yMin="-12" xMax="743" yMax="1450">
      <component glyphName="L" x="0" y="0" flags="0x204"/>
      <component glyphName="uni0315" x="354" y="66" flags="0x4"/>
    </TTGlyph>
    <TTGlyph name="Lcommaaccent" xMin="98" yMin="-315" xMax="743" yMax="1444">
      <component glyphName="L" x="0" y="0" flags="0x204"/>
      <component glyphName="uni0326" x="229" y="84" flags="0x4"/>
    </TTGlyph>
    <TTGlyph name="Ldot" xMin="98" yMin="-12" xMax="883" yMax="1444">
      <component glyphName="L" x="0" y="0" flags="0x4"/>
      <component glyphName="periodcentered" x="627" y="0" flags="0x4"/>
    </TTGlyph>
    <TTGlyph name="Lslash" xMin="-29" yMin="-12" xMax="758" yMax="1444">
      <contour>
        <pt x="311" y="600" on="1"/>
        <pt x="306" y="492" on="0"/>
        <pt x="300" y="276" on="0"/>
        <pt x="297" y="164" on="1"/>
        <pt x="350" y="161" on="0"/>
        <pt x="455" y="160" on="0"/>
        <pt x="508" y="160" on="1"/>
        <pt x="632" y="160" on="0"/>
        <pt x="758" y="166" on="1"/>
        <pt x="758" y="10" on="1"/>
        <pt x="125" y="-12" on="1"/>
        <pt x="127" y="108" on="0"/>
        <pt x="129" y="348" on="0"/>
        <pt x="129" y="469" on="1"/>
        <pt x="129" y="530" on="1"/>
        <pt x="16" y="489" on="1"/>
        <pt x="-29" y="633" on="1"/>
        <pt x="127" y="682" on="1"/>
        <pt x="125" y="871" on="0"/>
        <pt x="119" y="1244" on="0"/>
        <pt x="113" y="1434" on="1"/>
        <pt x="352" y="1444" on="1"/>
        <pt x="340" y="1249" on="0"/>
        <pt x="323" y="904" on="0"/>
        <pt x="315" y="741" on="1"/>
        <pt x="416" y="772" on="1"/>
        <pt x="453" y="653" on="1"/>
      </contour>
    </TTGlyph>
    <TTGlyph name="M" xMin="55" yMin="14" xMax="1022" yMax="1456">
      <contour>
        <pt x="1022" y="14" on="1"/>
        <pt x="936" y="14" on="1"/>
        <pt x="846" y="1106" on="1"/>
        <pt x="680" y="113" on="1"/>
        <pt x="489" y="113" on="1"/>
        <pt x="344" y="1083" on="1"/>
        <pt x="217" y="25" on="1"/>
        <pt x="55" y="35" on="1"/>
        <pt x="184" y="1452" on="1"/>
        <pt x="465" y="1452" on="1"/>
        <pt x="598" y="430" on="1"/>
        <pt x="743" y="1456" on="1"/>
        <pt x="1022" y="1456" on="1"/>
      </contour>
    </TTGlyph>
    <TTGlyph name="N" xMin="96" yMin="-2" xMax="924" yMax="1430">
      <contour>
        <pt x="924" y="1427" on="1"/>
        <pt x="883" y="1070" on="0"/>
        <pt x="838" y="359" on="0"/>
        <pt x="831" y="-2" on="1"/>
        <pt x="672" y="-2" on="1"/>
        <pt x="297" y="995" on="1"/>
        <pt x="273" y="499" on="0"/>
        <pt x="270" y="2" on="1"/>
        <pt x="109" y="0" on="1"/>
        <pt x="111" y="106" on="0"/>
        <pt x="111" y="318" on="0"/>
        <pt x="111" y="426" on="1"/>
        <pt x="111" y="922" on="0"/>
        <pt x="96" y="1417" on="1"/>
        <pt x="319" y="1413" on="1"/>
        <pt x="676" y="338" on="1"/>
        <pt x="680" y="418" on="0"/>
        <pt x="686" y="609" on="0"/>
        <pt x="691" y="817" on="0"/>
        <pt x="694" y="1035" on="0"/>
        <pt x="694" y="1141" on="1"/>
        <pt x="694" y="1216" on="0"/>
        <pt x="692" y="1361" on="0"/>
        <pt x="690" y="1430" on="1"/>
      </contour>
    </TTGlyph>
    <TTGlyph name="Nacute" xMin="96" yMin="-2" xMax="924" yMax="1792">
      <component glyphName="N" x="0" y="0" flags="0x204"/>
      <component glyphName="acute" x="461" y="305" flags="0x4"/>
    </TTGlyph>
    <TTGlyph name="Ncaron" xMin="96" yMin="-2" xMax="924" yMax="1817">
      <component glyphName="N" x="0" y="0" flags="0x204"/>
      <component glyphName="caron" x="285" y="336" flags="0x4"/>
    </TTGlyph>
    <TTGlyph name="Ncommaaccent" xMin="96" yMin="-303" xMax="924" yMax="1430">
      <component glyphName="N" x="0" y="0" flags="0x204"/>
      <component glyphName="uni0326" x="338" y="96" flags="0x4"/>
    </TTGlyph>
    <TTGlyph name="Ntilde" xMin="96" yMin="-2" xMax="924" yMax="1724">
      <component glyphName="N" x="0" y="0" flags="0x204"/>
      <component glyphName="tilde" x="272" y="297" flags="0x4"/>
    </TTGlyph>
    <TTGlyph name="O" xMin="63" yMin="-59" xMax="905" yMax="1491">
      <contour>
        <pt x="905" y="766" on="1"/>
        <pt x="905" y="658" on="0"/>
        <pt x="876" y="453" on="0"/>
        <pt x="823" y="269" on="0"/>
        <pt x="745" y="115" on="0"/>
        <pt x="648" y="4" on="0"/>
        <pt x="531" y="-59" on="0"/>
        <pt x="465" y="-59" on="1"/>
        <pt x="398" y="-59" on="0"/>
        <pt x="287" y="3" on="0"/>
        <pt x="198" y="115" on="0"/>
        <pt x="131" y="269" on="0"/>
        <pt x="86" y="453" on="0"/>
        <pt x="63" y="658" on="0"/>
        <pt x="63" y="766" on="1"/>
        <pt x="63" y="926" on="0"/>
        <pt x="113" y="1193" on="0"/>
        <pt x="217" y="1385" on="0"/>
        <pt x="376" y="1491" on="0"/>
        <pt x="485" y="1491" on="1"/>
        <pt x="600" y="1491" on="0"/>
        <pt x="760" y="1385" on="0"/>
        <pt x="860" y="1193" on="0"/>
        <pt x="905" y="926" on="0"/>
      </contour>
      <contour>
        <pt x="719" y="758" on="1"/>
        <pt x="719" y="891" on="0"/>
        <pt x="694" y="1113" on="0"/>
        <pt x="638" y="1272" on="0"/>
        <pt x="549" y="1360" on="0"/>
        <pt x="485" y="1360" on="1"/>
        <pt x="425" y="1360" on="0"/>
        <pt x="336" y="1272" on="0"/>
        <pt x="278" y="1113" on="0"/>
        <pt x="250" y="891" on="0"/>
        <pt x="250" y="758" on="1"/>
        <pt x="250" y="623" on="0"/>
        <pt x="278" y="375" on="0"/>
        <pt x="334" y="184" on="0"/>
        <pt x="418" y="70" on="0"/>
        <pt x="473" y="70" on="1"/>
        <pt x="528" y="70" on="0"/>
        <pt x="619" y="184" on="0"/>
        <pt x="684" y="375" on="0"/>
        <pt x="719" y="623" on="0"/>
      </contour>
    </TTGlyph>
    <TTGlyph name="OE" xMin="63" yMin="-59" xMax="1462" yMax="1491">
      <contour>
        <pt x="1462" y="1423" on="1"/>
        <pt x="1462" y="1286" on="1"/>
        <pt x="913" y="1286" on="1"/>
        <pt x="913" y="676" on="1"/>
        <pt x="1348" y="676" on="1"/>
        <pt x="1348" y="528" on="1"/>
        <pt x="907" y="528" on="1"/>
        <pt x="907" y="166" on="1"/>
        <pt x="1440" y="166" on="1"/>
        <pt x="1440" y="8" on="1"/>
        <pt x="737" y="8" on="1"/>
        <pt x="737" y="111" on="1"/>
        <pt x="682" y="32" on="0"/>
        <pt x="545" y="-59" on="0"/>
        <pt x="465" y="-59" on="1"/>
        <pt x="398" y="-59" on="0"/>
        <pt x="287" y="3" on="0"/>
        <pt x="198" y="115" on="0"/>
        <pt x="131" y="269" on="0"/>
        <pt x="86" y="453" on="0"/>
        <pt x="63" y="658" on="0"/>
        <pt x="63" y="766" on="1"/>
        <pt x="63" y="926" on="0"/>
        <pt x="113" y="1193" on="0"/>
        <pt x="217" y="1385" on="0"/>
        <pt x="376" y="1491" on="0"/>
        <pt x="485" y="1491" on="1"/>
        <pt x="564" y="1491" on="0"/>
        <pt x="689" y="1439" on="0"/>
        <pt x="737" y="1391" on="1"/>
        <pt x="737" y="1423" on="1"/>
      </contour>
      <contour>
        <pt x="719" y="758" on="1"/>
        <pt x="719" y="891" on="0"/>
        <pt x="694" y="1113" on="0"/>
        <pt x="638" y="1272" on="0"/>
        <pt x="549" y="1360" on="0"/>
        <pt x="485" y="1360" on="1"/>
        <pt x="425" y="1360" on="0"/>
        <pt x="336" y="1272" on="0"/>
        <pt x="278" y="1113" on="0"/>
        <pt x="250" y="891" on="0"/>
        <pt x="250" y="758" on="1"/>
        <pt x="250" y="623" on="0"/>
        <pt x="278" y="375" on="0"/>
        <pt x="334" y="184" on="0"/>
        <pt x="418" y="70" on="0"/>
        <pt x="473" y="70" on="1"/>
        <pt x="528" y="70" on="0"/>
        <pt x="619" y="184" on="0"/>
        <pt x="684" y="375" on="0"/>
        <pt x="719" y="623" on="0"/>
      </contour>
    </TTGlyph>
    <TTGlyph name="Oacute" xMin="63" yMin="-59" xMax="905" yMax="1901">
      <component glyphName="O" x="0" y="0" flags="0x204"/>
      <component glyphName="acute" x="487" y="414" flags="0x4"/>
    </TTGlyph>
    <TTGlyph name="Obreve" xMin="63" yMin="-59" xMax="905" yMax="1794">
      <component glyphName="O" x="0" y="0" flags="0x204"/>
      <component glyphName="breve" x="279" y="389" flags="0x4"/>
    </TTGlyph>
    <TTGlyph name="Ocircumflex" xMin="63" yMin="-59" xMax="905" yMax="1897">
      <component glyphName="O" x="0" y="0" flags="0x204"/>
      <component glyphName="circumflex" x="279" y="416" flags="0x4"/>
    </TTGlyph>
    <TTGlyph name="Odieresis" xMin="63" yMin="-59" xMax="905" yMax="1741">
      <component glyphName="O" x="0" y="0" flags="0x204"/>
      <component glyphName="dieresis" x="231" y="385" flags="0x4"/>
    </TTGlyph>
    <TTGlyph name="Ograve" xMin="63" yMin="-59" xMax="905" yMax="1882">
      <component glyphName="O" x="0" y="0" flags="0x204"/>
      <component glyphName="grave" x="109" y="412" flags="0x4"/>
    </TTGlyph>
    <TTGlyph name="Ohungarumlaut" xMin="63" yMin="-59" xMax="905" yMax="1954">
      <component glyphName="O" x="0" y="0" flags="0x204"/>
      <component glyphName="hungarumlaut" x="324" y="414" flags="0x4"/>
    </TTGlyph>
    <TTGlyph name="Omacron" xMin="63" yMin="-59" xMax="905" yMax="1694">
      <component glyphName="O" x="0" y="0" flags="0x204"/>
      <component glyphName="macron" x="272" y="389" flags="0x4"/>
    </TTGlyph>
    <TTGlyph name="Omega" xMin="72" yMin="10" xMax="887" yMax="1462">
      <contour>
        <pt x="354" y="272" on="1"/>
        <pt x="299" y="289" on="0"/>
        <pt x="214" y="361" on="0"/>
        <pt x="151" y="456" on="0"/>
        <pt x="109" y="568" on="0"/>
        <pt x="83" y="683" on="0"/>
        <pt x="72" y="796" on="0"/>
        <pt x="72" y="844" on="1"/>
        <pt x="72" y="892" on="0"/>
        <pt x="76" y="1018" on="0"/>
        <pt x="96" y="1151" on="0"/>
        <pt x="140" y="1281" on="0"/>
        <pt x="221" y="1386" on="0"/>
        <pt x="345" y="1456" on="0"/>
        <pt x="436" y="1462" on="1"/>
        <pt x="547" y="1462" on="0"/>
        <pt x="701" y="1390" on="0"/>
        <pt x="801" y="1274" on="0"/>
        <pt x="856" y="1125" on="0"/>
        <pt x="882" y="971" on="0"/>
        <pt x="887" y="824" on="0"/>
        <pt x="887" y="768" on="1"/>
        <pt x="887" y="710" on="0"/>
        <pt x="868" y="607" on="0"/>
        <pt x="838" y="517" on="0"/>
        <pt x="800" y="439" on="0"/>
        <pt x="780" y="408" on="1"/>
        <pt x="733" y="334" on="0"/>
        <pt x="674" y="279" on="1"/>
        <pt x="674" y="109" on="1"/>
        <pt x="637" y="166" on="1"/>
        <pt x="887" y="168" on="1"/>
        <pt x="887" y="10" on="1"/>
        <pt x="549" y="18" on="1"/>
        <pt x="549" y="108" on="0"/>
        <pt x="550" y="180" on="1"/>
        <pt x="550" y="210" on="0"/>
        <pt x="551" y="269" on="0"/>
        <pt x="553" y="316" on="0"/>
        <pt x="554" y="345" on="0"/>
        <pt x="555" y="346" on="1"/>
        <pt x="586" y="374" on="0"/>
        <pt x="638" y="455" on="0"/>
        <pt x="676" y="572" on="0"/>
        <pt x="698" y="734" on="0"/>
        <pt x="698" y="844" on="1"/>
        <pt x="698" y="977" on="0"/>
        <pt x="654" y="1166" on="0"/>
        <pt x="584" y="1284" on="0"/>
        <pt x="495" y="1339" on="0"/>
        <pt x="449" y="1339" on="1"/>
        <pt x="358" y="1339" on="0"/>
        <pt x="260" y="1096" on="0"/>
        <pt x="260" y="852" on="1"/>
        <pt x="260" y="828" on="0"/>
        <pt x="266" y="744" on="0"/>
        <pt x="281" y="643" on="0"/>
        <pt x="309" y="535" on="0"/>
        <pt x="354" y="439" on="0"/>
        <pt x="417" y="365" on="0"/>
        <pt x="461" y="350" on="1"/>
        <pt x="475" y="18" on="1"/>
        <pt x="113" y="14" on="1"/>
        <pt x="109" y="168" on="1"/>
        <pt x="408" y="147" on="1"/>
        <pt x="354" y="76" on="1"/>
      </contour>
    </TTGlyph>
    <TTGlyph name="Oslash" xMin="63" yMin="-59" xMax="905" yMax="1491">
      <contour>
        <pt x="809" y="1290" on="1"/>
        <pt x="860" y="1194" on="0"/>
        <pt x="905" y="928" on="0"/>
        <pt x="905" y="766" on="1"/>
        <pt x="905" y="658" on="0"/>
        <pt x="876" y="453" on="0"/>
        <pt x="823" y="269" on="0"/>
        <pt x="745" y="115" on="0"/>
        <pt x="648" y="4" on="0"/>
        <pt x="531" y="-59" on="0"/>
        <pt x="465" y="-59" on="1"/>
        <pt x="397" y="-59" on="0"/>
        <pt x="285" y="4" on="0"/>
        <pt x="240" y="61" on="1"/>
        <pt x="211" y="0" on="1"/>
        <pt x="104" y="16" on="1"/>
        <pt x="174" y="172" on="1"/>
        <pt x="118" y="290" on="0"/>
        <pt x="63" y="596" on="0"/>
        <pt x="63" y="766" on="1"/>
        <pt x="63" y="926" on="0"/>
        <pt x="113" y="1193" on="0"/>
        <pt x="217" y="1385" on="0"/>
        <pt x="376" y="1491" on="0"/>
        <pt x="485" y="1491" on="1"/>
        <pt x="558" y="1491" on="0"/>
        <pt x="674" y="1447" on="0"/>
        <pt x="721" y="1405" on="1"/>
        <pt x="748" y="1466" on="1"/>
        <pt x="870" y="1423" on="1"/>
      </contour>
      <contour>
        <pt x="719" y="758" on="1"/>
        <pt x="719" y="841" on="0"/>
        <pt x="709" y="990" on="0"/>
        <pt x="698" y="1053" on="1"/>
        <pt x="319" y="236" on="1"/>
        <pt x="347" y="158" on="0"/>
        <pt x="424" y="70" on="0"/>
        <pt x="473" y="70" on="1"/>
        <pt x="528" y="70" on="0"/>
        <pt x="619" y="184" on="0"/>
        <pt x="684" y="375" on="0"/>
        <pt x="719" y="623" on="0"/>
      </contour>
      <contour>
        <pt x="250" y="758" on="1"/>
        <pt x="250" y="664" on="0"/>
        <pt x="262" y="484" on="0"/>
        <pt x="276" y="406" on="1"/>
        <pt x="647" y="1239" on="1"/>
        <pt x="619" y="1296" on="0"/>
        <pt x="539" y="1360" on="0"/>
        <pt x="485" y="1360" on="1"/>
        <pt x="425" y="1360" on="0"/>
        <pt x="336" y="1272" on="0"/>
        <pt x="278" y="1113" on="0"/>
        <pt x="250" y="891" on="0"/>
      </contour>
    </TTGlyph>
    <TTGlyph name="Oslashacute" xMin="63" yMin="-59" xMax="905" yMax="1913">
      <component glyphName="Oslash" x="0" y="0" flags="0x204"/>
      <component glyphName="acute" x="455" y="426" flags="0x4"/>
    </TTGlyph>
    <TTGlyph name="Otilde" xMin="63" yMin="-59" xMax="905" yMax="1798">
      <component glyphName="O" x="0" y="0" flags="0x204"/>
      <component glyphName="tilde" x="246" y="371" flags="0x4"/>
    </TTGlyph>
    <TTGlyph name="P" xMin="98" yMin="-4" xMax="934" yMax="1487">
      <contour>
        <pt x="934" y="987" on="1"/>
        <pt x="930" y="903" on="0"/>
        <pt x="872" y="761" on="0"/>
        <pt x="778" y="645" on="0"/>
        <pt x="656" y="557" on="0"/>
        <pt x="521" y="497" on="0"/>
        <pt x="379" y="467" on="0"/>
        <pt x="313" y="467" on="1"/>
        <pt x="301" y="467" on="0"/>
        <pt x="277" y="467" on="0"/>
        <pt x="264" y="469" on="1"/>
        <pt x="258" y="350" on="0"/>
        <pt x="251" y="115" on="0"/>
        <pt x="248" y="-4" on="1"/>
        <pt x="98" y="-4" on="1"/>
        <pt x="104" y="204" on="0"/>
        <pt x="113" y="617" on="0"/>
        <pt x="113" y="827" on="1"/>
        <pt x="113" y="979" on="0"/>
        <pt x="107" y="1278" on="0"/>
        <pt x="102" y="1430" on="1"/>
        <pt x="150" y="1449" on="0"/>
        <pt x="256" y="1472" on="0"/>
        <pt x="355" y="1484" on="0"/>
        <pt x="439" y="1487" on="0"/>
        <pt x="465" y="1487" on="1"/>
        <pt x="560" y="1487" on="0"/>
        <pt x="731" y="1435" on="0"/>
        <pt x="859" y="1316" on="0"/>
        <pt x="934" y="1125" on="0"/>
      </contour>
      <contour>
        <pt x="315" y="1346" on="1"/>
        <pt x="300" y="1154" on="0"/>
        <pt x="278" y="774" on="0"/>
        <pt x="268" y="584" on="1"/>
        <pt x="270" y="584" on="1"/>
        <pt x="380" y="584" on="0"/>
        <pt x="533" y="644" on="0"/>
        <pt x="634" y="734" on="0"/>
        <pt x="690" y="839" on="0"/>
        <pt x="717" y="931" on="0"/>
        <pt x="723" y="993" on="0"/>
        <pt x="723" y="995" on="1"/>
        <pt x="723" y="1006" on="0"/>
        <pt x="719" y="1068" on="0"/>
        <pt x="701" y="1149" on="0"/>
        <pt x="664" y="1237" on="0"/>
        <pt x="598" y="1310" on="0"/>
        <pt x="498" y="1358" on="0"/>
        <pt x="426" y="1358" on="1"/>
        <pt x="376" y="1358" on="0"/>
      </contour>
    </TTGlyph>
    <TTGlyph name="Q" xMin="63" yMin="-430" xMax="905" yMax="1491">
      <contour>
        <pt x="684" y="-430" on="1"/>
        <pt x="606" y="-350" on="0"/>
        <pt x="508" y="-164" on="0"/>
        <pt x="489" y="-57" on="1"/>
        <pt x="483" y="-57" on="0"/>
        <pt x="471" y="-59" on="0"/>
        <pt x="465" y="-59" on="1"/>
        <pt x="398" y="-59" on="0"/>
        <pt x="287" y="3" on="0"/>
        <pt x="198" y="115" on="0"/>
        <pt x="131" y="269" on="0"/>
        <pt x="86" y="453" on="0"/>
        <pt x="63" y="658" on="0"/>
        <pt x="63" y="766" on="1"/>
        <pt x="63" y="926" on="0"/>
        <pt x="113" y="1193" on="0"/>
        <pt x="217" y="1385" on="0"/>
        <pt x="376" y="1491" on="0"/>
        <pt x="485" y="1491" on="1"/>
        <pt x="600" y="1491" on="0"/>
        <pt x="760" y="1385" on="0"/>
        <pt x="860" y="1193" on="0"/>
        <pt x="905" y="926" on="0"/>
        <pt x="905" y="766" on="1"/>
        <pt x="905" y="632" on="0"/>
        <pt x="861" y="381" on="0"/>
        <pt x="780" y="170" on="0"/>
        <pt x="665" y="14" on="0"/>
        <pt x="594" y="-25" on="1"/>
        <pt x="626" y="-114" on="0"/>
        <pt x="742" y="-259" on="0"/>
        <pt x="825" y="-319" on="1"/>
      </contour>
      <contour>
        <pt x="719" y="758" on="1"/>
        <pt x="719" y="891" on="0"/>
        <pt x="694" y="1113" on="0"/>
        <pt x="638" y="1272" on="0"/>
        <pt x="549" y="1360" on="0"/>
        <pt x="485" y="1360" on="1"/>
        <pt x="425" y="1360" on="0"/>
        <pt x="336" y="1272" on="0"/>
        <pt x="278" y="1113" on="0"/>
        <pt x="250" y="891" on="0"/>
        <pt x="250" y="758" on="1"/>
        <pt x="250" y="623" on="0"/>
        <pt x="278" y="375" on="0"/>
        <pt x="334" y="184" on="0"/>
        <pt x="418" y="70" on="0"/>
        <pt x="473" y="70" on="1"/>
        <pt x="528" y="70" on="0"/>
        <pt x="619" y="184" on="0"/>
        <pt x="684" y="375" on="0"/>
        <pt x="719" y="623" on="0"/>
      </contour>
    </TTGlyph>
    <TTGlyph name="R" xMin="98" yMin="-12" xMax="934" yMax="1487">
      <contour>
        <pt x="580" y="-12" on="1"/>
        <pt x="410" y="473" on="1"/>
        <pt x="360" y="467" on="0"/>
        <pt x="313" y="467" on="1"/>
        <pt x="301" y="467" on="0"/>
        <pt x="277" y="467" on="0"/>
        <pt x="264" y="469" on="1"/>
        <pt x="258" y="350" on="0"/>
        <pt x="251" y="115" on="0"/>
        <pt x="248" y="-4" on="1"/>
        <pt x="98" y="-4" on="1"/>
        <pt x="104" y="204" on="0"/>
        <pt x="113" y="617" on="0"/>
        <pt x="113" y="827" on="1"/>
        <pt x="113" y="979" on="0"/>
        <pt x="107" y="1278" on="0"/>
        <pt x="102" y="1430" on="1"/>
        <pt x="150" y="1449" on="0"/>
        <pt x="256" y="1472" on="0"/>
        <pt x="355" y="1484" on="0"/>
        <pt x="439" y="1487" on="0"/>
        <pt x="465" y="1487" on="1"/>
        <pt x="560" y="1487" on="0"/>
        <pt x="731" y="1435" on="0"/>
        <pt x="859" y="1316" on="0"/>
        <pt x="934" y="1125" on="0"/>
        <pt x="934" y="987" on="1"/>
        <pt x="929" y="895" on="0"/>
        <pt x="861" y="742" on="0"/>
        <pt x="751" y="621" on="0"/>
        <pt x="612" y="533" on="0"/>
        <pt x="537" y="506" on="1"/>
        <pt x="592" y="379" on="0"/>
        <pt x="720" y="131" on="0"/>
        <pt x="793" y="6" on="1"/>
      </contour>
      <contour>
        <pt x="315" y="1346" on="1"/>
        <pt x="300" y="1154" on="0"/>
        <pt x="278" y="774" on="0"/>
        <pt x="268" y="584" on="1"/>
        <pt x="270" y="584" on="1"/>
        <pt x="380" y="584" on="0"/>
        <pt x="533" y="644" on="0"/>
        <pt x="634" y="734" on="0"/>
        <pt x="690" y="839" on="0"/>
        <pt x="717" y="931" on="0"/>
        <pt x="723" y="993" on="0"/>
        <pt x="723" y="995" on="1"/>
        <pt x="723" y="1006" on="0"/>
        <pt x="719" y="1068" on="0"/>
        <pt x="701" y="1149" on="0"/>
        <pt x="664" y="1237" on="0"/>
        <pt x="598" y="1310" on="0"/>
        <pt x="498" y="1358" on="0"/>
        <pt x="426" y="1358" on="1"/>
        <pt x="376" y="1358" on="0"/>
      </contour>
    </TTGlyph>
    <TTGlyph name="Racute" xMin="98" yMin="-12" xMax="934" yMax="1909">
      <component glyphName="R" x="0" y="0" flags="0x204"/>
      <component glyphName="acute" x="430" y="422" flags="0x4"/>
    </TTGlyph>
    <TTGlyph name="Rcaron" xMin="98" yMin="-12" xMax="934" yMax="1895">
      <component glyphName="R" x="0" y="0" flags="0x204"/>
      <component glyphName="caron" x="248" y="414" flags="0x4"/>
    </TTGlyph>
    <TTGlyph name="Rcommaaccent" xMin="98" yMin="-317" xMax="934" yMax="1487">
      <component glyphName="R" x="0" y="0" flags="0x204"/>
      <component glyphName="uni0326" x="244" y="82" flags="0x4"/>
    </TTGlyph>
    <TTGlyph name="S" xMin="53" yMin="-20" xMax="913" yMax="1528">
      <contour>
        <pt x="913" y="1151" on="1"/>
        <pt x="912" y="1121" on="0"/>
        <pt x="908" y="1087" on="1"/>
        <pt x="904" y="1058" on="0"/>
        <pt x="891" y="980" on="0"/>
        <pt x="877" y="938" on="1"/>
        <pt x="692" y="963" on="1"/>
        <pt x="703" y="1006" on="0"/>
        <pt x="713" y="1085" on="0"/>
        <pt x="713" y="1120" on="1"/>
        <pt x="713" y="1192" on="0"/>
        <pt x="675" y="1300" on="0"/>
        <pt x="611" y="1374" on="0"/>
        <pt x="526" y="1411" on="0"/>
        <pt x="479" y="1411" on="1"/>
        <pt x="423" y="1411" on="0"/>
        <pt x="338" y="1354" on="0"/>
        <pt x="280" y="1261" on="0"/>
        <pt x="250" y="1144" on="0"/>
        <pt x="250" y="1083" on="1"/>
        <pt x="250" y="1023" on="0"/>
        <pt x="291" y="914" on="0"/>
        <pt x="362" y="817" on="0"/>
        <pt x="456" y="733" on="0"/>
        <pt x="510" y="698" on="1"/>
        <pt x="603" y="638" on="0"/>
        <pt x="732" y="536" on="0"/>
        <pt x="812" y="439" on="0"/>
        <pt x="848" y="343" on="0"/>
        <pt x="848" y="289" on="1"/>
        <pt x="848" y="230" on="0"/>
        <pt x="809" y="118" on="0"/>
        <pt x="723" y="32" on="0"/>
        <pt x="586" y="-20" on="0"/>
        <pt x="487" y="-20" on="1"/>
        <pt x="391" y="-20" on="0"/>
        <pt x="236" y="41" on="0"/>
        <pt x="127" y="149" on="0"/>
        <pt x="68" y="298" on="0"/>
        <pt x="68" y="387" on="1"/>
        <pt x="256" y="379" on="1"/>
        <pt x="256" y="281" on="0"/>
        <pt x="303" y="165" on="0"/>
        <pt x="370" y="105" on="0"/>
        <pt x="443" y="88" on="0"/>
        <pt x="469" y="88" on="1"/>
        <pt x="499" y="88" on="0"/>
        <pt x="568" y="107" on="0"/>
        <pt x="627" y="152" on="0"/>
        <pt x="666" y="225" on="0"/>
        <pt x="666" y="279" on="1"/>
        <pt x="666" y="335" on="0"/>
        <pt x="613" y="428" on="0"/>
        <pt x="527" y="510" on="0"/>
        <pt x="417" y="586" on="0"/>
        <pt x="302" y="666" on="0"/>
        <pt x="192" y="754" on="0"/>
        <pt x="106" y="859" on="0"/>
        <pt x="53" y="987" on="0"/>
        <pt x="53" y="1067" on="1"/>
        <pt x="53" y="1118" on="0"/>
        <pt x="70" y="1226" on="0"/>
        <pt x="109" y="1329" on="0"/>
        <pt x="174" y="1420" on="0"/>
        <pt x="272" y="1488" on="0"/>
        <pt x="405" y="1528" on="0"/>
        <pt x="492" y="1528" on="1"/>
        <pt x="583" y="1526" on="0"/>
        <pt x="717" y="1482" on="0"/>
        <pt x="811" y="1415" on="0"/>
        <pt x="869" y="1333" on="0"/>
        <pt x="901" y="1250" on="0"/>
        <pt x="913" y="1176" on="0"/>
      </contour>
    </TTGlyph>
    <TTGlyph name="Sacute" xMin="53" yMin="-20" xMax="913" yMax="1933">
      <component glyphName="S" x="0" y="0" flags="0x204"/>
      <component glyphName="acute" x="434" y="446" flags="0x4"/>
    </TTGlyph>
    <TTGlyph name="Scaron" xMin="53" yMin="-20" xMax="913" yMax="1934">
      <component glyphName="S" x="0" y="0" flags="0x204"/>
      <component glyphName="caron" x="276" y="453" flags="0x4"/>
    </TTGlyph>
    <TTGlyph name="Scedilla" xMin="53" yMin="-293" xMax="913" yMax="1528">
      <contour>
        <pt x="428" y="-293" on="1"/>
        <pt x="390" y="-293" on="0"/>
        <pt x="332" y="-261" on="0"/>
        <pt x="307" y="-233" on="1"/>
        <pt x="358" y="-162" on="1"/>
        <pt x="369" y="-176" on="0"/>
        <pt x="405" y="-205" on="0"/>
        <pt x="422" y="-205" on="1"/>
        <pt x="440" y="-205" on="0"/>
        <pt x="465" y="-175" on="0"/>
        <pt x="465" y="-160" on="1"/>
        <pt x="465" y="-144" on="0"/>
        <pt x="437" y="-126" on="0"/>
        <pt x="399" y="-117" on="0"/>
        <pt x="360" y="-115" on="0"/>
        <pt x="348" y="-115" on="1"/>
        <pt x="397" y="-12" on="1"/>
        <pt x="320" y="1" on="0"/>
        <pt x="199" y="70" on="0"/>
        <pt x="113" y="174" on="0"/>
        <pt x="68" y="309" on="0"/>
        <pt x="68" y="387" on="1"/>
        <pt x="256" y="379" on="1"/>
        <pt x="256" y="281" on="0"/>
        <pt x="303" y="165" on="0"/>
        <pt x="370" y="105" on="0"/>
        <pt x="443" y="88" on="0"/>
        <pt x="469" y="88" on="1"/>
        <pt x="499" y="88" on="0"/>
        <pt x="568" y="107" on="0"/>
        <pt x="627" y="152" on="0"/>
        <pt x="666" y="225" on="0"/>
        <pt x="666" y="279" on="1"/>
        <pt x="666" y="335" on="0"/>
        <pt x="613" y="428" on="0"/>
        <pt x="527" y="510" on="0"/>
        <pt x="417" y="586" on="0"/>
        <pt x="302" y="666" on="0"/>
        <pt x="192" y="754" on="0"/>
        <pt x="106" y="859" on="0"/>
        <pt x="53" y="987" on="0"/>
        <pt x="53" y="1067" on="1"/>
        <pt x="53" y="1118" on="0"/>
        <pt x="70" y="1226" on="0"/>
        <pt x="109" y="1329" on="0"/>
        <pt x="174" y="1420" on="0"/>
        <pt x="272" y="1488" on="0"/>
        <pt x="405" y="1528" on="0"/>
        <pt x="492" y="1528" on="1"/>
        <pt x="583" y="1526" on="0"/>
        <pt x="717" y="1482" on="0"/>
        <pt x="811" y="1415" on="0"/>
        <pt x="869" y="1333" on="0"/>
        <pt x="901" y="1250" on="0"/>
        <pt x="913" y="1176" on="0"/>
        <pt x="913" y="1151" on="1"/>
        <pt x="912" y="1121" on="0"/>
        <pt x="908" y="1087" on="1"/>
        <pt x="904" y="1058" on="0"/>
        <pt x="891" y="980" on="0"/>
        <pt x="877" y="938" on="1"/>
        <pt x="692" y="963" on="1"/>
        <pt x="703" y="1006" on="0"/>
        <pt x="713" y="1085" on="0"/>
        <pt x="713" y="1120" on="1"/>
        <pt x="713" y="1192" on="0"/>
        <pt x="675" y="1300" on="0"/>
        <pt x="611" y="1374" on="0"/>
        <pt x="526" y="1411" on="0"/>
        <pt x="479" y="1411" on="1"/>
        <pt x="423" y="1411" on="0"/>
        <pt x="338" y="1354" on="0"/>
        <pt x="280" y="1261" on="0"/>
        <pt x="250" y="1144" on="0"/>
        <pt x="250" y="1083" on="1"/>
        <pt x="250" y="1023" on="0"/>
        <pt x="291" y="914" on="0"/>
        <pt x="362" y="817" on="0"/>
        <pt x="456" y="733" on="0"/>
        <pt x="510" y="698" on="1"/>
        <pt x="603" y="638" on="0"/>
        <pt x="732" y="536" on="0"/>
        <pt x="812" y="439" on="0"/>
        <pt x="848" y="343" on="0"/>
        <pt x="848" y="289" on="1"/>
        <pt x="848" y="230" on="0"/>
        <pt x="809" y="118" on="0"/>
        <pt x="723" y="32" on="0"/>
        <pt x="586" y="-20" on="0"/>
        <pt x="487" y="-20" on="1"/>
        <pt x="459" y="-20" on="1"/>
        <pt x="442" y="-66" on="1"/>
        <pt x="461" y="-66" on="0"/>
        <pt x="499" y="-81" on="0"/>
        <pt x="529" y="-108" on="0"/>
        <pt x="547" y="-147" on="0"/>
        <pt x="547" y="-172" on="1"/>
        <pt x="547" y="-205" on="0"/>
        <pt x="525" y="-251" on="0"/>
        <pt x="490" y="-280" on="0"/>
        <pt x="448" y="-293" on="0"/>
      </contour>
    </TTGlyph>
    <TTGlyph name="Scircumflex" xMin="53" yMin="-20" xMax="913" yMax="1919">
      <component glyphName="S" x="0" y="0" flags="0x204"/>
      <component glyphName="circumflex" x="268" y="438" flags="0x4"/>
    </TTGlyph>
    <TTGlyph name="T" xMin="23" yMin="10" xMax="729" yMax="1434">
      <contour>
        <pt x="729" y="1430" on="1"/>
        <pt x="715" y="1290" on="1"/>
        <pt x="401" y="1290" on="1"/>
        <pt x="401" y="10" on="1"/>
        <pt x="268" y="10" on="1"/>
        <pt x="268" y="1290" on="1"/>
        <pt x="23" y="1290" on="1"/>
        <pt x="23" y="1434" on="1"/>
      </contour>
    </TTGlyph>
    <TTGlyph name="Tbar" xMin="23" yMin="10" xMax="729" yMax="1434">
      <contour>
        <pt x="401" y="659" on="1"/>
        <pt x="401" y="10" on="1"/>
        <pt x="268" y="10" on="1"/>
        <pt x="268" y="659" on="1"/>
        <pt x="43" y="659" on="1"/>
        <pt x="43" y="774" on="1"/>
        <pt x="268" y="774" on="1"/>
        <pt x="268" y="1290" on="1"/>
        <pt x="23" y="1290" on="1"/>
        <pt x="23" y="1434" on="1"/>
        <pt x="729" y="1430" on="1"/>
        <pt x="715" y="1290" on="1"/>
        <pt x="401" y="1290" on="1"/>
        <pt x="401" y="774" on="1"/>
        <pt x="625" y="774" on="1"/>
        <pt x="625" y="659" on="1"/>
      </contour>
    </TTGlyph>
    <TTGlyph name="Tcaron" xMin="23" yMin="10" xMax="729" yMax="1846">
      <component glyphName="T" x="0" y="0" flags="0x204"/>
      <component glyphName="caron" x="135" y="365" flags="0x4"/>
    </TTGlyph>
    <TTGlyph name="Tcommaaccent" xMin="23" yMin="-327" xMax="729" yMax="1434">
      <component glyphName="T" x="0" y="0" flags="0x204"/>
      <component glyphName="uni0326" x="174" y="72" flags="0x4"/>
    </TTGlyph>
    <TTGlyph name="Thorn" xMin="100" yMin="-4" xMax="936" yMax="1487">
      <contour>
        <pt x="315" y="242" on="1"/>
        <pt x="300" y="242" on="0"/>
        <pt x="272" y="242" on="0"/>
        <pt x="258" y="244" on="1"/>
        <pt x="255" y="185" on="0"/>
        <pt x="252" y="64" on="0"/>
        <pt x="250" y="-4" on="1"/>
        <pt x="100" y="-4" on="1"/>
        <pt x="103" y="177" on="0"/>
        <pt x="107" y="368" on="1"/>
        <pt x="108" y="449" on="0"/>
        <pt x="111" y="633" on="0"/>
        <pt x="114" y="826" on="0"/>
        <pt x="115" y="1022" on="0"/>
        <pt x="115" y="1116" on="1"/>
        <pt x="115" y="1219" on="0"/>
        <pt x="113" y="1408" on="0"/>
        <pt x="111" y="1487" on="1"/>
        <pt x="340" y="1481" on="1"/>
        <pt x="340" y="1251" on="1"/>
        <pt x="360" y="1256" on="0"/>
        <pt x="421" y="1262" on="0"/>
        <pt x="467" y="1262" on="1"/>
        <pt x="554" y="1262" on="0"/>
        <pt x="723" y="1213" on="0"/>
        <pt x="855" y="1103" on="0"/>
        <pt x="936" y="925" on="0"/>
        <pt x="936" y="797" on="1"/>
        <pt x="936" y="710" on="0"/>
        <pt x="883" y="561" on="0"/>
        <pt x="792" y="438" on="0"/>
        <pt x="671" y="342" on="0"/>
        <pt x="533" y="276" on="0"/>
        <pt x="386" y="242" on="0"/>
      </contour>
      <contour>
        <pt x="317" y="1120" on="1"/>
        <pt x="308" y="1007" on="0"/>
        <pt x="292" y="811" on="0"/>
        <pt x="278" y="629" on="0"/>
        <pt x="266" y="452" on="0"/>
        <pt x="262" y="358" on="1"/>
        <pt x="272" y="358" on="1"/>
        <pt x="382" y="358" on="0"/>
        <pt x="535" y="418" on="0"/>
        <pt x="636" y="508" on="0"/>
        <pt x="692" y="614" on="0"/>
        <pt x="719" y="705" on="0"/>
        <pt x="725" y="768" on="0"/>
        <pt x="725" y="770" on="1"/>
        <pt x="725" y="781" on="0"/>
        <pt x="721" y="843" on="0"/>
        <pt x="703" y="924" on="0"/>
        <pt x="666" y="1012" on="0"/>
        <pt x="600" y="1085" on="0"/>
        <pt x="500" y="1133" on="0"/>
        <pt x="428" y="1133" on="1"/>
        <pt x="403" y="1133" on="0"/>
        <pt x="348" y="1126" on="0"/>
      </contour>
    </TTGlyph>
    <TTGlyph name="U" xMin="76" yMin="-12" xMax="891" yMax="1462">
      <contour>
        <pt x="883" y="643" on="1"/>
        <pt x="870" y="474" on="0"/>
        <pt x="808" y="227" on="0"/>
        <pt x="701" y="66" on="0"/>
        <pt x="546" y="-12" on="0"/>
        <pt x="440" y="-12" on="1"/>
        <pt x="332" y="-12" on="0"/>
        <pt x="191" y="82" on="0"/>
        <pt x="109" y="259" on="0"/>
        <pt x="76" y="515" on="0"/>
        <pt x="76" y="678" on="1"/>
        <pt x="79" y="801" on="0"/>
        <pt x="91" y="933" on="1"/>
        <pt x="96" y="989" on="0"/>
        <pt x="111" y="1116" on="0"/>
        <pt x="132" y="1249" on="0"/>
        <pt x="160" y="1386" on="0"/>
        <pt x="178" y="1452" on="1"/>
        <pt x="383" y="1421" on="1"/>
        <pt x="346" y="1238" on="0"/>
        <pt x="306" y="953" on="0"/>
        <pt x="288" y="738" on="0"/>
        <pt x="285" y="587" on="0"/>
        <pt x="285" y="537" on="1"/>
        <pt x="285" y="415" on="0"/>
        <pt x="303" y="252" on="0"/>
        <pt x="344" y="153" on="0"/>
        <pt x="408" y="111" on="0"/>
        <pt x="453" y="111" on="1"/>
        <pt x="499" y="111" on="0"/>
        <pt x="582" y="166" on="0"/>
        <pt x="645" y="284" on="0"/>
        <pt x="682" y="472" on="0"/>
        <pt x="682" y="606" on="1"/>
        <pt x="682" y="693" on="0"/>
        <pt x="684" y="896" on="0"/>
        <pt x="680" y="1111" on="0"/>
        <pt x="666" y="1331" on="0"/>
        <pt x="649" y="1436" on="1"/>
        <pt x="866" y="1462" on="1"/>
        <pt x="880" y="1298" on="0"/>
        <pt x="891" y="1024" on="0"/>
        <pt x="891" y="918" on="1"/>
        <pt x="891" y="852" on="0"/>
        <pt x="889" y="751" on="0"/>
        <pt x="887" y="716" on="1"/>
        <pt x="885" y="675" on="0"/>
      </contour>
    </TTGlyph>
    <TTGlyph name="Uacute" xMin="76" yMin="-12" xMax="891" yMax="1833">
      <component glyphName="U" x="0" y="0" flags="0x204"/>
      <component glyphName="acute" x="498" y="346" flags="0x4"/>
    </TTGlyph>
    <TTGlyph name="Ubreve" xMin="76" yMin="-12" xMax="891" yMax="1737">
      <component glyphName="U" x="0" y="0" flags="0x204"/>
      <component glyphName="breve" x="311" y="332" flags="0x4"/>
    </TTGlyph>
    <TTGlyph name="Ucircumflex" xMin="76" yMin="-12" xMax="891" yMax="1843">
      <component glyphName="U" x="0" y="0" flags="0x204"/>
      <component glyphName="circumflex" x="297" y="362" flags="0x4"/>
    </TTGlyph>
    <TTGlyph name="Udieresis" xMin="76" yMin="-12" xMax="891" yMax="1712">
      <component glyphName="U" x="0" y="0" flags="0x204"/>
      <component glyphName="dieresis" x="264" y="356" flags="0x4"/>
    </TTGlyph>
    <TTGlyph name="Ugrave" xMin="76" yMin="-12" xMax="891" yMax="1835">
      <component glyphName="U" x="0" y="0" flags="0x204"/>
      <component glyphName="grave" x="160" y="365" flags="0x4"/>
    </TTGlyph>
    <TTGlyph name="Uhungarumlaut" xMin="76" yMin="-12" xMax="925" yMax="1905">
      <component glyphName="U" x="0" y="0" flags="0x204"/>
      <component glyphName="hungarumlaut" x="356" y="365" flags="0x4"/>
    </TTGlyph>
    <TTGlyph name="Umacron" xMin="76" yMin="-12" xMax="891" yMax="1659">
      <component glyphName="U" x="0" y="0" flags="0x204"/>
      <component glyphName="macron" x="297" y="354" flags="0x4"/>
    </TTGlyph>
    <TTGlyph name="Uogonek" xMin="76" yMin="-240" xMax="891" yMax="1462">
      <contour>
        <pt x="561" y="-190" on="1"/>
        <pt x="530" y="-212" on="0"/>
        <pt x="465" y="-240" on="0"/>
        <pt x="430" y="-240" on="1"/>
        <pt x="406" y="-240" on="0"/>
        <pt x="362" y="-227" on="0"/>
        <pt x="328" y="-202" on="0"/>
        <pt x="307" y="-165" on="0"/>
        <pt x="307" y="-141" on="1"/>
        <pt x="307" y="-106" on="0"/>
        <pt x="347" y="-37" on="0"/>
        <pt x="373" y="-6" on="1"/>
        <pt x="285" y="8" on="0"/>
        <pt x="170" y="113" on="0"/>
        <pt x="103" y="288" on="0"/>
        <pt x="76" y="528" on="0"/>
        <pt x="76" y="678" on="1"/>
        <pt x="79" y="801" on="0"/>
        <pt x="91" y="933" on="1"/>
        <pt x="96" y="989" on="0"/>
        <pt x="111" y="1116" on="0"/>
        <pt x="132" y="1249" on="0"/>
        <pt x="160" y="1386" on="0"/>
        <pt x="178" y="1452" on="1"/>
        <pt x="383" y="1421" on="1"/>
        <pt x="346" y="1238" on="0"/>
        <pt x="306" y="953" on="0"/>
        <pt x="288" y="738" on="0"/>
        <pt x="285" y="587" on="0"/>
        <pt x="285" y="537" on="1"/>
        <pt x="285" y="415" on="0"/>
        <pt x="303" y="252" on="0"/>
        <pt x="344" y="153" on="0"/>
        <pt x="408" y="111" on="0"/>
        <pt x="453" y="111" on="1"/>
        <pt x="499" y="111" on="0"/>
        <pt x="582" y="166" on="0"/>
        <pt x="645" y="284" on="0"/>
        <pt x="682" y="472" on="0"/>
        <pt x="682" y="606" on="1"/>
        <pt x="682" y="693" on="0"/>
        <pt x="684" y="896" on="0"/>
        <pt x="680" y="1111" on="0"/>
        <pt x="666" y="1331" on="0"/>
        <pt x="649" y="1436" on="1"/>
        <pt x="866" y="1462" on="1"/>
        <pt x="880" y="1298" on="0"/>
        <pt x="891" y="1024" on="0"/>
        <pt x="891" y="918" on="1"/>
        <pt x="891" y="852" on="0"/>
        <pt x="889" y="751" on="0"/>
        <pt x="887" y="716" on="1"/>
        <pt x="885" y="675" on="0"/>
        <pt x="883" y="643" on="1"/>
        <pt x="870" y="474" on="0"/>
        <pt x="808" y="228" on="0"/>
        <pt x="702" y="67" on="0"/>
        <pt x="547" y="-11" on="0"/>
        <pt x="442" y="-12" on="1"/>
        <pt x="425" y="-35" on="0"/>
        <pt x="399" y="-86" on="0"/>
        <pt x="399" y="-109" on="1"/>
        <pt x="399" y="-124" on="0"/>
        <pt x="419" y="-147" on="0"/>
        <pt x="434" y="-147" on="1"/>
        <pt x="453" y="-147" on="0"/>
        <pt x="488" y="-127" on="0"/>
        <pt x="502" y="-115" on="1"/>
      </contour>
    </TTGlyph>
    <TTGlyph name="Uring" xMin="76" yMin="-12" xMax="891" yMax="1839">
      <component glyphName="U" x="0" y="0" flags="0x204"/>
      <component glyphName="ring" x="342" y="375" flags="0x4"/>
    </TTGlyph>
    <TTGlyph name="Utilde" xMin="76" yMin="-12" xMax="891" yMax="1777">
      <component glyphName="U" x="0" y="0" flags="0x204"/>
      <component glyphName="tilde" x="272" y="350" flags="0x4"/>
    </TTGlyph>
    <TTGlyph name="V" xMin="14" yMin="6" xMax="895" yMax="1430">
      <contour>
        <pt x="895" y="1430" on="1"/>
        <pt x="802" y="1074" on="0"/>
        <pt x="643" y="366" on="0"/>
        <pt x="571" y="6" on="1"/>
        <pt x="313" y="8" on="1"/>
        <pt x="277" y="187" on="0"/>
        <pt x="207" y="543" on="0"/>
        <pt x="135" y="899" on="0"/>
        <pt x="58" y="1253" on="0"/>
        <pt x="14" y="1430" on="1"/>
        <pt x="201" y="1425" on="1"/>
        <pt x="255" y="1115" on="0"/>
        <pt x="377" y="500" on="0"/>
        <pt x="449" y="186" on="1"/>
        <pt x="515" y="498" on="0"/>
        <pt x="635" y="1115" on="0"/>
        <pt x="694" y="1430" on="1"/>
      </contour>
    </TTGlyph>
    <TTGlyph name="W" xMin="41" yMin="10" xMax="1108" yMax="1462">
      <contour>
        <pt x="1108" y="1462" on="1"/>
        <pt x="946" y="10" on="1"/>
        <pt x="729" y="10" on="1"/>
        <pt x="573" y="1100" on="1"/>
        <pt x="451" y="14" on="1"/>
        <pt x="211" y="14" on="1"/>
        <pt x="41" y="1438" on="1"/>
        <pt x="244" y="1438" on="1"/>
        <pt x="334" y="184" on="1"/>
        <pt x="475" y="1360" on="1"/>
        <pt x="666" y="1360" on="1"/>
        <pt x="831" y="219" on="1"/>
        <pt x="901" y="1462" on="1"/>
      </contour>
    </TTGlyph>
    <TTGlyph name="Wacute" xMin="41" yMin="10" xMax="1108" yMax="1809">
      <component glyphName="W" x="0" y="0" flags="0x204"/>
      <component glyphName="acute" x="543" y="322" flags="0x4"/>
    </TTGlyph>
    <TTGlyph name="Wcircumflex" xMin="41" yMin="10" xMax="1108" yMax="1792">
      <component glyphName="W" x="0" y="0" flags="0x204"/>
      <component glyphName="circumflex" x="371" y="311" flags="0x4"/>
    </TTGlyph>
    <TTGlyph name="Wdieresis" xMin="41" yMin="10" xMax="1108" yMax="1653">
      <component glyphName="W" x="0" y="0" flags="0x204"/>
      <component glyphName="dieresis" x="324" y="297" flags="0x4"/>
    </TTGlyph>
    <TTGlyph name="Wgrave" xMin="41" yMin="10" xMax="1108" yMax="1759">
      <component glyphName="W" x="0" y="0" flags="0x204"/>
      <component glyphName="grave" x="238" y="289" flags="0x4"/>
    </TTGlyph>
    <TTGlyph name="X" xMin="0" yMin="-16" xMax="897" yMax="1446">
      <contour>
        <pt x="645" y="-16" on="1"/>
        <pt x="588" y="120" on="0"/>
        <pt x="475" y="388" on="0"/>
        <pt x="416" y="524" on="1"/>
        <pt x="347" y="390" on="0"/>
        <pt x="212" y="126" on="0"/>
        <pt x="147" y="-8" on="1"/>
        <pt x="0" y="4" on="1"/>
        <pt x="84" y="184" on="0"/>
        <pt x="250" y="537" on="0"/>
        <pt x="332" y="717" on="1"/>
        <pt x="253" y="894" on="0"/>
        <pt x="96" y="1244" on="0"/>
        <pt x="18" y="1421" on="1"/>
        <pt x="252" y="1430" on="1"/>
        <pt x="297" y="1308" on="0"/>
        <pt x="388" y="1066" on="0"/>
        <pt x="434" y="944" on="1"/>
        <pt x="491" y="1069" on="0"/>
        <pt x="599" y="1319" on="0"/>
        <pt x="653" y="1446" on="1"/>
        <pt x="897" y="1434" on="1"/>
        <pt x="803" y="1256" on="0"/>
        <pt x="614" y="905" on="0"/>
        <pt x="520" y="725" on="1"/>
        <pt x="592" y="542" on="0"/>
        <pt x="739" y="181" on="0"/>
        <pt x="813" y="0" on="1"/>
      </contour>
    </TTGlyph>
    <TTGlyph name="Y" xMin="0" yMin="-4" xMax="893" yMax="1442">
      <contour>
        <pt x="893" y="1442" on="1"/>
        <pt x="812" y="1205" on="0"/>
        <pt x="638" y="747" on="0"/>
        <pt x="539" y="518" on="1"/>
        <pt x="508" y="-4" on="1"/>
        <pt x="365" y="-4" on="1"/>
        <pt x="350" y="508" on="1"/>
        <pt x="250" y="732" on="0"/>
        <pt x="77" y="1187" on="0"/>
        <pt x="0" y="1425" on="1"/>
        <pt x="231" y="1438" on="1"/>
        <pt x="278" y="1232" on="0"/>
        <pt x="379" y="829" on="0"/>
        <pt x="438" y="627" on="1"/>
        <pt x="504" y="831" on="0"/>
        <pt x="618" y="1234" on="0"/>
        <pt x="666" y="1442" on="1"/>
      </contour>
    </TTGlyph>
    <TTGlyph name="Yacute" xMin="0" yMin="-4" xMax="893" yMax="1788">
      <component glyphName="Y" x="0" y="0" flags="0x204"/>
      <component glyphName="acute" x="414" y="301" flags="0x4"/>
    </TTGlyph>
    <TTGlyph name="Ycircumflex" xMin="0" yMin="-4" xMax="893" yMax="1870">
      <component glyphName="Y" x="0" y="0" flags="0x204"/>
      <component glyphName="circumflex" x="236" y="389" flags="0x4"/>
    </TTGlyph>
    <TTGlyph name="Ydieresis" xMin="0" yMin="-4" xMax="893" yMax="1733">
      <component glyphName="Y" x="0" y="0" flags="0x204"/>
      <component glyphName="dieresis" x="195" y="377" flags="0x4"/>
    </TTGlyph>
    <TTGlyph name="Ygrave" xMin="0" yMin="-4" xMax="893" yMax="1820">
      <component glyphName="Y" x="0" y="0" flags="0x204"/>
      <component glyphName="grave" x="121" y="350" flags="0x4"/>
    </TTGlyph>
    <TTGlyph name="Z" xMin="20" yMin="0" xMax="838" yMax="1446">
      <contour>
        <pt x="838" y="1446" on="1"/>
        <pt x="834" y="1290" on="1"/>
        <pt x="674" y="1012" on="0"/>
        <pt x="394" y="447" on="0"/>
        <pt x="256" y="160" on="1"/>
        <pt x="322" y="157" on="0"/>
        <pt x="448" y="153" on="0"/>
        <pt x="574" y="151" on="0"/>
        <pt x="701" y="150" on="0"/>
        <pt x="768" y="150" on="1"/>
        <pt x="770" y="0" on="1"/>
        <pt x="37" y="0" on="1"/>
        <pt x="20" y="127" on="1"/>
        <pt x="99" y="271" on="0"/>
        <pt x="260" y="559" on="0"/>
        <pt x="417" y="848" on="0"/>
        <pt x="570" y="1139" on="0"/>
        <pt x="641" y="1286" on="1"/>
        <pt x="499" y="1284" on="0"/>
        <pt x="215" y="1275" on="0"/>
        <pt x="70" y="1264" on="1"/>
        <pt x="66" y="1446" on="1"/>
      </contour>
    </TTGlyph>
    <TTGlyph name="Zacute" xMin="20" yMin="0" xMax="838" yMax="1876">
      <component glyphName="Z" x="0" y="0" flags="0x204"/>
      <component glyphName="acute" x="377" y="389" flags="0x4"/>
    </TTGlyph>
    <TTGlyph name="Zcaron" xMin="20" yMin="0" xMax="838" yMax="1872">
      <component glyphName="Z" x="0" y="0" flags="0x204"/>
      <component glyphName="caron" x="244" y="391" flags="0x4"/>
    </TTGlyph>
    <TTGlyph name="Zdotaccent" xMin="20" yMin="0" xMax="838" yMax="1728">
      <component glyphName="Z" x="0" y="0" flags="0x204"/>
      <component glyphName="dotaccent" x="328" y="354" flags="0x4"/>
    </TTGlyph>
    <TTGlyph name="a" xMin="35" yMin="-27" xMax="885" yMax="1114">
      <contour>
        <pt x="885" y="561" on="1"/>
        <pt x="883" y="460" on="0"/>
        <pt x="879" y="360" on="1"/>
        <pt x="877" y="317" on="0"/>
        <pt x="873" y="223" on="0"/>
        <pt x="868" y="128" on="0"/>
        <pt x="861" y="36" on="0"/>
        <pt x="858" y="-4" on="1"/>
        <pt x="721" y="0" on="1"/>
        <pt x="723" y="29" on="0"/>
        <pt x="725" y="85" on="0"/>
        <pt x="725" y="113" on="1"/>
        <pt x="680" y="65" on="0"/>
        <pt x="580" y="11" on="0"/>
        <pt x="535" y="-3" on="1"/>
        <pt x="483" y="-20" on="0"/>
        <pt x="432" y="-25" on="1"/>
        <pt x="421" y="-27" on="0"/>
        <pt x="402" y="-27" on="0"/>
        <pt x="391" y="-27" on="1"/>
        <pt x="321" y="-27" on="0"/>
        <pt x="193" y="12" on="0"/>
        <pt x="94" y="92" on="0"/>
        <pt x="35" y="213" on="0"/>
        <pt x="35" y="295" on="1"/>
        <pt x="35" y="367" on="0"/>
        <pt x="92" y="494" on="0"/>
        <pt x="195" y="589" on="0"/>
        <pt x="341" y="645" on="0"/>
        <pt x="430" y="647" on="1"/>
        <pt x="433" y="647" on="0"/>
        <pt x="495" y="643" on="0"/>
        <pt x="584" y="622" on="0"/>
        <pt x="687" y="577" on="0"/>
        <pt x="731" y="537" on="1"/>
        <pt x="731" y="582" on="0"/>
        <pt x="727" y="682" on="0"/>
        <pt x="712" y="779" on="0"/>
        <pt x="680" y="867" on="0"/>
        <pt x="625" y="934" on="0"/>
        <pt x="541" y="973" on="0"/>
        <pt x="481" y="973" on="1"/>
        <pt x="434" y="973" on="0"/>
        <pt x="356" y="937" on="0"/>
        <pt x="296" y="875" on="0"/>
        <pt x="256" y="790" on="0"/>
        <pt x="246" y="741" on="1"/>
        <pt x="78" y="795" on="1"/>
        <pt x="90" y="852" on="0"/>
        <pt x="135" y="940" on="0"/>
        <pt x="192" y="1006" on="0"/>
        <pt x="257" y="1053" on="0"/>
        <pt x="289" y="1069" on="1"/>
        <pt x="364" y="1106" on="0"/>
        <pt x="451" y="1114" on="1"/>
        <pt x="571" y="1114" on="0"/>
        <pt x="737" y="1042" on="0"/>
        <pt x="840" y="902" on="0"/>
        <pt x="885" y="696" on="0"/>
      </contour>
      <contour>
        <pt x="729" y="283" on="1"/>
        <pt x="729" y="303" on="0"/>
        <pt x="731" y="342" on="0"/>
        <pt x="731" y="360" on="1"/>
        <pt x="678" y="414" on="0"/>
        <pt x="575" y="470" on="0"/>
        <pt x="533" y="484" on="1"/>
        <pt x="485" y="500" on="0"/>
        <pt x="440" y="502" on="1"/>
        <pt x="378" y="502" on="0"/>
        <pt x="289" y="467" on="0"/>
        <pt x="232" y="409" on="0"/>
        <pt x="205" y="335" on="0"/>
        <pt x="205" y="295" on="1"/>
        <pt x="205" y="254" on="0"/>
        <pt x="235" y="188" on="0"/>
        <pt x="290" y="142" on="0"/>
        <pt x="369" y="117" on="0"/>
        <pt x="418" y="117" on="1"/>
        <pt x="466" y="121" on="0"/>
        <pt x="518" y="139" on="1"/>
        <pt x="563" y="155" on="0"/>
        <pt x="672" y="222" on="0"/>
      </contour>
    </TTGlyph>
    <TTGlyph name="aacute" xMin="35" yMin="-27" xMax="885" yMax="1530">
      <component glyphName="a" x="0" y="0" flags="0x204"/>
      <component glyphName="acute" x="451" y="43" flags="0x4"/>
    </TTGlyph>
    <TTGlyph name="abreve" xMin="35" yMin="-27" xMax="885" yMax="1405">
      <component glyphName="a" x="0" y="0" flags="0x204"/>
      <component glyphName="breve" x="227" y="0" flags="0x4"/>
    </TTGlyph>
    <TTGlyph name="acircumflex" xMin="35" yMin="-27" xMax="885" yMax="1518">
      <component glyphName="a" x="0" y="0" flags="0x204"/>
      <component glyphName="circumflex" x="254" y="37" flags="0x4"/>
    </TTGlyph>
    <TTGlyph name="acute" xMin="0" yMin="1128" xMax="365" yMax="1487">
      <contour>
        <pt x="57" y="1128" on="1"/>
        <pt x="0" y="1202" on="1"/>
        <pt x="258" y="1487" on="1"/>
        <pt x="365" y="1356" on="1"/>
      </contour>
    </TTGlyph>
    <TTGlyph name="adieresis" xMin="35" yMin="-27" xMax="885" yMax="1381">
      <component glyphName="a" x="0" y="0" flags="0x204"/>
      <component glyphName="dieresis" x="207" y="25" flags="0x4"/>
    </TTGlyph>
    <TTGlyph name="ae" xMin="35" yMin="-27" xMax="1616" yMax="1128">
      <contour>
        <pt x="889" y="588" on="1"/>
        <pt x="887" y="577" on="0"/>
        <pt x="889" y="556" on="0"/>
        <pt x="889" y="545" on="1"/>
        <pt x="889" y="445" on="0"/>
        <pt x="929" y="308" on="0"/>
        <pt x="990" y="218" on="0"/>
        <pt x="1063" y="170" on="0"/>
        <pt x="1127" y="147" on="0"/>
        <pt x="1173" y="143" on="0"/>
        <pt x="1178" y="143" on="1"/>
        <pt x="1177" y="143" on="0"/>
        <pt x="1207" y="146" on="0"/>
        <pt x="1256" y="159" on="0"/>
        <pt x="1318" y="187" on="0"/>
        <pt x="1379" y="238" on="0"/>
        <pt x="1433" y="315" on="0"/>
        <pt x="1450" y="371" on="1"/>
        <pt x="1573" y="336" on="1"/>
        <pt x="1558" y="274" on="0"/>
        <pt x="1508" y="178" on="0"/>
        <pt x="1447" y="106" on="0"/>
        <pt x="1378" y="55" on="0"/>
        <pt x="1345" y="39" on="1"/>
        <pt x="1267" y="-1" on="0"/>
        <pt x="1178" y="-8" on="1"/>
        <pt x="1107" y="-8" on="0"/>
        <pt x="992" y="27" on="0"/>
        <pt x="902" y="87" on="0"/>
        <pt x="835" y="169" on="0"/>
        <pt x="811" y="217" on="1"/>
        <pt x="773" y="163" on="0"/>
        <pt x="678" y="73" on="0"/>
        <pt x="570" y="8" on="0"/>
        <pt x="452" y="-27" on="0"/>
        <pt x="391" y="-27" on="1"/>
        <pt x="321" y="-27" on="0"/>
        <pt x="193" y="12" on="0"/>
        <pt x="94" y="92" on="0"/>
        <pt x="35" y="213" on="0"/>
        <pt x="35" y="295" on="1"/>
        <pt x="35" y="367" on="0"/>
        <pt x="92" y="494" on="0"/>
        <pt x="195" y="589" on="0"/>
        <pt x="341" y="645" on="0"/>
        <pt x="430" y="647" on="1"/>
        <pt x="433" y="647" on="0"/>
        <pt x="495" y="643" on="0"/>
        <pt x="584" y="622" on="0"/>
        <pt x="687" y="577" on="0"/>
        <pt x="731" y="537" on="1"/>
        <pt x="730" y="566" on="0"/>
        <pt x="729" y="605" on="0"/>
        <pt x="729" y="616" on="1"/>
        <pt x="729" y="635" on="1"/>
        <pt x="730" y="735" on="0"/>
        <pt x="685" y="865" on="0"/>
        <pt x="614" y="942" on="0"/>
        <pt x="525" y="973" on="0"/>
        <pt x="481" y="973" on="1"/>
        <pt x="431" y="973" on="0"/>
        <pt x="351" y="933" on="0"/>
        <pt x="291" y="868" on="0"/>
        <pt x="253" y="785" on="0"/>
        <pt x="246" y="741" on="1"/>
        <pt x="78" y="795" on="1"/>
        <pt x="99" y="868" on="0"/>
        <pt x="177" y="987" on="0"/>
        <pt x="281" y="1069" on="0"/>
        <pt x="406" y="1114" on="0"/>
        <pt x="475" y="1114" on="1"/>
        <pt x="603" y="1114" on="0"/>
        <pt x="767" y="1018" on="0"/>
        <pt x="815" y="928" on="1"/>
        <pt x="839" y="970" on="0"/>
        <pt x="905" y="1043" on="0"/>
        <pt x="995" y="1097" on="0"/>
        <pt x="1111" y="1128" on="0"/>
        <pt x="1184" y="1128" on="1"/>
        <pt x="1201" y="1128" on="0"/>
        <pt x="1278" y="1121" on="0"/>
        <pt x="1374" y="1088" on="0"/>
        <pt x="1476" y="1021" on="0"/>
        <pt x="1561" y="901" on="0"/>
        <pt x="1616" y="719" on="0"/>
        <pt x="1616" y="588" on="1"/>
      </contour>
      <contour>
        <pt x="725" y="276" on="1"/>
        <pt x="727" y="305" on="0"/>
        <pt x="729" y="345" on="0"/>
        <pt x="729" y="360" on="1"/>
        <pt x="677" y="414" on="0"/>
        <pt x="575" y="470" on="0"/>
        <pt x="533" y="484" on="1"/>
        <pt x="485" y="500" on="0"/>
        <pt x="440" y="502" on="1"/>
        <pt x="378" y="502" on="0"/>
        <pt x="289" y="467" on="0"/>
        <pt x="232" y="409" on="0"/>
        <pt x="205" y="335" on="0"/>
        <pt x="205" y="295" on="1"/>
        <pt x="205" y="254" on="0"/>
        <pt x="235" y="188" on="0"/>
        <pt x="290" y="142" on="0"/>
        <pt x="369" y="117" on="0"/>
        <pt x="418" y="117" on="1"/>
        <pt x="464" y="120" on="0"/>
        <pt x="515" y="138" on="1"/>
        <pt x="559" y="153" on="0"/>
        <pt x="668" y="217" on="0"/>
      </contour>
      <contour>
        <pt x="1178" y="975" on="1"/>
        <pt x="1109" y="970" on="0"/>
        <pt x="1051" y="942" on="1"/>
        <pt x="1026" y="930" on="0"/>
        <pt x="977" y="893" on="0"/>
        <pt x="935" y="840" on="0"/>
        <pt x="903" y="768" on="0"/>
        <pt x="897" y="721" on="1"/>
        <pt x="1446" y="721" on="1"/>
        <pt x="1440" y="780" on="0"/>
        <pt x="1388" y="874" on="0"/>
        <pt x="1313" y="940" on="0"/>
        <pt x="1222" y="975" on="0"/>
      </contour>
    </TTGlyph>
    <TTGlyph name="aeacute" xMin="35" yMin="-27" xMax="1616" yMax="1487">
      <component glyphName="ae" x="0" y="0" flags="0x204"/>
      <component glyphName="acute" x="788" y="0" flags="0x4"/>
    </TTGlyph>
    <TTGlyph name="agrave" xMin="35" yMin="-27" xMax="885" yMax="1499">
      <component glyphName="a" x="0" y="0" flags="0x204"/>
      <component glyphName="grave" x="123" y="29" flags="0x4"/>
    </TTGlyph>
    <TTGlyph name="amacron" xMin="35" yMin="-27" xMax="885" yMax="1305">
      <component glyphName="a" x="0" y="0" flags="0x204"/>
      <component glyphName="macron" x="276" y="0" flags="0x4"/>
    </TTGlyph>
    <TTGlyph name="ampersand" xMin="29" yMin="-35" xMax="979" yMax="1466">
      <contour>
        <pt x="979" y="106" on="1"/>
        <pt x="979" y="104" on="1"/>
        <pt x="979" y="99" on="0"/>
        <pt x="937" y="64" on="0"/>
        <pt x="911" y="45" on="1"/>
        <pt x="881" y="22" on="0"/>
        <pt x="844" y="-4" on="1"/>
        <pt x="671" y="127" on="0"/>
        <pt x="535" y="302" on="1"/>
        <pt x="477" y="377" on="0"/>
        <pt x="367" y="560" on="0"/>
        <pt x="280" y="777" on="0"/>
        <pt x="227" y="1025" on="0"/>
        <pt x="227" y="1165" on="1"/>
        <pt x="227" y="1207" on="0"/>
        <pt x="244" y="1311" on="0"/>
        <pt x="295" y="1403" on="0"/>
        <pt x="386" y="1466" on="0"/>
        <pt x="461" y="1466" on="1"/>
        <pt x="521" y="1466" on="0"/>
        <pt x="607" y="1432" on="0"/>
        <pt x="662" y="1372" on="0"/>
        <pt x="688" y="1291" on="0"/>
        <pt x="688" y="1243" on="1"/>
        <pt x="688" y="1167" on="0"/>
        <pt x="646" y="1045" on="0"/>
        <pt x="577" y="941" on="0"/>
        <pt x="489" y="850" on="0"/>
        <pt x="396" y="760" on="0"/>
        <pt x="308" y="666" on="0"/>
        <pt x="239" y="555" on="0"/>
        <pt x="197" y="423" on="0"/>
        <pt x="197" y="340" on="1"/>
        <pt x="197" y="291" on="0"/>
        <pt x="231" y="208" on="0"/>
        <pt x="289" y="148" on="0"/>
        <pt x="369" y="115" on="0"/>
        <pt x="414" y="115" on="1"/>
        <pt x="460" y="115" on="0"/>
        <pt x="557" y="191" on="0"/>
        <pt x="637" y="342" on="0"/>
        <pt x="688" y="568" on="0"/>
        <pt x="688" y="719" on="1"/>
        <pt x="866" y="725" on="1"/>
        <pt x="855" y="512" on="0"/>
        <pt x="800" y="345" on="1"/>
        <pt x="776" y="274" on="0"/>
        <pt x="704" y="137" on="0"/>
        <pt x="600" y="30" on="0"/>
        <pt x="460" y="-35" on="0"/>
        <pt x="369" y="-35" on="1"/>
        <pt x="281" y="-35" on="0"/>
        <pt x="153" y="31" on="0"/>
        <pt x="69" y="133" on="0"/>
        <pt x="29" y="257" on="0"/>
        <pt x="29" y="315" on="1"/>
        <pt x="29" y="389" on="0"/>
        <pt x="73" y="518" on="0"/>
        <pt x="145" y="634" on="0"/>
        <pt x="236" y="740" on="0"/>
        <pt x="332" y="841" on="0"/>
        <pt x="423" y="942" on="0"/>
        <pt x="495" y="1047" on="0"/>
        <pt x="539" y="1160" on="0"/>
        <pt x="539" y="1223" on="1"/>
        <pt x="539" y="1278" on="0"/>
        <pt x="491" y="1327" on="0"/>
        <pt x="459" y="1327" on="1"/>
        <pt x="439" y="1327" on="0"/>
        <pt x="403" y="1304" on="0"/>
        <pt x="375" y="1260" on="0"/>
        <pt x="358" y="1199" on="0"/>
        <pt x="358" y="1161" on="1"/>
        <pt x="358" y="1129" on="0"/>
        <pt x="372" y="998" on="0"/>
        <pt x="415" y="824" on="0"/>
        <pt x="498" y="617" on="0"/>
        <pt x="636" y="404" on="0"/>
        <pt x="838" y="196" on="0"/>
      </contour>
    </TTGlyph>
    <TTGlyph name="aogonek" xMin="35" yMin="-246" xMax="924" yMax="1114">
      <contour>
        <pt x="924" y="-197" on="1"/>
        <pt x="893" y="-218" on="0"/>
        <pt x="828" y="-246" on="0"/>
        <pt x="793" y="-246" on="1"/>
        <pt x="769" y="-246" on="0"/>
        <pt x="725" y="-233" on="0"/>
        <pt x="690" y="-208" on="0"/>
        <pt x="670" y="-171" on="0"/>
        <pt x="670" y="-147" on="1"/>
        <pt x="670" y="-109" on="0"/>
        <pt x="716" y="-32" on="0"/>
        <pt x="745" y="0" on="1"/>
        <pt x="721" y="0" on="1"/>
        <pt x="723" y="29" on="0"/>
        <pt x="725" y="85" on="0"/>
        <pt x="725" y="113" on="1"/>
        <pt x="680" y="65" on="0"/>
        <pt x="580" y="11" on="0"/>
        <pt x="535" y="-3" on="1"/>
        <pt x="483" y="-20" on="0"/>
        <pt x="432" y="-25" on="1"/>
        <pt x="421" y="-27" on="0"/>
        <pt x="402" y="-27" on="0"/>
        <pt x="391" y="-27" on="1"/>
        <pt x="321" y="-27" on="0"/>
        <pt x="193" y="12" on="0"/>
        <pt x="94" y="92" on="0"/>
        <pt x="35" y="213" on="0"/>
        <pt x="35" y="295" on="1"/>
        <pt x="35" y="367" on="0"/>
        <pt x="92" y="494" on="0"/>
        <pt x="195" y="589" on="0"/>
        <pt x="341" y="645" on="0"/>
        <pt x="430" y="647" on="1"/>
        <pt x="433" y="647" on="0"/>
        <pt x="495" y="643" on="0"/>
        <pt x="584" y="622" on="0"/>
        <pt x="687" y="577" on="0"/>
        <pt x="731" y="537" on="1"/>
        <pt x="731" y="582" on="0"/>
        <pt x="727" y="682" on="0"/>
        <pt x="712" y="779" on="0"/>
        <pt x="680" y="867" on="0"/>
        <pt x="625" y="934" on="0"/>
        <pt x="541" y="973" on="0"/>
        <pt x="481" y="973" on="1"/>
        <pt x="434" y="973" on="0"/>
        <pt x="356" y="937" on="0"/>
        <pt x="296" y="875" on="0"/>
        <pt x="256" y="790" on="0"/>
        <pt x="246" y="741" on="1"/>
        <pt x="78" y="795" on="1"/>
        <pt x="90" y="852" on="0"/>
        <pt x="135" y="940" on="0"/>
        <pt x="192" y="1006" on="0"/>
        <pt x="257" y="1053" on="0"/>
        <pt x="289" y="1069" on="1"/>
        <pt x="364" y="1106" on="0"/>
        <pt x="451" y="1114" on="1"/>
        <pt x="571" y="1114" on="0"/>
        <pt x="737" y="1042" on="0"/>
        <pt x="840" y="902" on="0"/>
        <pt x="885" y="696" on="0"/>
        <pt x="885" y="561" on="1"/>
        <pt x="883" y="460" on="0"/>
        <pt x="879" y="360" on="1"/>
        <pt x="877" y="317" on="0"/>
        <pt x="873" y="223" on="0"/>
        <pt x="868" y="128" on="0"/>
        <pt x="861" y="36" on="0"/>
        <pt x="858" y="-4" on="1"/>
        <pt x="817" y="-2" on="1"/>
        <pt x="797" y="-28" on="0"/>
        <pt x="762" y="-89" on="0"/>
        <pt x="762" y="-115" on="1"/>
        <pt x="762" y="-130" on="0"/>
        <pt x="781" y="-154" on="0"/>
        <pt x="797" y="-154" on="1"/>
        <pt x="815" y="-154" on="0"/>
        <pt x="850" y="-133" on="0"/>
        <pt x="864" y="-121" on="1"/>
      </contour>
      <contour>
        <pt x="729" y="283" on="1"/>
        <pt x="729" y="303" on="0"/>
        <pt x="731" y="342" on="0"/>
        <pt x="731" y="360" on="1"/>
        <pt x="678" y="414" on="0"/>
        <pt x="575" y="470" on="0"/>
        <pt x="533" y="484" on="1"/>
        <pt x="485" y="500" on="0"/>
        <pt x="440" y="502" on="1"/>
        <pt x="378" y="502" on="0"/>
        <pt x="289" y="467" on="0"/>
        <pt x="232" y="409" on="0"/>
        <pt x="205" y="335" on="0"/>
        <pt x="205" y="295" on="1"/>
        <pt x="205" y="254" on="0"/>
        <pt x="235" y="188" on="0"/>
        <pt x="290" y="142" on="0"/>
        <pt x="369" y="117" on="0"/>
        <pt x="418" y="117" on="1"/>
        <pt x="466" y="121" on="0"/>
        <pt x="518" y="139" on="1"/>
        <pt x="563" y="155" on="0"/>
        <pt x="672" y="222" on="0"/>
      </contour>
    </TTGlyph>
    <TTGlyph name="approxequal" xMin="100" yMin="414" xMax="633" yMax="1040">
      <contour>
        <pt x="612" y="1040" on="1"/>
        <pt x="620" y="1014" on="0"/>
        <pt x="633" y="960" on="0"/>
        <pt x="633" y="932" on="1"/>
        <pt x="633" y="897" on="0"/>
        <pt x="609" y="833" on="0"/>
        <pt x="566" y="782" on="0"/>
        <pt x="506" y="752" on="0"/>
        <pt x="471" y="752" on="1"/>
        <pt x="426" y="752" on="0"/>
        <pt x="367" y="798" on="0"/>
        <pt x="324" y="853" on="0"/>
        <pt x="291" y="899" on="0"/>
        <pt x="272" y="899" on="1"/>
        <pt x="258" y="899" on="0"/>
        <pt x="242" y="888" on="0"/>
        <pt x="232" y="870" on="0"/>
        <pt x="229" y="847" on="0"/>
        <pt x="229" y="836" on="1"/>
        <pt x="229" y="816" on="0"/>
        <pt x="238" y="778" on="0"/>
        <pt x="246" y="760" on="1"/>
        <pt x="104" y="752" on="1"/>
        <pt x="102" y="769" on="0"/>
        <pt x="100" y="805" on="0"/>
        <pt x="100" y="823" on="1"/>
        <pt x="100" y="857" on="0"/>
        <pt x="118" y="932" on="0"/>
        <pt x="155" y="995" on="0"/>
        <pt x="214" y="1036" on="0"/>
        <pt x="256" y="1036" on="1"/>
        <pt x="290" y="1036" on="0"/>
        <pt x="336" y="1015" on="0"/>
        <pt x="369" y="982" on="0"/>
        <pt x="393" y="945" on="0"/>
        <pt x="417" y="912" on="0"/>
        <pt x="445" y="891" on="0"/>
        <pt x="465" y="891" on="1"/>
        <pt x="488" y="891" on="0"/>
        <pt x="506" y="919" on="0"/>
        <pt x="506" y="944" on="1"/>
        <pt x="506" y="967" on="0"/>
        <pt x="492" y="1008" on="0"/>
        <pt x="481" y="1028" on="1"/>
      </contour>
      <contour>
        <pt x="612" y="702" on="1"/>
        <pt x="620" y="676" on="0"/>
        <pt x="633" y="622" on="0"/>
        <pt x="633" y="594" on="1"/>
        <pt x="633" y="559" on="0"/>
        <pt x="609" y="495" on="0"/>
        <pt x="566" y="444" on="0"/>
        <pt x="506" y="414" on="0"/>
        <pt x="471" y="414" on="1"/>
        <pt x="426" y="414" on="0"/>
        <pt x="367" y="460" on="0"/>
        <pt x="324" y="515" on="0"/>
        <pt x="291" y="561" on="0"/>
        <pt x="272" y="561" on="1"/>
        <pt x="258" y="561" on="0"/>
        <pt x="242" y="550" on="0"/>
        <pt x="232" y="532" on="0"/>
        <pt x="229" y="509" on="0"/>
        <pt x="229" y="498" on="1"/>
        <pt x="229" y="478" on="0"/>
        <pt x="238" y="440" on="0"/>
        <pt x="246" y="422" on="1"/>
        <pt x="104" y="414" on="1"/>
        <pt x="102" y="431" on="0"/>
        <pt x="100" y="467" on="0"/>
        <pt x="100" y="485" on="1"/>
        <pt x="100" y="519" on="0"/>
        <pt x="118" y="594" on="0"/>
        <pt x="155" y="657" on="0"/>
        <pt x="214" y="698" on="0"/>
        <pt x="256" y="698" on="1"/>
        <pt x="290" y="698" on="0"/>
        <pt x="336" y="677" on="0"/>
        <pt x="369" y="644" on="0"/>
        <pt x="393" y="607" on="0"/>
        <pt x="417" y="574" on="0"/>
        <pt x="445" y="553" on="0"/>
        <pt x="465" y="553" on="1"/>
        <pt x="488" y="553" on="0"/>
        <pt x="506" y="581" on="0"/>
        <pt x="506" y="606" on="1"/>
        <pt x="506" y="629" on="0"/>
        <pt x="492" y="670" on="0"/>
        <pt x="481" y="690" on="1"/>
      </contour>
    </TTGlyph>
    <TTGlyph name="aring" xMin="35" yMin="-27" xMax="885" yMax="1540">
      <component glyphName="a" x="0" y="0" flags="0x204"/>
      <component glyphName="ring" x="276" y="76" flags="0x4"/>
    </TTGlyph>
    <TTGlyph name="asciicircum" xMin="0" yMin="985" xMax="420" yMax="1440">
      <contour>
        <pt x="299" y="989" on="1"/>
        <pt x="180" y="1372" on="1"/>
        <pt x="231" y="1372" on="1"/>
        <pt x="125" y="985" on="1"/>
        <pt x="0" y="1028" on="1"/>
        <pt x="154" y="1440" on="1"/>
        <pt x="266" y="1440" on="1"/>
        <pt x="420" y="1022" on="1"/>
      </contour>
    </TTGlyph>
    <TTGlyph name="asciitilde" xMin="98" yMin="604" xMax="631" yMax="893">
      <contour>
        <pt x="610" y="893" on="1"/>
        <pt x="618" y="867" on="0"/>
        <pt x="631" y="812" on="0"/>
        <pt x="631" y="784" on="1"/>
        <pt x="631" y="749" on="0"/>
        <pt x="607" y="685" on="0"/>
        <pt x="564" y="634" on="0"/>
        <pt x="504" y="604" on="0"/>
        <pt x="469" y="604" on="1"/>
        <pt x="424" y="604" on="0"/>
        <pt x="365" y="650" on="0"/>
        <pt x="322" y="706" on="0"/>
        <pt x="288" y="752" on="0"/>
        <pt x="270" y="752" on="1"/>
        <pt x="256" y="752" on="0"/>
        <pt x="239" y="741" on="0"/>
        <pt x="230" y="723" on="0"/>
        <pt x="227" y="700" on="0"/>
        <pt x="227" y="688" on="1"/>
        <pt x="227" y="651" on="0"/>
        <pt x="244" y="612" on="1"/>
        <pt x="102" y="604" on="1"/>
        <pt x="100" y="621" on="0"/>
        <pt x="98" y="657" on="0"/>
        <pt x="98" y="676" on="1"/>
        <pt x="98" y="710" on="0"/>
        <pt x="116" y="785" on="0"/>
        <pt x="153" y="848" on="0"/>
        <pt x="212" y="889" on="0"/>
        <pt x="254" y="889" on="1"/>
        <pt x="288" y="889" on="0"/>
        <pt x="334" y="867" on="0"/>
        <pt x="367" y="835" on="0"/>
        <pt x="391" y="797" on="0"/>
        <pt x="415" y="765" on="0"/>
        <pt x="443" y="743" on="0"/>
        <pt x="463" y="743" on="1"/>
        <pt x="486" y="743" on="0"/>
        <pt x="504" y="772" on="0"/>
        <pt x="504" y="797" on="1"/>
        <pt x="504" y="820" on="0"/>
        <pt x="490" y="861" on="0"/>
        <pt x="479" y="881" on="1"/>
      </contour>
    </TTGlyph>
    <TTGlyph name="asterisk" xMin="59" yMin="743" xMax="680" yMax="1464">
      <contour>
        <pt x="680" y="1188" on="1"/>
        <pt x="352" y="1034" on="1"/>
        <pt x="59" y="1149" on="1"/>
        <pt x="141" y="1296" on="1"/>
        <pt x="360" y="1122" on="1"/>
        <pt x="594" y="1343" on="1"/>
      </contour>
      <contour>
        <pt x="668" y="930" on="1"/>
        <pt x="559" y="778" on="1"/>
        <pt x="360" y="1024" on="1"/>
        <pt x="223" y="743" on="1"/>
        <pt x="76" y="852" on="1"/>
        <pt x="317" y="1098" on="1"/>
        <pt x="293" y="1464" on="1"/>
        <pt x="457" y="1464" on="1"/>
        <pt x="414" y="1106" on="1"/>
      </contour>
    </TTGlyph>
    <TTGlyph name="at" xMin="78" yMin="-76" xMax="1198" yMax="1196">
      <contour>
        <pt x="881" y="313" on="1"/>
        <pt x="881" y="289" on="0"/>
        <pt x="892" y="262" on="0"/>
        <pt x="908" y="248" on="0"/>
        <pt x="926" y="244" on="0"/>
        <pt x="932" y="244" on="1"/>
        <pt x="963" y="244" on="0"/>
        <pt x="1008" y="287" on="0"/>
        <pt x="1039" y="354" on="0"/>
        <pt x="1058" y="436" on="0"/>
        <pt x="1069" y="517" on="0"/>
        <pt x="1073" y="586" on="0"/>
        <pt x="1073" y="606" on="1"/>
        <pt x="1073" y="721" on="0"/>
        <pt x="1011" y="896" on="0"/>
        <pt x="898" y="1015" on="0"/>
        <pt x="738" y="1075" on="0"/>
        <pt x="641" y="1075" on="1"/>
        <pt x="554" y="1075" on="0"/>
        <pt x="424" y="1027" on="0"/>
        <pt x="329" y="943" on="0"/>
        <pt x="267" y="830" on="0"/>
        <pt x="230" y="701" on="0"/>
        <pt x="215" y="562" on="0"/>
        <pt x="215" y="494" on="1"/>
        <pt x="215" y="407" on="0"/>
        <pt x="252" y="241" on="0"/>
        <pt x="330" y="112" on="0"/>
        <pt x="452" y="33" on="0"/>
        <pt x="537" y="33" on="1"/>
        <pt x="568" y="33" on="0"/>
        <pt x="625" y="47" on="0"/>
        <pt x="653" y="61" on="1"/>
        <pt x="702" y="-18" on="1"/>
        <pt x="656" y="-44" on="0"/>
        <pt x="554" y="-76" on="0"/>
        <pt x="500" y="-76" on="1"/>
        <pt x="402" y="-76" on="0"/>
        <pt x="245" y="23" on="0"/>
        <pt x="136" y="185" on="0"/>
        <pt x="78" y="390" on="0"/>
        <pt x="78" y="496" on="1"/>
        <pt x="78" y="587" on="0"/>
        <pt x="97" y="762" on="0"/>
        <pt x="145" y="918" on="0"/>
        <pt x="226" y="1049" on="0"/>
        <pt x="350" y="1143" on="0"/>
        <pt x="521" y="1196" on="0"/>
        <pt x="635" y="1196" on="1"/>
        <pt x="915" y="1196" on="0"/>
        <pt x="1198" y="900" on="0"/>
        <pt x="1198" y="621" on="1"/>
        <pt x="1198" y="576" on="0"/>
        <pt x="1190" y="472" on="0"/>
        <pt x="1169" y="369" on="0"/>
        <pt x="1131" y="274" on="0"/>
        <pt x="1070" y="201" on="0"/>
        <pt x="983" y="158" on="0"/>
        <pt x="924" y="158" on="1"/>
        <pt x="901" y="158" on="0"/>
        <pt x="851" y="174" on="0"/>
        <pt x="808" y="207" on="0"/>
        <pt x="780" y="259" on="0"/>
        <pt x="780" y="295" on="1"/>
        <pt x="781" y="347" on="0"/>
        <pt x="783" y="421" on="0"/>
        <pt x="784" y="486" on="0"/>
        <pt x="784" y="554" on="0"/>
        <pt x="784" y="600" on="1"/>
        <pt x="784" y="655" on="0"/>
        <pt x="760" y="727" on="0"/>
        <pt x="721" y="768" on="0"/>
        <pt x="673" y="784" on="0"/>
        <pt x="649" y="784" on="1"/>
        <pt x="642" y="784" on="0"/>
        <pt x="605" y="777" on="0"/>
        <pt x="563" y="749" on="0"/>
        <pt x="525" y="693" on="0"/>
        <pt x="518" y="645" on="1"/>
        <pt x="399" y="684" on="1"/>
        <pt x="410" y="733" on="0"/>
        <pt x="453" y="801" on="0"/>
        <pt x="505" y="847" on="0"/>
        <pt x="561" y="873" on="0"/>
        <pt x="608" y="886" on="0"/>
        <pt x="641" y="889" on="0"/>
        <pt x="645" y="889" on="1"/>
        <pt x="708" y="889" on="0"/>
        <pt x="802" y="847" on="0"/>
        <pt x="864" y="767" on="0"/>
        <pt x="895" y="654" on="0"/>
        <pt x="895" y="584" on="1"/>
      </contour>
      <contour>
        <pt x="610" y="301" on="1"/>
        <pt x="636" y="304" on="0"/>
        <pt x="667" y="317" on="1"/>
        <pt x="693" y="328" on="0"/>
        <pt x="761" y="374" on="0"/>
        <pt x="799" y="416" on="1"/>
        <pt x="766" y="451" on="0"/>
        <pt x="703" y="487" on="0"/>
        <pt x="679" y="496" on="1"/>
        <pt x="650" y="506" on="0"/>
        <pt x="625" y="508" on="1"/>
        <pt x="591" y="508" on="0"/>
        <pt x="542" y="490" on="0"/>
        <pt x="511" y="459" on="0"/>
        <pt x="496" y="419" on="0"/>
        <pt x="496" y="397" on="1"/>
        <pt x="496" y="354" on="0"/>
        <pt x="558" y="301" on="0"/>
      </contour>
      <contour>
        <pt x="813" y="414" on="1"/>
        <pt x="831" y="332" on="1"/>
        <pt x="812" y="300" on="0"/>
        <pt x="758" y="250" on="0"/>
        <pt x="695" y="216" on="0"/>
        <pt x="627" y="197" on="0"/>
        <pt x="594" y="197" on="1"/>
        <pt x="551" y="197" on="0"/>
        <pt x="472" y="221" on="0"/>
        <pt x="411" y="270" on="0"/>
        <pt x="375" y="346" on="0"/>
        <pt x="375" y="397" on="1"/>
        <pt x="375" y="442" on="0"/>
        <pt x="410" y="520" on="0"/>
        <pt x="474" y="579" on="0"/>
        <pt x="564" y="613" on="0"/>
        <pt x="618" y="614" on="1"/>
        <pt x="621" y="614" on="0"/>
        <pt x="672" y="610" on="0"/>
        <pt x="741" y="589" on="0"/>
        <pt x="814" y="543" on="0"/>
        <pt x="838" y="502" on="1"/>
      </contour>
    </TTGlyph>
    <TTGlyph name="atilde" xMin="35" yMin="-27" xMax="885" yMax="1427">
      <component glyphName="a" x="0" y="0" flags="0x204"/>
      <component glyphName="tilde" x="221" y="0" flags="0x4"/>
    </TTGlyph>
    <TTGlyph name="b" xMin="88" yMin="-23" xMax="977" yMax="1444">
      <contour>
        <pt x="977" y="602" on="1"/>
        <pt x="977" y="536" on="0"/>
        <pt x="959" y="393" on="0"/>
        <pt x="918" y="254" on="0"/>
        <pt x="852" y="128" on="0"/>
        <pt x="753" y="33" on="0"/>
        <pt x="621" y="-23" on="0"/>
        <pt x="535" y="-23" on="1"/>
        <pt x="470" y="-23" on="0"/>
        <pt x="353" y="-2" on="0"/>
        <pt x="253" y="51" on="0"/>
        <pt x="174" y="141" on="0"/>
        <pt x="118" y="279" on="0"/>
        <pt x="88" y="472" on="0"/>
        <pt x="88" y="600" on="1"/>
        <pt x="109" y="1444" on="1"/>
        <pt x="270" y="1444" on="1"/>
        <pt x="248" y="940" on="1"/>
        <pt x="272" y="976" on="0"/>
        <pt x="324" y="1030" on="0"/>
        <pt x="377" y="1069" on="0"/>
        <pt x="429" y="1096" on="0"/>
        <pt x="452" y="1105" on="1"/>
        <pt x="507" y="1125" on="0"/>
        <pt x="561" y="1128" on="1"/>
        <pt x="676" y="1126" on="0"/>
        <pt x="835" y="1050" on="0"/>
        <pt x="933" y="913" on="0"/>
        <pt x="977" y="720" on="0"/>
      </contour>
      <contour>
        <pt x="825" y="516" on="1"/>
        <pt x="825" y="554" on="0"/>
        <pt x="821" y="650" on="0"/>
        <pt x="804" y="751" on="0"/>
        <pt x="771" y="846" on="0"/>
        <pt x="712" y="921" on="0"/>
        <pt x="624" y="967" on="0"/>
        <pt x="561" y="967" on="1"/>
        <pt x="514" y="966" on="0"/>
        <pt x="430" y="926" on="0"/>
        <pt x="358" y="860" on="0"/>
        <pt x="300" y="775" on="0"/>
        <pt x="260" y="684" on="0"/>
        <pt x="238" y="593" on="0"/>
        <pt x="238" y="553" on="1"/>
        <pt x="238" y="451" on="0"/>
        <pt x="265" y="291" on="0"/>
        <pt x="332" y="181" on="0"/>
        <pt x="447" y="123" on="0"/>
        <pt x="535" y="123" on="1"/>
        <pt x="592" y="123" on="0"/>
        <pt x="678" y="161" on="0"/>
        <pt x="742" y="224" on="0"/>
        <pt x="785" y="306" on="0"/>
        <pt x="812" y="393" on="0"/>
        <pt x="824" y="480" on="0"/>
      </contour>
    </TTGlyph>
    <TTGlyph name="backslash" xMin="35" yMin="-12" xMax="778" yMax="1460">
      <contour>
        <pt x="213" y="1460" on="1"/>
        <pt x="778" y="14" on="1"/>
        <pt x="655" y="-12" on="1"/>
        <pt x="35" y="1421" on="1"/>
      </contour>
    </TTGlyph>
    <TTGlyph name="bar" xMin="123" yMin="-217" xMax="250" yMax="1530">
      <contour>
        <pt x="250" y="-217" on="1"/>
        <pt x="123" y="-217" on="1"/>
        <pt x="123" y="1530" on="1"/>
        <pt x="250" y="1530" on="1"/>
      </contour>
    </TTGlyph>
    <TTGlyph name="braceleft" xMin="33" yMin="-207" xMax="524" yMax="1638">
      <contour>
        <pt x="477" y="1477" on="1"/>
        <pt x="457" y="1493" on="0"/>
        <pt x="437" y="1505" on="1"/>
        <pt x="419" y="1516" on="0"/>
        <pt x="376" y="1534" on="0"/>
        <pt x="356" y="1534" on="1"/>
        <pt x="311" y="1534" on="0"/>
        <pt x="260" y="1473" on="0"/>
        <pt x="260" y="1407" on="1"/>
        <pt x="260" y="1358" on="0"/>
        <pt x="295" y="1266" on="0"/>
        <pt x="336" y="1171" on="0"/>
        <pt x="371" y="1068" on="0"/>
        <pt x="371" y="1008" on="1"/>
        <pt x="371" y="966" on="0"/>
        <pt x="345" y="882" on="0"/>
        <pt x="297" y="812" on="0"/>
        <pt x="228" y="761" on="0"/>
        <pt x="184" y="754" on="1"/>
        <pt x="282" y="728" on="0"/>
        <pt x="365" y="598" on="0"/>
        <pt x="365" y="504" on="1"/>
        <pt x="365" y="442" on="0"/>
        <pt x="332" y="329" on="0"/>
        <pt x="291" y="219" on="0"/>
        <pt x="258" y="110" on="0"/>
        <pt x="258" y="53" on="1"/>
        <pt x="258" y="-16" on="0"/>
        <pt x="304" y="-86" on="0"/>
        <pt x="342" y="-86" on="1"/>
        <pt x="355" y="-86" on="0"/>
        <pt x="390" y="-79" on="0"/>
        <pt x="426" y="-67" on="0"/>
        <pt x="456" y="-50" on="0"/>
        <pt x="465" y="-41" on="1"/>
        <pt x="479" y="-168" on="1"/>
        <pt x="467" y="-177" on="0"/>
        <pt x="424" y="-192" on="0"/>
        <pt x="377" y="-202" on="0"/>
        <pt x="332" y="-207" on="0"/>
        <pt x="317" y="-207" on="1"/>
        <pt x="279" y="-207" on="0"/>
        <pt x="205" y="-174" on="0"/>
        <pt x="148" y="-114" on="0"/>
        <pt x="113" y="-29" on="0"/>
        <pt x="113" y="23" on="1"/>
        <pt x="113" y="87" on="0"/>
        <pt x="142" y="199" on="0"/>
        <pt x="178" y="309" on="0"/>
        <pt x="207" y="424" on="0"/>
        <pt x="207" y="492" on="1"/>
        <pt x="207" y="576" on="0"/>
        <pt x="131" y="682" on="0"/>
        <pt x="43" y="688" on="1"/>
        <pt x="33" y="797" on="1"/>
        <pt x="71" y="807" on="0"/>
        <pt x="135" y="840" on="0"/>
        <pt x="181" y="892" on="0"/>
        <pt x="207" y="964" on="0"/>
        <pt x="207" y="1012" on="1"/>
        <pt x="207" y="1064" on="0"/>
        <pt x="176" y="1157" on="0"/>
        <pt x="140" y="1248" on="0"/>
        <pt x="109" y="1340" on="0"/>
        <pt x="109" y="1391" on="1"/>
        <pt x="109" y="1454" on="0"/>
        <pt x="152" y="1547" on="0"/>
        <pt x="222" y="1608" on="0"/>
        <pt x="314" y="1638" on="0"/>
        <pt x="362" y="1638" on="1"/>
        <pt x="406" y="1638" on="0"/>
        <pt x="493" y="1608" on="0"/>
        <pt x="524" y="1577" on="1"/>
      </contour>
    </TTGlyph>
    <TTGlyph name="braceright" xMin="-10" yMin="-166" xMax="440" yMax="1679">
      <contour>
        <pt x="440" y="676" on="1"/>
        <pt x="402" y="666" on="0"/>
        <pt x="344" y="625" on="0"/>
        <pt x="306" y="568" on="0"/>
        <pt x="287" y="499" on="0"/>
        <pt x="287" y="461" on="1"/>
        <pt x="287" y="410" on="0"/>
        <pt x="311" y="310" on="0"/>
        <pt x="341" y="212" on="0"/>
        <pt x="365" y="113" on="0"/>
        <pt x="365" y="63" on="1"/>
        <pt x="365" y="17" on="0"/>
        <pt x="335" y="-66" on="0"/>
        <pt x="279" y="-129" on="0"/>
        <pt x="200" y="-166" on="0"/>
        <pt x="152" y="-166" on="1"/>
        <pt x="108" y="-166" on="0"/>
        <pt x="21" y="-135" on="0"/>
        <pt x="-10" y="-104" on="1"/>
        <pt x="55" y="25" on="1"/>
        <pt x="61" y="7" on="0"/>
        <pt x="79" y="-28" on="0"/>
        <pt x="105" y="-57" on="0"/>
        <pt x="139" y="-74" on="0"/>
        <pt x="160" y="-74" on="1"/>
        <pt x="181" y="-74" on="0"/>
        <pt x="210" y="-49" on="0"/>
        <pt x="226" y="-13" on="0"/>
        <pt x="233" y="29" on="0"/>
        <pt x="233" y="47" on="1"/>
        <pt x="233" y="96" on="0"/>
        <pt x="208" y="193" on="0"/>
        <pt x="179" y="295" on="0"/>
        <pt x="154" y="404" on="0"/>
        <pt x="154" y="465" on="1"/>
        <pt x="154" y="506" on="0"/>
        <pt x="179" y="590" on="0"/>
        <pt x="227" y="661" on="0"/>
        <pt x="296" y="711" on="0"/>
        <pt x="340" y="719" on="1"/>
        <pt x="242" y="745" on="0"/>
        <pt x="160" y="875" on="0"/>
        <pt x="160" y="969" on="1"/>
        <pt x="160" y="1031" on="0"/>
        <pt x="192" y="1164" on="0"/>
        <pt x="230" y="1296" on="0"/>
        <pt x="262" y="1424" on="0"/>
        <pt x="262" y="1481" on="1"/>
        <pt x="262" y="1516" on="0"/>
        <pt x="227" y="1559" on="0"/>
        <pt x="188" y="1559" on="1"/>
        <pt x="162" y="1559" on="0"/>
        <pt x="117" y="1533" on="0"/>
        <pt x="100" y="1513" on="1"/>
        <pt x="86" y="1640" on="1"/>
        <pt x="137" y="1679" on="0"/>
        <pt x="197" y="1679" on="1"/>
        <pt x="274" y="1679" on="0"/>
        <pt x="360" y="1587" on="0"/>
        <pt x="360" y="1511" on="1"/>
        <pt x="360" y="1447" on="0"/>
        <pt x="337" y="1316" on="0"/>
        <pt x="310" y="1183" on="0"/>
        <pt x="287" y="1048" on="0"/>
        <pt x="287" y="981" on="1"/>
        <pt x="287" y="943" on="0"/>
        <pt x="299" y="874" on="0"/>
        <pt x="330" y="821" on="0"/>
        <pt x="386" y="787" on="0"/>
        <pt x="430" y="784" on="1"/>
      </contour>
    </TTGlyph>
    <TTGlyph name="bracketleft" xMin="111" yMin="-205" xMax="545" yMax="1649">
      <contour>
        <pt x="537" y="1524" on="1"/>
        <pt x="262" y="1524" on="1"/>
        <pt x="262" y="-59" on="1"/>
        <pt x="508" y="-59" on="1"/>
        <pt x="504" y="-199" on="1"/>
        <pt x="429" y="-200" on="0"/>
        <pt x="357" y="-201" on="1"/>
        <pt x="295" y="-202" on="0"/>
        <pt x="161" y="-203" on="0"/>
        <pt x="111" y="-205" on="1"/>
        <pt x="137" y="1649" on="1"/>
        <pt x="545" y="1649" on="1"/>
      </contour>
    </TTGlyph>
    <TTGlyph name="bracketright" xMin="0" yMin="-205" xMax="434" yMax="1636">
      <contour>
        <pt x="0" y="1636" on="1"/>
        <pt x="408" y="1636" on="1"/>
        <pt x="434" y="-205" on="1"/>
        <pt x="383" y="-203" on="0"/>
        <pt x="250" y="-202" on="0"/>
        <pt x="188" y="-201" on="1"/>
        <pt x="116" y="-200" on="0"/>
        <pt x="41" y="-199" on="1"/>
        <pt x="37" y="-72" on="1"/>
        <pt x="254" y="-72" on="1"/>
        <pt x="254" y="1511" on="1"/>
        <pt x="8" y="1511" on="1"/>
      </contour>
    </TTGlyph>
    <TTGlyph name="breve" xMin="0" yMin="1169" xMax="408" yMax="1405">
      <contour>
        <pt x="408" y="1399" on="1"/>
        <pt x="408" y="1351" on="0"/>
        <pt x="382" y="1267" on="0"/>
        <pt x="331" y="1205" on="0"/>
        <pt x="257" y="1169" on="0"/>
        <pt x="209" y="1169" on="1"/>
        <pt x="155" y="1169" on="0"/>
        <pt x="77" y="1205" on="0"/>
        <pt x="26" y="1266" on="0"/>
        <pt x="1" y="1348" on="0"/>
        <pt x="0" y="1393" on="1"/>
        <pt x="127" y="1405" on="1"/>
        <pt x="125" y="1397" on="0"/>
        <pt x="123" y="1381" on="0"/>
        <pt x="123" y="1372" on="1"/>
        <pt x="123" y="1353" on="0"/>
        <pt x="133" y="1315" on="0"/>
        <pt x="154" y="1285" on="0"/>
        <pt x="187" y="1266" on="0"/>
        <pt x="209" y="1266" on="1"/>
        <pt x="230" y="1266" on="0"/>
        <pt x="259" y="1287" on="0"/>
        <pt x="277" y="1320" on="0"/>
        <pt x="285" y="1360" on="0"/>
        <pt x="285" y="1378" on="1"/>
        <pt x="285" y="1384" on="0"/>
        <pt x="283" y="1397" on="0"/>
        <pt x="283" y="1403" on="1"/>
      </contour>
    </TTGlyph>
    <TTGlyph name="brokenbar" xMin="109" yMin="-215" xMax="274" yMax="1530">
      <contour>
        <pt x="256" y="784" on="1"/>
        <pt x="109" y="784" on="1"/>
        <pt x="109" y="1530" on="1"/>
        <pt x="274" y="1530" on="1"/>
      </contour>
      <contour>
        <pt x="129" y="-215" on="1"/>
        <pt x="129" y="514" on="1"/>
        <pt x="262" y="514" on="1"/>
        <pt x="262" y="-215" on="1"/>
      </contour>
    </TTGlyph>
    <TTGlyph name="bullet" xMin="127" yMin="530" xMax="436" yMax="842">
      <contour>
        <pt x="436" y="686" on="1"/>
        <pt x="436" y="654" on="0"/>
        <pt x="412" y="598" on="0"/>
        <pt x="370" y="555" on="0"/>
        <pt x="314" y="530" on="0"/>
        <pt x="283" y="530" on="1"/>
        <pt x="251" y="530" on="0"/>
        <pt x="194" y="555" on="0"/>
        <pt x="152" y="598" on="0"/>
        <pt x="127" y="654" on="0"/>
        <pt x="127" y="686" on="1"/>
        <pt x="127" y="717" on="0"/>
        <pt x="152" y="774" on="0"/>
        <pt x="194" y="817" on="0"/>
        <pt x="251" y="842" on="0"/>
        <pt x="283" y="842" on="1"/>
        <pt x="314" y="842" on="0"/>
        <pt x="370" y="817" on="0"/>
        <pt x="412" y="774" on="0"/>
        <pt x="436" y="717" on="0"/>
      </contour>
    </TTGlyph>
    <TTGlyph name="c" xMin="53" yMin="-6" xMax="913" yMax="1114">
      <contour>
        <pt x="772" y="668" on="1"/>
        <pt x="768" y="725" on="0"/>
        <pt x="738" y="811" on="0"/>
        <pt x="695" y="875" on="0"/>
        <pt x="642" y="919" on="0"/>
        <pt x="615" y="933" on="1"/>
        <pt x="552" y="966" on="0"/>
        <pt x="473" y="971" on="1"/>
        <pt x="414" y="971" on="0"/>
        <pt x="328" y="933" on="0"/>
        <pt x="269" y="868" on="0"/>
        <pt x="233" y="784" on="0"/>
        <pt x="213" y="692" on="0"/>
        <pt x="207" y="598" on="0"/>
        <pt x="207" y="557" on="1"/>
        <pt x="207" y="516" on="0"/>
        <pt x="223" y="420" on="0"/>
        <pt x="256" y="324" on="0"/>
        <pt x="304" y="235" on="0"/>
        <pt x="367" y="166" on="0"/>
        <pt x="447" y="125" on="0"/>
        <pt x="494" y="125" on="1"/>
        <pt x="552" y="130" on="0"/>
        <pt x="607" y="158" on="1"/>
        <pt x="630" y="170" on="0"/>
        <pt x="678" y="205" on="0"/>
        <pt x="724" y="257" on="0"/>
        <pt x="764" y="326" on="0"/>
        <pt x="778" y="371" on="1"/>
        <pt x="909" y="307" on="1"/>
        <pt x="894" y="254" on="0"/>
        <pt x="843" y="170" on="0"/>
        <pt x="780" y="107" on="0"/>
        <pt x="709" y="61" on="0"/>
        <pt x="675" y="45" on="1"/>
        <pt x="593" y="8" on="0"/>
        <pt x="500" y="-4" on="1"/>
        <pt x="492" y="-4" on="0"/>
        <pt x="477" y="-6" on="0"/>
        <pt x="469" y="-6" on="1"/>
        <pt x="398" y="-6" on="0"/>
        <pt x="281" y="41" on="0"/>
        <pt x="188" y="123" on="0"/>
        <pt x="120" y="235" on="0"/>
        <pt x="75" y="366" on="0"/>
        <pt x="53" y="508" on="0"/>
        <pt x="53" y="580" on="1"/>
        <pt x="53" y="687" on="0"/>
        <pt x="102" y="881" on="0"/>
        <pt x="204" y="1028" on="0"/>
        <pt x="362" y="1114" on="0"/>
        <pt x="471" y="1114" on="1"/>
        <pt x="555" y="1114" on="0"/>
        <pt x="685" y="1073" on="0"/>
        <pt x="781" y="1005" on="0"/>
        <pt x="846" y="919" on="0"/>
        <pt x="888" y="828" on="0"/>
        <pt x="910" y="741" on="0"/>
        <pt x="913" y="707" on="1"/>
      </contour>
    </TTGlyph>
    <TTGlyph name="cacute" xMin="53" yMin="-6" xMax="913" yMax="1522">
      <component glyphName="c" x="0" y="0" flags="0x204"/>
      <component glyphName="acute" x="461" y="35" flags="0x4"/>
    </TTGlyph>
    <TTGlyph name="caron" xMin="0" yMin="1135" xMax="412" yMax="1481">
      <contour>
        <pt x="412" y="1417" on="1"/>
        <pt x="260" y="1135" on="1"/>
        <pt x="154" y="1135" on="1"/>
        <pt x="0" y="1417" on="1"/>
        <pt x="125" y="1481" on="1"/>
        <pt x="229" y="1186" on="1"/>
        <pt x="176" y="1186" on="1"/>
        <pt x="299" y="1477" on="1"/>
      </contour>
    </TTGlyph>
    <TTGlyph name="ccaron" xMin="53" yMin="-6" xMax="913" yMax="1516">
      <component glyphName="c" x="0" y="0" flags="0x204"/>
      <component glyphName="caron" x="268" y="35" flags="0x4"/>
    </TTGlyph>
    <TTGlyph name="ccedilla" xMin="53" yMin="-285" xMax="913" yMax="1114">
      <contour>
        <pt x="483" y="-285" on="1"/>
        <pt x="445" y="-285" on="0"/>
        <pt x="387" y="-253" on="0"/>
        <pt x="362" y="-225" on="1"/>
        <pt x="414" y="-154" on="1"/>
        <pt x="425" y="-168" on="0"/>
        <pt x="460" y="-197" on="0"/>
        <pt x="477" y="-197" on="1"/>
        <pt x="496" y="-197" on="0"/>
        <pt x="520" y="-167" on="0"/>
        <pt x="520" y="-152" on="1"/>
        <pt x="520" y="-136" on="0"/>
        <pt x="492" y="-117" on="0"/>
        <pt x="454" y="-108" on="0"/>
        <pt x="415" y="-106" on="0"/>
        <pt x="403" y="-106" on="1"/>
        <pt x="451" y="-4" on="1"/>
        <pt x="383" y="-2" on="0"/>
        <pt x="271" y="48" on="0"/>
        <pt x="182" y="131" on="0"/>
        <pt x="117" y="242" on="0"/>
        <pt x="74" y="370" on="0"/>
        <pt x="53" y="510" on="0"/>
        <pt x="53" y="580" on="1"/>
        <pt x="53" y="687" on="0"/>
        <pt x="102" y="881" on="0"/>
        <pt x="204" y="1028" on="0"/>
        <pt x="362" y="1114" on="0"/>
        <pt x="471" y="1114" on="1"/>
        <pt x="555" y="1114" on="0"/>
        <pt x="685" y="1073" on="0"/>
        <pt x="781" y="1005" on="0"/>
        <pt x="846" y="919" on="0"/>
        <pt x="888" y="828" on="0"/>
        <pt x="910" y="741" on="0"/>
        <pt x="913" y="707" on="1"/>
        <pt x="772" y="668" on="1"/>
        <pt x="768" y="725" on="0"/>
        <pt x="738" y="811" on="0"/>
        <pt x="695" y="875" on="0"/>
        <pt x="642" y="919" on="0"/>
        <pt x="615" y="933" on="1"/>
        <pt x="552" y="966" on="0"/>
        <pt x="473" y="971" on="1"/>
        <pt x="414" y="971" on="0"/>
        <pt x="328" y="933" on="0"/>
        <pt x="269" y="868" on="0"/>
        <pt x="233" y="784" on="0"/>
        <pt x="213" y="692" on="0"/>
        <pt x="207" y="598" on="0"/>
        <pt x="207" y="557" on="1"/>
        <pt x="207" y="516" on="0"/>
        <pt x="223" y="420" on="0"/>
        <pt x="256" y="324" on="0"/>
        <pt x="304" y="235" on="0"/>
        <pt x="367" y="166" on="0"/>
        <pt x="447" y="125" on="0"/>
        <pt x="494" y="125" on="1"/>
        <pt x="552" y="130" on="0"/>
        <pt x="607" y="158" on="1"/>
        <pt x="630" y="170" on="0"/>
        <pt x="678" y="205" on="0"/>
        <pt x="724" y="257" on="0"/>
        <pt x="764" y="326" on="0"/>
        <pt x="778" y="371" on="1"/>
        <pt x="909" y="307" on="1"/>
        <pt x="892" y="245" on="0"/>
        <pt x="831" y="153" on="0"/>
        <pt x="755" y="86" on="0"/>
        <pt x="673" y="42" on="0"/>
        <pt x="597" y="15" on="0"/>
        <pt x="535" y="2" on="0"/>
        <pt x="518" y="0" on="1"/>
        <pt x="498" y="-57" on="1"/>
        <pt x="517" y="-57" on="0"/>
        <pt x="554" y="-72" on="0"/>
        <pt x="584" y="-100" on="0"/>
        <pt x="602" y="-139" on="0"/>
        <pt x="602" y="-164" on="1"/>
        <pt x="602" y="-197" on="0"/>
        <pt x="580" y="-243" on="0"/>
        <pt x="545" y="-272" on="0"/>
        <pt x="503" y="-285" on="0"/>
      </contour>
    </TTGlyph>
    <TTGlyph name="ccircumflex" xMin="53" yMin="-6" xMax="913" yMax="1512">
      <component glyphName="c" x="0" y="0" flags="0x204"/>
      <component glyphName="circumflex" x="272" y="31" flags="0x4"/>
    </TTGlyph>
    <TTGlyph name="cdotaccent" xMin="53" yMin="-6" xMax="913" yMax="1374">
      <component glyphName="c" x="0" y="0" flags="0x204"/>
      <component glyphName="dotaccent" x="375" y="0" flags="0x4"/>
    </TTGlyph>
    <TTGlyph name="cedilla" xMin="31" yMin="-285" xMax="270" yMax="47">
      <contour>
        <pt x="152" y="-285" on="1"/>
        <pt x="113" y="-285" on="0"/>
        <pt x="55" y="-253" on="0"/>
        <pt x="31" y="-225" on="1"/>
        <pt x="82" y="-154" on="1"/>
        <pt x="93" y="-168" on="0"/>
        <pt x="128" y="-197" on="0"/>
        <pt x="145" y="-197" on="1"/>
        <pt x="164" y="-197" on="0"/>
        <pt x="188" y="-167" on="0"/>
        <pt x="188" y="-152" on="1"/>
        <pt x="188" y="-136" on="0"/>
        <pt x="160" y="-117" on="0"/>
        <pt x="122" y="-108" on="0"/>
        <pt x="83" y="-106" on="0"/>
        <pt x="72" y="-106" on="1"/>
        <pt x="145" y="47" on="1"/>
        <pt x="203" y="41" on="1"/>
        <pt x="166" y="-57" on="1"/>
        <pt x="185" y="-57" on="0"/>
        <pt x="222" y="-72" on="0"/>
        <pt x="252" y="-100" on="0"/>
        <pt x="270" y="-139" on="0"/>
        <pt x="270" y="-164" on="1"/>
        <pt x="270" y="-197" on="0"/>
        <pt x="248" y="-243" on="0"/>
        <pt x="214" y="-272" on="0"/>
        <pt x="172" y="-285" on="0"/>
      </contour>
    </TTGlyph>
    <TTGlyph name="cent" xMin="45" yMin="-143" xMax="672" yMax="1167">
      <contour>
        <pt x="553" y="537" on="1"/>
        <pt x="550" y="577" on="0"/>
        <pt x="529" y="638" on="0"/>
        <pt x="499" y="684" on="0"/>
        <pt x="463" y="715" on="0"/>
        <pt x="445" y="725" on="1"/>
        <pt x="402" y="749" on="0"/>
        <pt x="350" y="752" on="1"/>
        <pt x="291" y="752" on="0"/>
        <pt x="221" y="696" on="0"/>
        <pt x="185" y="611" on="0"/>
        <pt x="174" y="512" on="0"/>
        <pt x="174" y="469" on="1"/>
        <pt x="174" y="427" on="0"/>
        <pt x="198" y="325" on="0"/>
        <pt x="246" y="235" on="0"/>
        <pt x="319" y="174" on="0"/>
        <pt x="367" y="174" on="1"/>
        <pt x="407" y="178" on="0"/>
        <pt x="443" y="198" on="1"/>
        <pt x="474" y="215" on="0"/>
        <pt x="539" y="288" on="0"/>
        <pt x="559" y="354" on="1"/>
        <pt x="672" y="299" on="1"/>
        <pt x="652" y="245" on="0"/>
        <pt x="583" y="157" on="0"/>
        <pt x="496" y="95" on="0"/>
        <pt x="398" y="61" on="0"/>
        <pt x="348" y="61" on="1"/>
        <pt x="270" y="61" on="0"/>
        <pt x="156" y="136" on="0"/>
        <pt x="81" y="257" on="0"/>
        <pt x="45" y="408" on="0"/>
        <pt x="45" y="485" on="1"/>
        <pt x="45" y="563" on="0"/>
        <pt x="81" y="704" on="0"/>
        <pt x="155" y="810" on="0"/>
        <pt x="270" y="872" on="0"/>
        <pt x="348" y="872" on="1"/>
        <pt x="409" y="872" on="0"/>
        <pt x="504" y="841" on="0"/>
        <pt x="574" y="790" on="0"/>
        <pt x="623" y="725" on="0"/>
        <pt x="654" y="657" on="0"/>
        <pt x="669" y="591" on="0"/>
        <pt x="672" y="565" on="1"/>
      </contour>
      <contour>
        <pt x="401" y="825" on="1"/>
        <pt x="276" y="825" on="1"/>
        <pt x="276" y="1167" on="1"/>
        <pt x="412" y="1167" on="1"/>
      </contour>
      <contour>
        <pt x="291" y="-143" on="1"/>
        <pt x="291" y="152" on="1"/>
        <pt x="403" y="152" on="1"/>
        <pt x="403" y="-143" on="1"/>
      </contour>
    </TTGlyph>
    <TTGlyph name="circumflex" xMin="0" yMin="1128" xMax="412" yMax="1481">
      <contour>
        <pt x="299" y="1133" on="1"/>
        <pt x="176" y="1423" on="1"/>
        <pt x="229" y="1423" on="1"/>
        <pt x="125" y="1128" on="1"/>
        <pt x="0" y="1192" on="1"/>
        <pt x="154" y="1481" on="1"/>
        <pt x="260" y="1481" on="1"/>
        <pt x="412" y="1192" on="1"/>
      </contour>
    </TTGlyph>
    <TTGlyph name="colon" xMin="94" yMin="6" xMax="270" yMax="1016">
      <contour>
        <pt x="270" y="94" on="1"/>
        <pt x="270" y="76" on="0"/>
        <pt x="256" y="44" on="0"/>
        <pt x="232" y="20" on="0"/>
        <pt x="200" y="6" on="0"/>
        <pt x="182" y="6" on="1"/>
        <pt x="145" y="6" on="0"/>
        <pt x="94" y="57" on="0"/>
        <pt x="94" y="94" on="1"/>
        <pt x="94" y="112" on="0"/>
        <pt x="108" y="143" on="0"/>
        <pt x="132" y="166" on="0"/>
        <pt x="164" y="180" on="0"/>
        <pt x="182" y="180" on="1"/>
        <pt x="200" y="180" on="0"/>
        <pt x="232" y="166" on="0"/>
        <pt x="256" y="143" on="0"/>
        <pt x="270" y="112" on="0"/>
      </contour>
      <contour>
        <pt x="270" y="930" on="1"/>
        <pt x="270" y="912" on="0"/>
        <pt x="256" y="880" on="0"/>
        <pt x="232" y="856" on="0"/>
        <pt x="200" y="842" on="0"/>
        <pt x="182" y="842" on="1"/>
        <pt x="145" y="842" on="0"/>
        <pt x="94" y="893" on="0"/>
        <pt x="94" y="930" on="1"/>
        <pt x="94" y="948" on="0"/>
        <pt x="108" y="979" on="0"/>
        <pt x="132" y="1002" on="0"/>
        <pt x="164" y="1016" on="0"/>
        <pt x="182" y="1016" on="1"/>
        <pt x="200" y="1016" on="0"/>
        <pt x="232" y="1002" on="0"/>
        <pt x="256" y="979" on="0"/>
        <pt x="270" y="948" on="0"/>
      </contour>
    </TTGlyph>
    <TTGlyph name="comma" xMin="59" yMin="-123" xMax="246" yMax="193">
      <contour>
        <pt x="246" y="98" on="1"/>
        <pt x="246" y="62" on="0"/>
        <pt x="227" y="-10" on="0"/>
        <pt x="189" y="-70" on="0"/>
        <pt x="132" y="-114" on="0"/>
        <pt x="94" y="-123" on="1"/>
        <pt x="68" y="-92" on="1"/>
        <pt x="94" y="-78" on="0"/>
        <pt x="135" y="-25" on="0"/>
        <pt x="137" y="6" on="1"/>
        <pt x="103" y="11" on="0"/>
        <pt x="59" y="64" on="0"/>
        <pt x="59" y="98" on="1"/>
        <pt x="59" y="118" on="0"/>
        <pt x="74" y="153" on="0"/>
        <pt x="100" y="178" on="0"/>
        <pt x="134" y="193" on="0"/>
        <pt x="154" y="193" on="1"/>
        <pt x="173" y="193" on="0"/>
        <pt x="207" y="178" on="0"/>
        <pt x="232" y="153" on="0"/>
        <pt x="246" y="118" on="0"/>
      </contour>
    </TTGlyph>
    <TTGlyph name="copyright" xMin="80" yMin="133" xMax="942" yMax="1294">
      <contour>
        <pt x="645" y="840" on="1"/>
        <pt x="645" y="886" on="0"/>
        <pt x="630" y="950" on="0"/>
        <pt x="606" y="992" on="0"/>
        <pt x="579" y="1014" on="0"/>
        <pt x="556" y="1024" on="0"/>
        <pt x="539" y="1026" on="0"/>
        <pt x="539" y="1026" on="1"/>
        <pt x="471" y="1026" on="0"/>
        <pt x="389" y="877" on="0"/>
        <pt x="389" y="723" on="1"/>
        <pt x="389" y="568" on="0"/>
        <pt x="463" y="414" on="0"/>
        <pt x="526" y="414" on="1"/>
        <pt x="550" y="416" on="0"/>
        <pt x="570" y="432" on="1"/>
        <pt x="587" y="446" on="0"/>
        <pt x="622" y="504" on="0"/>
        <pt x="631" y="559" on="1"/>
        <pt x="719" y="553" on="1"/>
        <pt x="713" y="514" on="0"/>
        <pt x="690" y="454" on="0"/>
        <pt x="661" y="410" on="0"/>
        <pt x="627" y="380" on="0"/>
        <pt x="611" y="370" on="1"/>
        <pt x="572" y="347" on="0"/>
        <pt x="528" y="344" on="1"/>
        <pt x="408" y="344" on="0"/>
        <pt x="279" y="533" on="0"/>
        <pt x="279" y="719" on="1"/>
        <pt x="279" y="911" on="0"/>
        <pt x="410" y="1106" on="0"/>
        <pt x="547" y="1106" on="1"/>
        <pt x="601" y="1102" on="0"/>
        <pt x="643" y="1076" on="1"/>
        <pt x="661" y="1065" on="0"/>
        <pt x="695" y="1030" on="0"/>
        <pt x="722" y="979" on="0"/>
        <pt x="739" y="911" on="0"/>
        <pt x="739" y="866" on="1"/>
        <pt x="739" y="846" on="1"/>
      </contour>
      <contour>
        <pt x="942" y="754" on="1"/>
        <pt x="942" y="610" on="0"/>
        <pt x="875" y="379" on="0"/>
        <pt x="758" y="219" on="0"/>
        <pt x="601" y="133" on="0"/>
        <pt x="512" y="133" on="1"/>
        <pt x="422" y="133" on="0"/>
        <pt x="264" y="222" on="0"/>
        <pt x="147" y="385" on="0"/>
        <pt x="80" y="614" on="0"/>
        <pt x="80" y="754" on="1"/>
        <pt x="80" y="874" on="0"/>
        <pt x="140" y="1072" on="0"/>
        <pt x="252" y="1215" on="0"/>
        <pt x="412" y="1294" on="0"/>
        <pt x="512" y="1294" on="1"/>
        <pt x="623" y="1294" on="0"/>
        <pt x="785" y="1215" on="0"/>
        <pt x="891" y="1072" on="0"/>
        <pt x="942" y="874" on="0"/>
      </contour>
      <contour>
        <pt x="838" y="752" on="1"/>
        <pt x="838" y="857" on="0"/>
        <pt x="799" y="1030" on="0"/>
        <pt x="719" y="1155" on="0"/>
        <pt x="596" y="1223" on="0"/>
        <pt x="512" y="1223" on="1"/>
        <pt x="435" y="1223" on="0"/>
        <pt x="313" y="1155" on="0"/>
        <pt x="227" y="1030" on="0"/>
        <pt x="182" y="857" on="0"/>
        <pt x="182" y="752" on="1"/>
        <pt x="182" y="630" on="0"/>
        <pt x="233" y="432" on="0"/>
        <pt x="323" y="290" on="0"/>
        <pt x="443" y="213" on="0"/>
        <pt x="512" y="213" on="1"/>
        <pt x="579" y="213" on="0"/>
        <pt x="698" y="287" on="0"/>
        <pt x="787" y="427" on="0"/>
        <pt x="838" y="627" on="0"/>
      </contour>
    </TTGlyph>
    <TTGlyph name="currency" xMin="72" yMin="313" xMax="711" yMax="952">
      <contour>
        <pt x="543" y="633" on="1"/>
        <pt x="543" y="670" on="0"/>
        <pt x="526" y="737" on="0"/>
        <pt x="490" y="788" on="0"/>
        <pt x="434" y="819" on="0"/>
        <pt x="395" y="819" on="1"/>
        <pt x="326" y="819" on="0"/>
        <pt x="244" y="717" on="0"/>
        <pt x="244" y="633" on="1"/>
        <pt x="244" y="586" on="0"/>
        <pt x="268" y="512" on="0"/>
        <pt x="308" y="460" on="0"/>
        <pt x="363" y="432" on="0"/>
        <pt x="395" y="432" on="1"/>
        <pt x="426" y="432" on="0"/>
        <pt x="480" y="457" on="0"/>
        <pt x="520" y="507" on="0"/>
        <pt x="543" y="582" on="0"/>
      </contour>
      <contour>
        <pt x="627" y="791" on="1"/>
        <pt x="644" y="759" on="0"/>
        <pt x="662" y="678" on="0"/>
        <pt x="662" y="633" on="1"/>
        <pt x="662" y="588" on="0"/>
        <pt x="645" y="511" on="0"/>
        <pt x="631" y="479" on="1"/>
        <pt x="711" y="399" on="1"/>
        <pt x="621" y="313" on="1"/>
        <pt x="553" y="379" on="1"/>
        <pt x="521" y="351" on="0"/>
        <pt x="440" y="324" on="0"/>
        <pt x="395" y="324" on="1"/>
        <pt x="346" y="324" on="0"/>
        <pt x="256" y="357" on="0"/>
        <pt x="221" y="389" on="1"/>
        <pt x="150" y="317" on="1"/>
        <pt x="80" y="418" on="1"/>
        <pt x="154" y="489" on="1"/>
        <pt x="140" y="520" on="0"/>
        <pt x="127" y="591" on="0"/>
        <pt x="127" y="633" on="1"/>
        <pt x="127" y="671" on="0"/>
        <pt x="141" y="739" on="0"/>
        <pt x="154" y="770" on="1"/>
        <pt x="72" y="852" on="1"/>
        <pt x="160" y="946" on="1"/>
        <pt x="236" y="870" on="1"/>
        <pt x="268" y="893" on="0"/>
        <pt x="347" y="920" on="0"/>
        <pt x="395" y="920" on="1"/>
        <pt x="445" y="920" on="0"/>
        <pt x="524" y="896" on="0"/>
        <pt x="555" y="874" on="1"/>
        <pt x="635" y="952" on="1"/>
        <pt x="709" y="872" on="1"/>
      </contour>
    </TTGlyph>
    <TTGlyph name="d" xMin="53" yMin="-16" xMax="932" yMax="1444">
      <contour>
        <pt x="932" y="1444" on="1"/>
        <pt x="932" y="18" on="1"/>
        <pt x="795" y="18" on="1"/>
        <pt x="795" y="174" on="1"/>
        <pt x="775" y="138" on="0"/>
        <pt x="728" y="84" on="0"/>
        <pt x="678" y="44" on="0"/>
        <pt x="627" y="17" on="0"/>
        <pt x="603" y="8" on="1"/>
        <pt x="548" y="-13" on="0"/>
        <pt x="489" y="-16" on="1"/>
        <pt x="396" y="-16" on="0"/>
        <pt x="236" y="66" on="0"/>
        <pt x="119" y="218" on="0"/>
        <pt x="53" y="435" on="0"/>
        <pt x="53" y="569" on="1"/>
        <pt x="53" y="683" on="0"/>
        <pt x="104" y="885" on="0"/>
        <pt x="201" y="1037" on="0"/>
        <pt x="340" y="1126" on="0"/>
        <pt x="428" y="1126" on="1"/>
        <pt x="502" y="1123" on="0"/>
        <pt x="570" y="1099" on="1"/>
        <pt x="599" y="1089" on="0"/>
        <pt x="660" y="1057" on="0"/>
        <pt x="718" y="1010" on="0"/>
        <pt x="769" y="948" on="0"/>
        <pt x="788" y="907" on="1"/>
        <pt x="788" y="1438" on="1"/>
      </contour>
      <contour>
        <pt x="780" y="545" on="1"/>
        <pt x="777" y="628" on="0"/>
        <pt x="744" y="757" on="0"/>
        <pt x="694" y="853" on="0"/>
        <pt x="630" y="918" on="0"/>
        <pt x="564" y="958" on="0"/>
        <pt x="498" y="975" on="0"/>
        <pt x="471" y="975" on="1"/>
        <pt x="400" y="975" on="0"/>
        <pt x="298" y="911" on="0"/>
        <pt x="232" y="795" on="0"/>
        <pt x="201" y="633" on="0"/>
        <pt x="201" y="535" on="1"/>
        <pt x="201" y="419" on="0"/>
        <pt x="262" y="258" on="0"/>
        <pt x="353" y="159" on="0"/>
        <pt x="460" y="115" on="0"/>
        <pt x="506" y="115" on="1"/>
        <pt x="556" y="115" on="0"/>
        <pt x="654" y="164" on="0"/>
        <pt x="732" y="269" on="0"/>
        <pt x="780" y="431" on="0"/>
      </contour>
    </TTGlyph>
    <TTGlyph name="dagger" xMin="45" yMin="-133" xMax="594" yMax="1530">
      <contour>
        <pt x="375" y="-133" on="1"/>
        <pt x="244" y="-133" on="1"/>
        <pt x="244" y="1530" on="1"/>
        <pt x="412" y="1530" on="1"/>
      </contour>
      <contour>
        <pt x="45" y="1120" on="1"/>
        <pt x="45" y="1270" on="1"/>
        <pt x="594" y="1270" on="1"/>
        <pt x="594" y="1120" on="1"/>
      </contour>
    </TTGlyph>
    <TTGlyph name="daggerdbl" xMin="63" yMin="-133" xMax="616" yMax="1530">
      <contour>
        <pt x="397" y="-133" on="1"/>
        <pt x="266" y="-133" on="1"/>
        <pt x="266" y="1530" on="1"/>
        <pt x="434" y="1530" on="1"/>
      </contour>
      <contour>
        <pt x="68" y="1120" on="1"/>
        <pt x="68" y="1270" on="1"/>
        <pt x="616" y="1270" on="1"/>
        <pt x="616" y="1145" on="1"/>
      </contour>
      <contour>
        <pt x="606" y="279" on="1"/>
        <pt x="598" y="150" on="1"/>
        <pt x="63" y="150" on="1"/>
        <pt x="63" y="279" on="1"/>
      </contour>
    </TTGlyph>
    <TTGlyph name="dcaron" xMin="53" yMin="-16" xMax="1171" yMax="1444">
      <component glyphName="d" x="0" y="0" flags="0x4"/>
      <component glyphName="uni0315" x="944" y="0" flags="0x4"/>
    </TTGlyph>
    <TTGlyph name="dcroat" xMin="53" yMin="-16" xMax="1038" yMax="1444">
      <contour>
        <pt x="932" y="1206" on="1"/>
        <pt x="932" y="18" on="1"/>
        <pt x="795" y="18" on="1"/>
        <pt x="795" y="174" on="1"/>
        <pt x="775" y="138" on="0"/>
        <pt x="728" y="84" on="0"/>
        <pt x="678" y="44" on="0"/>
        <pt x="627" y="17" on="0"/>
        <pt x="603" y="8" on="1"/>
        <pt x="548" y="-13" on="0"/>
        <pt x="489" y="-16" on="1"/>
        <pt x="396" y="-16" on="0"/>
        <pt x="236" y="66" on="0"/>
        <pt x="119" y="218" on="0"/>
        <pt x="53" y="435" on="0"/>
        <pt x="53" y="569" on="1"/>
        <pt x="53" y="683" on="0"/>
        <pt x="104" y="885" on="0"/>
        <pt x="201" y="1037" on="0"/>
        <pt x="340" y="1126" on="0"/>
        <pt x="428" y="1126" on="1"/>
        <pt x="502" y="1123" on="0"/>
        <pt x="570" y="1099" on="1"/>
        <pt x="599" y="1089" on="0"/>
        <pt x="660" y="1057" on="0"/>
        <pt x="718" y="1010" on="0"/>
        <pt x="769" y="948" on="0"/>
        <pt x="788" y="907" on="1"/>
        <pt x="788" y="1206" on="1"/>
        <pt x="641" y="1206" on="1"/>
        <pt x="641" y="1341" on="1"/>
        <pt x="788" y="1341" on="1"/>
        <pt x="788" y="1438" on="1"/>
        <pt x="932" y="1444" on="1"/>
        <pt x="932" y="1341" on="1"/>
        <pt x="1038" y="1341" on="1"/>
        <pt x="1038" y="1206" on="1"/>
      </contour>
      <contour>
        <pt x="780" y="545" on="1"/>
        <pt x="777" y="628" on="0"/>
        <pt x="744" y="757" on="0"/>
        <pt x="694" y="853" on="0"/>
        <pt x="630" y="918" on="0"/>
        <pt x="564" y="958" on="0"/>
        <pt x="498" y="975" on="0"/>
        <pt x="471" y="975" on="1"/>
        <pt x="400" y="975" on="0"/>
        <pt x="298" y="911" on="0"/>
        <pt x="232" y="795" on="0"/>
        <pt x="201" y="633" on="0"/>
        <pt x="201" y="535" on="1"/>
        <pt x="201" y="419" on="0"/>
        <pt x="262" y="258" on="0"/>
        <pt x="353" y="159" on="0"/>
        <pt x="460" y="115" on="0"/>
        <pt x="506" y="115" on="1"/>
        <pt x="556" y="115" on="0"/>
        <pt x="654" y="164" on="0"/>
        <pt x="732" y="269" on="0"/>
        <pt x="780" y="431" on="0"/>
      </contour>
    </TTGlyph>
    <TTGlyph name="degree" xMin="47" yMin="1004" xMax="414" yMax="1362">
      <contour>
        <pt x="152" y="1182" on="1"/>
        <pt x="152" y="1150" on="0"/>
        <pt x="197" y="1104" on="0"/>
        <pt x="229" y="1104" on="1"/>
        <pt x="261" y="1104" on="0"/>
        <pt x="307" y="1150" on="0"/>
        <pt x="307" y="1182" on="1"/>
        <pt x="307" y="1214" on="0"/>
        <pt x="261" y="1260" on="0"/>
        <pt x="229" y="1260" on="1"/>
        <pt x="197" y="1260" on="0"/>
        <pt x="152" y="1214" on="0"/>
      </contour>
      <contour>
        <pt x="47" y="1182" on="1"/>
        <pt x="47" y="1219" on="0"/>
        <pt x="76" y="1284" on="0"/>
        <pt x="126" y="1333" on="0"/>
        <pt x="192" y="1362" on="0"/>
        <pt x="229" y="1362" on="1"/>
        <pt x="267" y="1362" on="0"/>
        <pt x="334" y="1333" on="0"/>
        <pt x="385" y="1284" on="0"/>
        <pt x="414" y="1219" on="0"/>
        <pt x="414" y="1182" on="1"/>
        <pt x="414" y="1145" on="0"/>
        <pt x="385" y="1080" on="0"/>
        <pt x="334" y="1032" on="0"/>
        <pt x="267" y="1004" on="0"/>
        <pt x="229" y="1004" on="1"/>
        <pt x="192" y="1004" on="0"/>
        <pt x="126" y="1032" on="0"/>
        <pt x="76" y="1080" on="0"/>
        <pt x="47" y="1145" on="0"/>
      </contour>
    </TTGlyph>
    <TTGlyph name="dieresis" xMin="0" yMin="1157" xMax="504" yMax="1356">
      <contour>
        <pt x="504" y="1257" on="1"/>
        <pt x="504" y="1236" on="0"/>
        <pt x="488" y="1199" on="0"/>
        <pt x="461" y="1172" on="0"/>
        <pt x="426" y="1157" on="0"/>
        <pt x="406" y="1157" on="1"/>
        <pt x="386" y="1157" on="0"/>
        <pt x="350" y="1172" on="0"/>
        <pt x="323" y="1199" on="0"/>
        <pt x="307" y="1236" on="0"/>
        <pt x="307" y="1257" on="1"/>
        <pt x="307" y="1277" on="0"/>
        <pt x="323" y="1313" on="0"/>
        <pt x="350" y="1340" on="0"/>
        <pt x="386" y="1356" on="0"/>
        <pt x="406" y="1356" on="1"/>
        <pt x="426" y="1356" on="0"/>
        <pt x="461" y="1340" on="0"/>
        <pt x="488" y="1313" on="0"/>
        <pt x="504" y="1277" on="0"/>
      </contour>
      <contour>
        <pt x="195" y="1257" on="1"/>
        <pt x="195" y="1214" on="0"/>
        <pt x="138" y="1157" on="0"/>
        <pt x="96" y="1157" on="1"/>
        <pt x="56" y="1157" on="0"/>
        <pt x="0" y="1214" on="0"/>
        <pt x="0" y="1257" on="1"/>
        <pt x="0" y="1277" on="0"/>
        <pt x="15" y="1313" on="0"/>
        <pt x="41" y="1340" on="0"/>
        <pt x="76" y="1356" on="0"/>
        <pt x="96" y="1356" on="1"/>
        <pt x="117" y="1356" on="0"/>
        <pt x="153" y="1340" on="0"/>
        <pt x="180" y="1313" on="0"/>
        <pt x="195" y="1277" on="0"/>
      </contour>
    </TTGlyph>
    <TTGlyph name="divide" xMin="84" yMin="342" xMax="735" yMax="940">
      <contour>
        <pt x="485" y="426" on="1"/>
        <pt x="485" y="392" on="0"/>
        <pt x="435" y="342" on="0"/>
        <pt x="401" y="342" on="1"/>
        <pt x="367" y="342" on="0"/>
        <pt x="317" y="392" on="0"/>
        <pt x="317" y="426" on="1"/>
        <pt x="317" y="444" on="0"/>
        <pt x="331" y="474" on="0"/>
        <pt x="354" y="497" on="0"/>
        <pt x="384" y="510" on="0"/>
        <pt x="401" y="510" on="1"/>
        <pt x="418" y="510" on="0"/>
        <pt x="448" y="497" on="0"/>
        <pt x="471" y="474" on="0"/>
        <pt x="485" y="444" on="0"/>
      </contour>
      <contour>
        <pt x="506" y="856" on="1"/>
        <pt x="506" y="822" on="0"/>
        <pt x="456" y="772" on="0"/>
        <pt x="422" y="772" on="1"/>
        <pt x="388" y="772" on="0"/>
        <pt x="338" y="822" on="0"/>
        <pt x="338" y="856" on="1"/>
        <pt x="338" y="874" on="0"/>
        <pt x="352" y="904" on="0"/>
        <pt x="375" y="927" on="0"/>
        <pt x="405" y="940" on="0"/>
        <pt x="422" y="940" on="1"/>
        <pt x="439" y="940" on="0"/>
        <pt x="469" y="927" on="0"/>
        <pt x="492" y="904" on="0"/>
        <pt x="506" y="874" on="0"/>
      </contour>
      <contour>
        <pt x="84" y="567" on="1"/>
        <pt x="84" y="717" on="1"/>
        <pt x="735" y="717" on="1"/>
        <pt x="735" y="567" on="1"/>
      </contour>
    </TTGlyph>
    <TTGlyph name="dollar" xMin="59" yMin="61" xMax="637" yMax="1372">
      <contour>
        <pt x="487" y="782" on="1"/>
        <pt x="487" y="819" on="1"/>
        <pt x="487" y="853" on="0"/>
        <pt x="468" y="912" on="0"/>
        <pt x="433" y="957" on="0"/>
        <pt x="383" y="983" on="0"/>
        <pt x="352" y="983" on="1"/>
        <pt x="283" y="983" on="0"/>
        <pt x="199" y="914" on="0"/>
        <pt x="199" y="848" on="1"/>
        <pt x="199" y="829" on="0"/>
        <pt x="219" y="789" on="0"/>
        <pt x="258" y="753" on="0"/>
        <pt x="315" y="726" on="0"/>
        <pt x="352" y="719" on="1"/>
        <pt x="427" y="705" on="0"/>
        <pt x="525" y="653" on="0"/>
        <pt x="582" y="590" on="0"/>
        <pt x="604" y="523" on="0"/>
        <pt x="604" y="494" on="1"/>
        <pt x="604" y="466" on="0"/>
        <pt x="584" y="389" on="0"/>
        <pt x="525" y="318" on="0"/>
        <pt x="417" y="268" on="0"/>
        <pt x="330" y="268" on="1"/>
        <pt x="325" y="268" on="0"/>
        <pt x="285" y="271" on="0"/>
        <pt x="230" y="288" on="0"/>
        <pt x="167" y="322" on="0"/>
        <pt x="110" y="383" on="0"/>
        <pt x="67" y="476" on="0"/>
        <pt x="59" y="543" on="1"/>
        <pt x="197" y="551" on="1"/>
        <pt x="204" y="489" on="0"/>
        <pt x="250" y="423" on="0"/>
        <pt x="302" y="392" on="0"/>
        <pt x="345" y="387" on="0"/>
        <pt x="350" y="387" on="1"/>
        <pt x="377" y="388" on="0"/>
        <pt x="422" y="406" on="0"/>
        <pt x="453" y="433" on="0"/>
        <pt x="471" y="467" on="0"/>
        <pt x="471" y="485" on="1"/>
        <pt x="471" y="516" on="0"/>
        <pt x="406" y="572" on="0"/>
        <pt x="322" y="592" on="1"/>
        <pt x="248" y="609" on="0"/>
        <pt x="147" y="671" on="0"/>
        <pt x="86" y="743" on="0"/>
        <pt x="59" y="818" on="0"/>
        <pt x="59" y="848" on="1"/>
        <pt x="59" y="892" on="0"/>
        <pt x="89" y="985" on="0"/>
        <pt x="159" y="1062" on="0"/>
        <pt x="272" y="1112" on="0"/>
        <pt x="356" y="1112" on="1"/>
        <pt x="434" y="1107" on="0"/>
        <pt x="496" y="1076" on="1"/>
        <pt x="522" y="1063" on="0"/>
        <pt x="573" y="1022" on="0"/>
        <pt x="613" y="964" on="0"/>
        <pt x="637" y="885" on="0"/>
        <pt x="637" y="834" on="1"/>
        <pt x="637" y="827" on="0"/>
        <pt x="633" y="795" on="0"/>
        <pt x="631" y="776" on="1"/>
      </contour>
      <contour>
        <pt x="387" y="1030" on="1"/>
        <pt x="262" y="1030" on="1"/>
        <pt x="262" y="1372" on="1"/>
        <pt x="401" y="1372" on="1"/>
      </contour>
      <contour>
        <pt x="276" y="61" on="1"/>
        <pt x="276" y="356" on="1"/>
        <pt x="391" y="356" on="1"/>
        <pt x="391" y="61" on="1"/>
      </contour>
    </TTGlyph>
    <TTGlyph name="dotaccent" xMin="0" yMin="1176" xMax="199" yMax="1374">
      <contour>
        <pt x="199" y="1276" on="1"/>
        <pt x="199" y="1255" on="0"/>
        <pt x="183" y="1219" on="0"/>
        <pt x="155" y="1192" on="0"/>
        <pt x="118" y="1176" on="0"/>
        <pt x="98" y="1176" on="1"/>
        <pt x="78" y="1176" on="0"/>
        <pt x="43" y="1192" on="0"/>
        <pt x="16" y="1219" on="0"/>
        <pt x="0" y="1255" on="0"/>
        <pt x="0" y="1276" on="1"/>
        <pt x="0" y="1296" on="0"/>
        <pt x="16" y="1331" on="0"/>
        <pt x="43" y="1358" on="0"/>
        <pt x="78" y="1374" on="0"/>
        <pt x="98" y="1374" on="1"/>
        <pt x="118" y="1374" on="0"/>
        <pt x="155" y="1358" on="0"/>
        <pt x="183" y="1331" on="0"/>
        <pt x="199" y="1296" on="0"/>
      </contour>
    </TTGlyph>
    <TTGlyph name="dotlessi" xMin="111" yMin="25" xMax="279" yMax="1036">
      <contour>
        <pt x="279" y="1024" on="1"/>
        <pt x="279" y="25" on="1"/>
        <pt x="111" y="25" on="1"/>
        <pt x="111" y="1036" on="1"/>
      </contour>
    </TTGlyph>
    <TTGlyph name="dotlessj" xMin="-96" yMin="-438" xMax="274" yMax="1047">
      <contour>
        <pt x="272" y="0" on="1"/>
        <pt x="272" y="-118" on="0"/>
        <pt x="216" y="-273" on="0"/>
        <pt x="124" y="-371" on="0"/>
        <pt x="3" y="-423" on="0"/>
        <pt x="-61" y="-438" on="1"/>
        <pt x="-96" y="-281" on="1"/>
        <pt x="-41" y="-281" on="0"/>
        <pt x="35" y="-240" on="0"/>
        <pt x="84" y="-177" on="0"/>
        <pt x="111" y="-104" on="0"/>
        <pt x="123" y="-40" on="0"/>
        <pt x="125" y="4" on="0"/>
        <pt x="125" y="6" on="1"/>
        <pt x="125" y="89" on="0"/>
        <pt x="121" y="230" on="1"/>
        <pt x="118" y="350" on="0"/>
        <pt x="104" y="743" on="0"/>
        <pt x="92" y="1032" on="1"/>
        <pt x="266" y="1047" on="1"/>
        <pt x="270" y="776" on="0"/>
        <pt x="274" y="392" on="0"/>
        <pt x="274" y="268" on="1"/>
        <pt x="274" y="196" on="0"/>
        <pt x="273" y="95" on="0"/>
        <pt x="273" y="63" on="1"/>
        <pt x="272" y="25" on="0"/>
      </contour>
    </TTGlyph>
    <TTGlyph name="e" xMin="53" yMin="-8" xMax="934" yMax="1128">
      <contour>
        <pt x="207" y="588" on="1"/>
        <pt x="205" y="577" on="0"/>
        <pt x="207" y="556" on="0"/>
        <pt x="207" y="545" on="1"/>
        <pt x="207" y="445" on="0"/>
        <pt x="247" y="308" on="0"/>
        <pt x="308" y="218" on="0"/>
        <pt x="381" y="170" on="0"/>
        <pt x="445" y="147" on="0"/>
        <pt x="491" y="143" on="0"/>
        <pt x="496" y="143" on="1"/>
        <pt x="495" y="143" on="0"/>
        <pt x="525" y="146" on="0"/>
        <pt x="574" y="159" on="0"/>
        <pt x="636" y="187" on="0"/>
        <pt x="697" y="238" on="0"/>
        <pt x="751" y="315" on="0"/>
        <pt x="768" y="371" on="1"/>
        <pt x="891" y="336" on="1"/>
        <pt x="876" y="274" on="0"/>
        <pt x="826" y="178" on="0"/>
        <pt x="765" y="106" on="0"/>
        <pt x="696" y="55" on="0"/>
        <pt x="663" y="39" on="1"/>
        <pt x="585" y="-1" on="0"/>
        <pt x="496" y="-8" on="1"/>
        <pt x="408" y="-8" on="0"/>
        <pt x="273" y="45" on="0"/>
        <pt x="175" y="135" on="0"/>
        <pt x="109" y="251" on="0"/>
        <pt x="70" y="378" on="0"/>
        <pt x="53" y="505" on="0"/>
        <pt x="53" y="561" on="1"/>
        <pt x="53" y="613" on="0"/>
        <pt x="65" y="737" on="0"/>
        <pt x="99" y="863" on="0"/>
        <pt x="161" y="981" on="0"/>
        <pt x="261" y="1073" on="0"/>
        <pt x="404" y="1128" on="0"/>
        <pt x="502" y="1128" on="1"/>
        <pt x="519" y="1128" on="0"/>
        <pt x="596" y="1121" on="0"/>
        <pt x="692" y="1088" on="0"/>
        <pt x="794" y="1021" on="0"/>
        <pt x="879" y="901" on="0"/>
        <pt x="934" y="719" on="0"/>
        <pt x="934" y="588" on="1"/>
      </contour>
      <contour>
        <pt x="496" y="975" on="1"/>
        <pt x="427" y="970" on="0"/>
        <pt x="369" y="942" on="1"/>
        <pt x="344" y="930" on="0"/>
        <pt x="295" y="893" on="0"/>
        <pt x="253" y="840" on="0"/>
        <pt x="221" y="768" on="0"/>
        <pt x="215" y="721" on="1"/>
        <pt x="764" y="721" on="1"/>
        <pt x="758" y="780" on="0"/>
        <pt x="706" y="874" on="0"/>
        <pt x="631" y="940" on="0"/>
        <pt x="540" y="975" on="0"/>
      </contour>
    </TTGlyph>
    <TTGlyph name="eacute" xMin="53" yMin="-8" xMax="934" yMax="1538">
      <component glyphName="e" x="0" y="0" flags="0x204"/>
      <component glyphName="acute" x="479" y="51" flags="0x4"/>
    </TTGlyph>
    <TTGlyph name="ebreve" xMin="53" yMin="-8" xMax="934" yMax="1425">
      <component glyphName="e" x="0" y="0" flags="0x204"/>
      <component glyphName="breve" x="283" y="20" flags="0x4"/>
    </TTGlyph>
    <TTGlyph name="ecaron" xMin="53" yMin="-8" xMax="934" yMax="1547">
      <component glyphName="e" x="0" y="0" flags="0x204"/>
      <component glyphName="caron" x="281" y="66" flags="0x4"/>
    </TTGlyph>
    <TTGlyph name="ecircumflex" xMin="53" yMin="-8" xMax="934" yMax="1534">
      <component glyphName="e" x="0" y="0" flags="0x204"/>
      <component glyphName="circumflex" x="287" y="53" flags="0x4"/>
    </TTGlyph>
    <TTGlyph name="edieresis" xMin="53" yMin="-8" xMax="934" yMax="1399">
      <component glyphName="e" x="0" y="0" flags="0x204"/>
      <component glyphName="dieresis" x="242" y="43" flags="0x4"/>
    </TTGlyph>
    <TTGlyph name="edotaccent" xMin="53" yMin="-8" xMax="934" yMax="1390">
      <component glyphName="e" x="0" y="0" flags="0x204"/>
      <component glyphName="dotaccent" x="387" y="16" flags="0x4"/>
    </TTGlyph>
    <TTGlyph name="egrave" xMin="53" yMin="-8" xMax="934" yMax="1523">
      <component glyphName="e" x="0" y="0" flags="0x204"/>
      <component glyphName="grave" x="125" y="53" flags="0x4"/>
    </TTGlyph>
    <TTGlyph name="eight" xMin="57" yMin="-41" xMax="903" yMax="1487">
      <contour>
        <pt x="903" y="444" on="1"/>
        <pt x="903" y="352" on="0"/>
        <pt x="861" y="209" on="0"/>
        <pt x="791" y="101" on="0"/>
        <pt x="702" y="26" on="0"/>
        <pt x="608" y="-20" on="0"/>
        <pt x="516" y="-41" on="0"/>
        <pt x="479" y="-41" on="1"/>
        <pt x="440" y="-41" on="0"/>
        <pt x="348" y="-28" on="0"/>
        <pt x="254" y="9" on="0"/>
        <pt x="166" y="78" on="0"/>
        <pt x="98" y="190" on="0"/>
        <pt x="57" y="351" on="0"/>
        <pt x="57" y="463" on="1"/>
        <pt x="57" y="476" on="0"/>
        <pt x="62" y="543" on="0"/>
        <pt x="82" y="630" on="0"/>
        <pt x="124" y="726" on="0"/>
        <pt x="197" y="808" on="0"/>
        <pt x="308" y="865" on="0"/>
        <pt x="387" y="870" on="1"/>
        <pt x="391" y="813" on="1"/>
        <pt x="341" y="815" on="0"/>
        <pt x="265" y="846" on="0"/>
        <pt x="209" y="895" on="0"/>
        <pt x="170" y="956" on="0"/>
        <pt x="157" y="988" on="1"/>
        <pt x="127" y="1062" on="0"/>
        <pt x="123" y="1155" on="1"/>
        <pt x="123" y="1238" on="0"/>
        <pt x="185" y="1362" on="0"/>
        <pt x="284" y="1445" on="0"/>
        <pt x="407" y="1487" on="0"/>
        <pt x="467" y="1487" on="1"/>
        <pt x="537" y="1487" on="0"/>
        <pt x="658" y="1433" on="0"/>
        <pt x="748" y="1338" on="0"/>
        <pt x="799" y="1209" on="0"/>
        <pt x="799" y="1135" on="1"/>
        <pt x="790" y="1059" on="0"/>
        <pt x="763" y="992" on="1"/>
        <pt x="751" y="963" on="0"/>
        <pt x="717" y="905" on="0"/>
        <pt x="671" y="852" on="0"/>
        <pt x="610" y="810" on="0"/>
        <pt x="571" y="797" on="1"/>
        <pt x="580" y="860" on="1"/>
        <pt x="639" y="851" on="0"/>
        <pt x="730" y="805" on="0"/>
        <pt x="798" y="744" on="0"/>
        <pt x="845" y="671" on="0"/>
        <pt x="860" y="634" on="1"/>
        <pt x="896" y="548" on="0"/>
      </contour>
      <contour>
        <pt x="631" y="1130" on="1"/>
        <pt x="631" y="1192" on="0"/>
        <pt x="602" y="1284" on="0"/>
        <pt x="554" y="1344" on="0"/>
        <pt x="494" y="1374" on="0"/>
        <pt x="463" y="1374" on="1"/>
        <pt x="432" y="1374" on="0"/>
        <pt x="372" y="1349" on="0"/>
        <pt x="324" y="1291" on="0"/>
        <pt x="295" y="1198" on="0"/>
        <pt x="295" y="1130" on="1"/>
        <pt x="295" y="1076" on="0"/>
        <pt x="324" y="987" on="0"/>
        <pt x="372" y="923" on="0"/>
        <pt x="432" y="887" on="0"/>
        <pt x="463" y="887" on="1"/>
        <pt x="494" y="887" on="0"/>
        <pt x="554" y="920" on="0"/>
        <pt x="602" y="982" on="0"/>
        <pt x="631" y="1073" on="0"/>
      </contour>
      <contour>
        <pt x="711" y="412" on="1"/>
        <pt x="711" y="526" on="0"/>
        <pt x="669" y="665" on="0"/>
        <pt x="602" y="741" on="0"/>
        <pt x="520" y="766" on="0"/>
        <pt x="481" y="766" on="1"/>
        <pt x="442" y="766" on="0"/>
        <pt x="358" y="738" on="0"/>
        <pt x="287" y="660" on="0"/>
        <pt x="242" y="522" on="0"/>
        <pt x="242" y="412" on="1"/>
        <pt x="242" y="324" on="0"/>
        <pt x="287" y="192" on="0"/>
        <pt x="358" y="103" on="0"/>
        <pt x="442" y="59" on="0"/>
        <pt x="481" y="59" on="1"/>
        <pt x="520" y="59" on="0"/>
        <pt x="602" y="95" on="0"/>
        <pt x="669" y="177" on="0"/>
        <pt x="711" y="313" on="0"/>
      </contour>
    </TTGlyph>
    <TTGlyph name="ellipsis" xMin="59" yMin="6" xMax="821" yMax="180">
      <contour>
        <pt x="236" y="94" on="1"/>
        <pt x="236" y="76" on="0"/>
        <pt x="222" y="44" on="0"/>
        <pt x="197" y="20" on="0"/>
        <pt x="165" y="6" on="0"/>
        <pt x="147" y="6" on="1"/>
        <pt x="110" y="6" on="0"/>
        <pt x="59" y="57" on="0"/>
        <pt x="59" y="94" on="1"/>
        <pt x="59" y="112" on="0"/>
        <pt x="73" y="143" on="0"/>
        <pt x="97" y="166" on="0"/>
        <pt x="129" y="180" on="0"/>
        <pt x="147" y="180" on="1"/>
        <pt x="165" y="180" on="0"/>
        <pt x="197" y="166" on="0"/>
        <pt x="222" y="143" on="0"/>
        <pt x="236" y="112" on="0"/>
      </contour>
      <contour>
        <pt x="528" y="94" on="1"/>
        <pt x="528" y="76" on="0"/>
        <pt x="514" y="44" on="0"/>
        <pt x="490" y="20" on="0"/>
        <pt x="458" y="6" on="0"/>
        <pt x="440" y="6" on="1"/>
        <pt x="403" y="6" on="0"/>
        <pt x="352" y="57" on="0"/>
        <pt x="352" y="94" on="1"/>
        <pt x="352" y="112" on="0"/>
        <pt x="366" y="143" on="0"/>
        <pt x="390" y="166" on="0"/>
        <pt x="422" y="180" on="0"/>
        <pt x="440" y="180" on="1"/>
        <pt x="458" y="180" on="0"/>
        <pt x="490" y="166" on="0"/>
        <pt x="514" y="143" on="0"/>
        <pt x="528" y="112" on="0"/>
      </contour>
      <contour>
        <pt x="821" y="94" on="1"/>
        <pt x="821" y="76" on="0"/>
        <pt x="807" y="44" on="0"/>
        <pt x="783" y="20" on="0"/>
        <pt x="751" y="6" on="0"/>
        <pt x="733" y="6" on="1"/>
        <pt x="696" y="6" on="0"/>
        <pt x="645" y="57" on="0"/>
        <pt x="645" y="94" on="1"/>
        <pt x="645" y="112" on="0"/>
        <pt x="659" y="143" on="0"/>
        <pt x="683" y="166" on="0"/>
        <pt x="715" y="180" on="0"/>
        <pt x="733" y="180" on="1"/>
        <pt x="751" y="180" on="0"/>
        <pt x="783" y="166" on="0"/>
        <pt x="807" y="143" on="0"/>
        <pt x="821" y="112" on="0"/>
      </contour>
    </TTGlyph>
    <TTGlyph name="emacron" xMin="53" yMin="-8" xMax="934" yMax="1328">
      <component glyphName="e" x="0" y="0" flags="0x204"/>
      <component glyphName="macron" x="289" y="23" flags="0x4"/>
    </TTGlyph>
    <TTGlyph name="emdash" xMin="94" yMin="567" xMax="1321" yMax="717">
      <contour>
        <pt x="94" y="567" on="1"/>
        <pt x="94" y="717" on="1"/>
        <pt x="1321" y="717" on="1"/>
        <pt x="1321" y="567" on="1"/>
      </contour>
    </TTGlyph>
    <TTGlyph name="endash" xMin="94" yMin="567" xMax="913" yMax="717">
      <contour>
        <pt x="94" y="567" on="1"/>
        <pt x="94" y="717" on="1"/>
        <pt x="913" y="717" on="1"/>
        <pt x="913" y="567" on="1"/>
      </contour>
    </TTGlyph>
    <TTGlyph name="eng" xMin="88" yMin="-438" xMax="860" yMax="1059">
      <contour>
        <pt x="801" y="813" on="1"/>
        <pt x="813" y="704" on="0"/>
        <pt x="835" y="506" on="0"/>
        <pt x="851" y="311" on="0"/>
        <pt x="860" y="111" on="0"/>
        <pt x="860" y="0" on="1"/>
        <pt x="860" y="-118" on="0"/>
        <pt x="804" y="-273" on="0"/>
        <pt x="711" y="-371" on="0"/>
        <pt x="590" y="-423" on="0"/>
        <pt x="526" y="-438" on="1"/>
        <pt x="492" y="-281" on="1"/>
        <pt x="547" y="-281" on="0"/>
        <pt x="623" y="-240" on="0"/>
        <pt x="672" y="-177" on="0"/>
        <pt x="699" y="-104" on="0"/>
        <pt x="711" y="-40" on="0"/>
        <pt x="713" y="4" on="0"/>
        <pt x="713" y="6" on="1"/>
        <pt x="713" y="143" on="0"/>
        <pt x="701" y="384" on="0"/>
        <pt x="687" y="561" on="0"/>
        <pt x="678" y="660" on="0"/>
        <pt x="680" y="655" on="1"/>
        <pt x="672" y="776" on="0"/>
        <pt x="627" y="899" on="0"/>
        <pt x="592" y="899" on="1"/>
        <pt x="557" y="899" on="0"/>
        <pt x="485" y="811" on="0"/>
        <pt x="415" y="665" on="0"/>
        <pt x="352" y="478" on="0"/>
        <pt x="299" y="280" on="0"/>
        <pt x="260" y="86" on="0"/>
        <pt x="250" y="8" on="1"/>
        <pt x="113" y="4" on="1"/>
        <pt x="119" y="170" on="0"/>
        <pt x="119" y="319" on="1"/>
        <pt x="119" y="475" on="0"/>
        <pt x="109" y="734" on="0"/>
        <pt x="103" y="828" on="1"/>
        <pt x="96" y="938" on="0"/>
        <pt x="88" y="1026" on="1"/>
        <pt x="281" y="1018" on="1"/>
        <pt x="281" y="616" on="1"/>
        <pt x="304" y="682" on="0"/>
        <pt x="340" y="772" on="0"/>
        <pt x="352" y="800" on="1"/>
        <pt x="366" y="833" on="0"/>
        <pt x="375" y="852" on="1"/>
        <pt x="401" y="901" on="0"/>
        <pt x="463" y="978" on="0"/>
        <pt x="530" y="1031" on="0"/>
        <pt x="599" y="1059" on="0"/>
        <pt x="631" y="1059" on="1"/>
        <pt x="663" y="1059" on="0"/>
        <pt x="719" y="1031" on="0"/>
        <pt x="762" y="971" on="0"/>
        <pt x="793" y="878" on="0"/>
      </contour>
    </TTGlyph>
    <TTGlyph name="eogonek" xMin="53" yMin="-227" xMax="934" yMax="1128">
      <contour>
        <pt x="729" y="-178" on="1"/>
        <pt x="698" y="-200" on="0"/>
        <pt x="633" y="-227" on="0"/>
        <pt x="598" y="-227" on="1"/>
        <pt x="574" y="-227" on="0"/>
        <pt x="530" y="-214" on="0"/>
        <pt x="496" y="-190" on="0"/>
        <pt x="475" y="-153" on="0"/>
        <pt x="475" y="-129" on="1"/>
        <pt x="475" y="-97" on="0"/>
        <pt x="508" y="-32" on="0"/>
        <pt x="532" y="-4" on="1"/>
        <pt x="524" y="-6" on="0"/>
        <pt x="511" y="-8" on="0"/>
        <pt x="506" y="-8" on="1"/>
        <pt x="501" y="-9" on="0"/>
        <pt x="496" y="-8" on="1"/>
        <pt x="408" y="-8" on="0"/>
        <pt x="273" y="45" on="0"/>
        <pt x="175" y="135" on="0"/>
        <pt x="109" y="251" on="0"/>
        <pt x="70" y="378" on="0"/>
        <pt x="53" y="505" on="0"/>
        <pt x="53" y="561" on="1"/>
        <pt x="53" y="613" on="0"/>
        <pt x="65" y="737" on="0"/>
        <pt x="99" y="863" on="0"/>
        <pt x="161" y="981" on="0"/>
        <pt x="261" y="1073" on="0"/>
        <pt x="404" y="1128" on="0"/>
        <pt x="502" y="1128" on="1"/>
        <pt x="519" y="1128" on="0"/>
        <pt x="596" y="1121" on="0"/>
        <pt x="692" y="1088" on="0"/>
        <pt x="794" y="1021" on="0"/>
        <pt x="879" y="901" on="0"/>
        <pt x="934" y="719" on="0"/>
        <pt x="934" y="588" on="1"/>
        <pt x="207" y="588" on="1"/>
        <pt x="205" y="577" on="0"/>
        <pt x="207" y="556" on="0"/>
        <pt x="207" y="545" on="1"/>
        <pt x="207" y="445" on="0"/>
        <pt x="247" y="308" on="0"/>
        <pt x="308" y="218" on="0"/>
        <pt x="381" y="170" on="0"/>
        <pt x="445" y="147" on="0"/>
        <pt x="491" y="143" on="0"/>
        <pt x="496" y="143" on="1"/>
        <pt x="495" y="143" on="0"/>
        <pt x="525" y="146" on="0"/>
        <pt x="574" y="159" on="0"/>
        <pt x="636" y="187" on="0"/>
        <pt x="697" y="238" on="0"/>
        <pt x="751" y="315" on="0"/>
        <pt x="768" y="371" on="1"/>
        <pt x="891" y="336" on="1"/>
        <pt x="874" y="265" on="0"/>
        <pt x="815" y="161" on="0"/>
        <pt x="743" y="87" on="0"/>
        <pt x="665" y="39" on="0"/>
        <pt x="629" y="25" on="1"/>
        <pt x="618" y="12" on="0"/>
        <pt x="596" y="-18" on="0"/>
        <pt x="578" y="-50" on="0"/>
        <pt x="567" y="-81" on="0"/>
        <pt x="567" y="-96" on="1"/>
        <pt x="567" y="-112" on="0"/>
        <pt x="587" y="-135" on="0"/>
        <pt x="602" y="-135" on="1"/>
        <pt x="621" y="-135" on="0"/>
        <pt x="656" y="-115" on="0"/>
        <pt x="670" y="-102" on="1"/>
      </contour>
      <contour>
        <pt x="496" y="975" on="1"/>
        <pt x="427" y="970" on="0"/>
        <pt x="369" y="942" on="1"/>
        <pt x="344" y="930" on="0"/>
        <pt x="295" y="893" on="0"/>
        <pt x="253" y="840" on="0"/>
        <pt x="221" y="768" on="0"/>
        <pt x="215" y="721" on="1"/>
        <pt x="764" y="721" on="1"/>
        <pt x="758" y="780" on="0"/>
        <pt x="706" y="874" on="0"/>
        <pt x="631" y="940" on="0"/>
        <pt x="540" y="975" on="0"/>
      </contour>
    </TTGlyph>
    <TTGlyph name="equal" xMin="100" yMin="485" xMax="752" yMax="926">
      <contour>
        <pt x="100" y="776" on="1"/>
        <pt x="100" y="926" on="1"/>
        <pt x="752" y="926" on="1"/>
        <pt x="752" y="801" on="1"/>
      </contour>
      <contour>
        <pt x="100" y="485" on="1"/>
        <pt x="100" y="643" on="1"/>
        <pt x="752" y="643" on="1"/>
        <pt x="752" y="485" on="1"/>
      </contour>
    </TTGlyph>
    <TTGlyph name="eth" xMin="53" yMin="-20" xMax="907" yMax="1559">
      <contour>
        <pt x="705" y="1311" on="1"/>
        <pt x="804" y="1147" on="0"/>
        <pt x="901" y="790" on="0"/>
        <pt x="907" y="594" on="1"/>
        <pt x="907" y="592" on="1"/>
        <pt x="906" y="449" on="0"/>
        <pt x="839" y="222" on="0"/>
        <pt x="723" y="64" on="0"/>
        <pt x="569" y="-20" on="0"/>
        <pt x="481" y="-20" on="1"/>
        <pt x="392" y="-20" on="0"/>
        <pt x="236" y="68" on="0"/>
        <pt x="120" y="230" on="0"/>
        <pt x="53" y="457" on="0"/>
        <pt x="53" y="596" on="1"/>
        <pt x="53" y="715" on="0"/>
        <pt x="112" y="912" on="0"/>
        <pt x="223" y="1054" on="0"/>
        <pt x="382" y="1133" on="0"/>
        <pt x="481" y="1133" on="1"/>
        <pt x="515" y="1133" on="0"/>
        <pt x="576" y="1124" on="0"/>
        <pt x="604" y="1116" on="1"/>
        <pt x="586" y="1147" on="0"/>
        <pt x="545" y="1210" on="0"/>
        <pt x="522" y="1241" on="1"/>
        <pt x="383" y="1190" on="1"/>
        <pt x="338" y="1333" on="1"/>
        <pt x="422" y="1360" on="1"/>
        <pt x="396" y="1386" on="0"/>
        <pt x="338" y="1440" on="0"/>
        <pt x="307" y="1466" on="1"/>
        <pt x="500" y="1559" on="1"/>
        <pt x="516" y="1544" on="0"/>
        <pt x="536" y="1524" on="1"/>
        <pt x="553" y="1507" on="0"/>
        <pt x="599" y="1456" on="0"/>
        <pt x="625" y="1423" on="1"/>
        <pt x="782" y="1473" on="1"/>
        <pt x="819" y="1354" on="1"/>
      </contour>
      <contour>
        <pt x="752" y="594" on="1"/>
        <pt x="752" y="684" on="0"/>
        <pt x="720" y="832" on="0"/>
        <pt x="653" y="939" on="0"/>
        <pt x="551" y="997" on="0"/>
        <pt x="481" y="997" on="1"/>
        <pt x="418" y="997" on="0"/>
        <pt x="317" y="939" on="0"/>
        <pt x="247" y="832" on="0"/>
        <pt x="209" y="684" on="0"/>
        <pt x="209" y="594" on="1"/>
        <pt x="209" y="489" on="0"/>
        <pt x="252" y="319" on="0"/>
        <pt x="325" y="197" on="0"/>
        <pt x="424" y="131" on="0"/>
        <pt x="481" y="131" on="1"/>
        <pt x="537" y="131" on="0"/>
        <pt x="636" y="195" on="0"/>
        <pt x="709" y="315" on="0"/>
        <pt x="752" y="486" on="0"/>
      </contour>
    </TTGlyph>
    <TTGlyph name="exclam" xMin="98" yMin="-80" xMax="305" yMax="1466">
      <contour>
        <pt x="305" y="1466" on="1"/>
        <pt x="296" y="1301" on="0"/>
        <pt x="281" y="980" on="0"/>
        <pt x="270" y="660" on="0"/>
        <pt x="261" y="338" on="0"/>
        <pt x="258" y="172" on="1"/>
        <pt x="139" y="174" on="1"/>
        <pt x="138" y="338" on="0"/>
        <pt x="133" y="654" on="0"/>
        <pt x="124" y="968" on="0"/>
        <pt x="109" y="1284" on="0"/>
        <pt x="98" y="1448" on="1"/>
      </contour>
      <contour>
        <pt x="279" y="4" on="1"/>
        <pt x="279" y="-13" on="0"/>
        <pt x="265" y="-43" on="0"/>
        <pt x="242" y="-66" on="0"/>
        <pt x="211" y="-80" on="0"/>
        <pt x="193" y="-80" on="1"/>
        <pt x="157" y="-80" on="0"/>
        <pt x="109" y="-30" on="0"/>
        <pt x="109" y="4" on="1"/>
        <pt x="109" y="39" on="0"/>
        <pt x="157" y="90" on="0"/>
        <pt x="193" y="90" on="1"/>
        <pt x="211" y="90" on="0"/>
        <pt x="242" y="76" on="0"/>
        <pt x="265" y="53" on="0"/>
        <pt x="279" y="22" on="0"/>
      </contour>
    </TTGlyph>
    <TTGlyph name="exclamdown" xMin="86" yMin="-489" xMax="293" yMax="1057">
      <contour>
        <pt x="86" y="-471" on="1"/>
        <pt x="97" y="-307" on="0"/>
        <pt x="112" y="9" on="0"/>
        <pt x="121" y="323" on="0"/>
        <pt x="126" y="639" on="0"/>
        <pt x="127" y="803" on="1"/>
        <pt x="246" y="805" on="1"/>
        <pt x="249" y="639" on="0"/>
        <pt x="257" y="317" on="0"/>
        <pt x="269" y="-3" on="0"/>
        <pt x="284" y="-324" on="0"/>
        <pt x="293" y="-489" on="1"/>
      </contour>
      <contour>
        <pt x="266" y="973" on="1"/>
        <pt x="266" y="955" on="0"/>
        <pt x="252" y="924" on="0"/>
        <pt x="229" y="901" on="0"/>
        <pt x="198" y="887" on="0"/>
        <pt x="180" y="887" on="1"/>
        <pt x="145" y="887" on="0"/>
        <pt x="96" y="938" on="0"/>
        <pt x="96" y="973" on="1"/>
        <pt x="96" y="990" on="0"/>
        <pt x="109" y="1020" on="0"/>
        <pt x="132" y="1043" on="0"/>
        <pt x="162" y="1057" on="0"/>
        <pt x="180" y="1057" on="1"/>
        <pt x="198" y="1057" on="0"/>
        <pt x="229" y="1043" on="0"/>
        <pt x="252" y="1020" on="0"/>
        <pt x="266" y="990" on="0"/>
      </contour>
    </TTGlyph>
    <TTGlyph name="f" xMin="10" yMin="4" xMax="537" yMax="1468">
      <contour>
        <pt x="532" y="1288" on="1"/>
        <pt x="523" y="1290" on="0"/>
        <pt x="505" y="1292" on="0"/>
        <pt x="496" y="1292" on="1"/>
        <pt x="465" y="1292" on="0"/>
        <pt x="417" y="1270" on="0"/>
        <pt x="381" y="1235" on="0"/>
        <pt x="356" y="1190" on="0"/>
        <pt x="348" y="1167" on="1"/>
        <pt x="328" y="1112" on="0"/>
        <pt x="324" y="1042" on="1"/>
        <pt x="323" y="1039" on="0"/>
        <pt x="323" y="1036" on="1"/>
        <pt x="322" y="1032" on="0"/>
        <pt x="322" y="1022" on="1"/>
        <pt x="522" y="1026" on="1"/>
        <pt x="522" y="870" on="1"/>
        <pt x="317" y="870" on="1"/>
        <pt x="314" y="751" on="0"/>
        <pt x="309" y="327" on="0"/>
        <pt x="309" y="8" on="1"/>
        <pt x="180" y="4" on="1"/>
        <pt x="172" y="320" on="0"/>
        <pt x="168" y="744" on="0"/>
        <pt x="168" y="870" on="1"/>
        <pt x="10" y="870" on="1"/>
        <pt x="10" y="1016" on="1"/>
        <pt x="168" y="1018" on="1"/>
        <pt x="168" y="1075" on="1"/>
        <pt x="168" y="1191" on="0"/>
        <pt x="234" y="1343" on="0"/>
        <pt x="339" y="1432" on="0"/>
        <pt x="471" y="1468" on="0"/>
        <pt x="537" y="1468" on="1"/>
      </contour>
    </TTGlyph>
    <TTGlyph name="fi" xMin="10" yMin="4" xMax="850" yMax="1468">
      <contour>
        <pt x="811" y="1024" on="1"/>
        <pt x="811" y="25" on="1"/>
        <pt x="643" y="25" on="1"/>
        <pt x="643" y="870" on="1"/>
        <pt x="317" y="870" on="1"/>
        <pt x="314" y="751" on="0"/>
        <pt x="309" y="327" on="0"/>
        <pt x="309" y="8" on="1"/>
        <pt x="180" y="4" on="1"/>
        <pt x="172" y="320" on="0"/>
        <pt x="168" y="744" on="0"/>
        <pt x="168" y="870" on="1"/>
        <pt x="10" y="870" on="1"/>
        <pt x="10" y="1016" on="1"/>
        <pt x="168" y="1018" on="1"/>
        <pt x="168" y="1075" on="1"/>
        <pt x="168" y="1191" on="0"/>
        <pt x="234" y="1343" on="0"/>
        <pt x="339" y="1432" on="0"/>
        <pt x="471" y="1468" on="0"/>
        <pt x="537" y="1468" on="1"/>
        <pt x="532" y="1288" on="1"/>
        <pt x="523" y="1290" on="0"/>
        <pt x="505" y="1292" on="0"/>
        <pt x="496" y="1292" on="1"/>
        <pt x="465" y="1292" on="0"/>
        <pt x="417" y="1270" on="0"/>
        <pt x="381" y="1235" on="0"/>
        <pt x="356" y="1190" on="0"/>
        <pt x="348" y="1167" on="1"/>
        <pt x="328" y="1112" on="0"/>
        <pt x="324" y="1042" on="1"/>
        <pt x="324" y="1035" on="1"/>
        <pt x="324" y="1032" on="0"/>
        <pt x="323" y="1023" on="0"/>
        <pt x="322" y="1018" on="1"/>
      </contour>
      <contour>
        <pt x="850" y="1350" on="1"/>
        <pt x="850" y="1325" on="0"/>
        <pt x="831" y="1282" on="0"/>
        <pt x="799" y="1251" on="0"/>
        <pt x="756" y="1233" on="0"/>
        <pt x="731" y="1233" on="1"/>
        <pt x="707" y="1233" on="0"/>
        <pt x="665" y="1251" on="0"/>
        <pt x="633" y="1282" on="0"/>
        <pt x="614" y="1325" on="0"/>
        <pt x="614" y="1350" on="1"/>
        <pt x="614" y="1374" on="0"/>
        <pt x="633" y="1417" on="0"/>
        <pt x="665" y="1448" on="0"/>
        <pt x="707" y="1466" on="0"/>
        <pt x="731" y="1466" on="1"/>
        <pt x="756" y="1466" on="0"/>
        <pt x="799" y="1448" on="0"/>
        <pt x="831" y="1417" on="0"/>
        <pt x="850" y="1374" on="0"/>
      </contour>
    </TTGlyph>
    <TTGlyph name="five" xMin="61" yMin="-59" xMax="811" yMax="1413">
      <contour>
        <pt x="809" y="369" on="1"/>
        <pt x="801" y="235" on="0"/>
        <pt x="723" y="68" on="0"/>
        <pt x="612" y="-26" on="0"/>
        <pt x="482" y="-59" on="0"/>
        <pt x="422" y="-59" on="1"/>
        <pt x="366" y="-59" on="0"/>
        <pt x="240" y="-15" on="0"/>
        <pt x="132" y="93" on="0"/>
        <pt x="61" y="273" on="0"/>
        <pt x="61" y="408" on="1"/>
        <pt x="61" y="439" on="0"/>
        <pt x="65" y="501" on="0"/>
        <pt x="70" y="537" on="1"/>
        <pt x="244" y="543" on="1"/>
        <pt x="239" y="501" on="0"/>
        <pt x="233" y="429" on="0"/>
        <pt x="233" y="397" on="1"/>
        <pt x="233" y="313" on="0"/>
        <pt x="260" y="199" on="0"/>
        <pt x="301" y="124" on="0"/>
        <pt x="350" y="83" on="0"/>
        <pt x="394" y="64" on="0"/>
        <pt x="429" y="61" on="0"/>
        <pt x="434" y="61" on="1"/>
        <pt x="477" y="61" on="0"/>
        <pt x="553" y="114" on="0"/>
        <pt x="609" y="210" on="0"/>
        <pt x="641" y="343" on="0"/>
        <pt x="641" y="424" on="1"/>
        <pt x="641" y="523" on="0"/>
        <pt x="599" y="656" on="0"/>
        <pt x="534" y="736" on="0"/>
        <pt x="455" y="770" on="0"/>
        <pt x="418" y="770" on="1"/>
        <pt x="378" y="768" on="0"/>
        <pt x="338" y="761" on="1"/>
        <pt x="304" y="755" on="0"/>
        <pt x="230" y="729" on="0"/>
        <pt x="203" y="707" on="1"/>
        <pt x="109" y="750" on="1"/>
        <pt x="152" y="1413" on="1"/>
        <pt x="748" y="1413" on="1"/>
        <pt x="748" y="1253" on="1"/>
        <pt x="217" y="1253" on="1"/>
        <pt x="295" y="1319" on="1"/>
        <pt x="238" y="801" on="1"/>
        <pt x="178" y="827" on="1"/>
        <pt x="209" y="853" on="0"/>
        <pt x="291" y="882" on="0"/>
        <pt x="369" y="896" on="0"/>
        <pt x="431" y="899" on="0"/>
        <pt x="442" y="899" on="1"/>
        <pt x="514" y="899" on="0"/>
        <pt x="647" y="840" on="0"/>
        <pt x="749" y="721" on="0"/>
        <pt x="811" y="544" on="0"/>
        <pt x="811" y="426" on="1"/>
        <pt x="811" y="412" on="0"/>
        <pt x="809" y="384" on="0"/>
      </contour>
    </TTGlyph>
    <TTGlyph name="fl" xMin="10" yMin="4" xMax="803" yMax="1468">
      <contour>
        <pt x="803" y="6" on="1"/>
        <pt x="643" y="6" on="1"/>
        <pt x="643" y="1272" on="1"/>
        <pt x="622" y="1279" on="0"/>
        <pt x="573" y="1287" on="0"/>
        <pt x="531" y="1291" on="0"/>
        <pt x="500" y="1292" on="0"/>
        <pt x="496" y="1292" on="1"/>
        <pt x="446" y="1292" on="0"/>
        <pt x="380" y="1238" on="0"/>
        <pt x="341" y="1157" on="0"/>
        <pt x="324" y="1062" on="0"/>
        <pt x="322" y="1022" on="1"/>
        <pt x="522" y="1026" on="1"/>
        <pt x="522" y="870" on="1"/>
        <pt x="317" y="870" on="1"/>
        <pt x="314" y="751" on="0"/>
        <pt x="309" y="327" on="0"/>
        <pt x="309" y="8" on="1"/>
        <pt x="180" y="4" on="1"/>
        <pt x="172" y="320" on="0"/>
        <pt x="168" y="744" on="0"/>
        <pt x="168" y="870" on="1"/>
        <pt x="10" y="870" on="1"/>
        <pt x="10" y="1016" on="1"/>
        <pt x="168" y="1018" on="1"/>
        <pt x="168" y="1075" on="1"/>
        <pt x="168" y="1191" on="0"/>
        <pt x="234" y="1343" on="0"/>
        <pt x="339" y="1432" on="0"/>
        <pt x="471" y="1468" on="0"/>
        <pt x="537" y="1468" on="1"/>
        <pt x="597" y="1468" on="0"/>
        <pt x="695" y="1450" on="0"/>
        <pt x="730" y="1439" on="1"/>
        <pt x="770" y="1427" on="0"/>
        <pt x="803" y="1411" on="1"/>
      </contour>
    </TTGlyph>
    <TTGlyph name="florin" xMin="-16" yMin="-438" xMax="571" yMax="1468">
      <contour>
        <pt x="557" y="1026" on="1"/>
        <pt x="557" y="870" on="1"/>
        <pt x="45" y="870" on="1"/>
        <pt x="45" y="1016" on="1"/>
      </contour>
      <contour>
        <pt x="356" y="0" on="1"/>
        <pt x="356" y="-118" on="0"/>
        <pt x="299" y="-273" on="0"/>
        <pt x="204" y="-371" on="0"/>
        <pt x="82" y="-423" on="0"/>
        <pt x="18" y="-438" on="1"/>
        <pt x="-16" y="-281" on="1"/>
        <pt x="39" y="-281" on="0"/>
        <pt x="115" y="-240" on="0"/>
        <pt x="164" y="-177" on="0"/>
        <pt x="191" y="-104" on="0"/>
        <pt x="203" y="-40" on="0"/>
        <pt x="205" y="4" on="0"/>
        <pt x="205" y="6" on="1"/>
        <pt x="205" y="105" on="0"/>
        <pt x="205" y="303" on="0"/>
        <pt x="204" y="490" on="0"/>
        <pt x="204" y="663" on="0"/>
        <pt x="204" y="738" on="1"/>
        <pt x="203" y="914" on="0"/>
        <pt x="203" y="1071" on="1"/>
        <pt x="203" y="1065" on="1"/>
        <pt x="203" y="1184" on="0"/>
        <pt x="267" y="1340" on="0"/>
        <pt x="371" y="1431" on="0"/>
        <pt x="503" y="1468" on="0"/>
        <pt x="571" y="1468" on="1"/>
        <pt x="567" y="1288" on="1"/>
        <pt x="558" y="1290" on="0"/>
        <pt x="540" y="1292" on="0"/>
        <pt x="530" y="1292" on="1"/>
        <pt x="499" y="1292" on="0"/>
        <pt x="452" y="1270" on="0"/>
        <pt x="417" y="1235" on="0"/>
        <pt x="392" y="1190" on="0"/>
        <pt x="383" y="1167" on="1"/>
        <pt x="363" y="1112" on="0"/>
        <pt x="358" y="1042" on="1"/>
        <pt x="358" y="903" on="0"/>
        <pt x="358" y="641" on="0"/>
        <pt x="358" y="386" on="0"/>
        <pt x="357" y="131" on="0"/>
      </contour>
    </TTGlyph>
    <TTGlyph name="four" xMin="37" yMin="-10" xMax="791" yMax="1503">
      <contour>
        <pt x="791" y="563" on="1"/>
        <pt x="37" y="563" on="1"/>
        <pt x="180" y="1403" on="1"/>
        <pt x="365" y="1386" on="1"/>
        <pt x="193" y="618" on="1"/>
        <pt x="162" y="700" on="1"/>
        <pt x="791" y="700" on="1"/>
      </contour>
      <contour>
        <pt x="737" y="1503" on="1"/>
        <pt x="737" y="-10" on="1"/>
        <pt x="547" y="-10" on="1"/>
        <pt x="547" y="1503" on="1"/>
      </contour>
    </TTGlyph>
    <TTGlyph name="fraction" xMin="14" yMin="135" xMax="659" yMax="1331">
      <contour>
        <pt x="123" y="135" on="1"/>
        <pt x="14" y="152" on="1"/>
        <pt x="541" y="1331" on="1"/>
        <pt x="659" y="1292" on="1"/>
      </contour>
    </TTGlyph>
    <TTGlyph name="g" xMin="57" yMin="-637" xMax="954" yMax="1341">
      <contour>
        <pt x="778" y="1014" on="1"/>
        <pt x="822" y="969" on="0"/>
        <pt x="878" y="858" on="0"/>
        <pt x="910" y="740" on="0"/>
        <pt x="922" y="622" on="0"/>
        <pt x="922" y="571" on="1"/>
        <pt x="921" y="464" on="0"/>
        <pt x="882" y="293" on="0"/>
        <pt x="818" y="160" on="0"/>
        <pt x="734" y="64" on="0"/>
        <pt x="641" y="2" on="0"/>
        <pt x="544" y="-27" on="0"/>
        <pt x="500" y="-27" on="1"/>
        <pt x="463" y="-27" on="0"/>
        <pt x="396" y="-15" on="0"/>
        <pt x="367" y="-6" on="1"/>
        <pt x="341" y="-25" on="0"/>
        <pt x="300" y="-69" on="0"/>
        <pt x="270" y="-114" on="0"/>
        <pt x="254" y="-158" on="0"/>
        <pt x="254" y="-178" on="1"/>
        <pt x="254" y="-212" on="0"/>
        <pt x="293" y="-248" on="0"/>
        <pt x="311" y="-248" on="1"/>
        <pt x="337" y="-248" on="0"/>
        <pt x="391" y="-219" on="0"/>
        <pt x="450" y="-175" on="0"/>
        <pt x="515" y="-124" on="0"/>
        <pt x="586" y="-80" on="0"/>
        <pt x="666" y="-51" on="0"/>
        <pt x="711" y="-51" on="1"/>
        <pt x="751" y="-51" on="0"/>
        <pt x="825" y="-73" on="0"/>
        <pt x="888" y="-116" on="0"/>
        <pt x="934" y="-180" on="0"/>
        <pt x="946" y="-223" on="1"/>
        <pt x="951" y="-240" on="0"/>
        <pt x="954" y="-272" on="0"/>
        <pt x="954" y="-289" on="1"/>
        <pt x="954" y="-373" on="0"/>
        <pt x="877" y="-503" on="0"/>
        <pt x="747" y="-592" on="0"/>
        <pt x="574" y="-637" on="0"/>
        <pt x="477" y="-637" on="1"/>
        <pt x="440" y="-637" on="0"/>
        <pt x="365" y="-628" on="0"/>
        <pt x="328" y="-618" on="1"/>
        <pt x="346" y="-528" on="1"/>
        <pt x="366" y="-533" on="0"/>
        <pt x="405" y="-537" on="0"/>
        <pt x="424" y="-537" on="1"/>
        <pt x="472" y="-537" on="0"/>
        <pt x="554" y="-520" on="0"/>
        <pt x="584" y="-509" on="1"/>
        <pt x="619" y="-497" on="0"/>
        <pt x="649" y="-481" on="1"/>
        <pt x="730" y="-436" on="0"/>
        <pt x="799" y="-352" on="0"/>
        <pt x="799" y="-311" on="1"/>
        <pt x="799" y="-290" on="0"/>
        <pt x="784" y="-253" on="0"/>
        <pt x="758" y="-224" on="0"/>
        <pt x="722" y="-207" on="0"/>
        <pt x="700" y="-207" on="1"/>
        <pt x="665" y="-207" on="0"/>
        <pt x="573" y="-252" on="0"/>
        <pt x="516" y="-303" on="1"/>
        <pt x="468" y="-345" on="0"/>
        <pt x="364" y="-385" on="0"/>
        <pt x="311" y="-385" on="1"/>
        <pt x="276" y="-385" on="0"/>
        <pt x="205" y="-364" on="0"/>
        <pt x="148" y="-324" on="0"/>
        <pt x="111" y="-263" on="0"/>
        <pt x="111" y="-223" on="1"/>
        <pt x="111" y="-192" on="0"/>
        <pt x="131" y="-123" on="0"/>
        <pt x="171" y="-54" on="0"/>
        <pt x="230" y="12" on="0"/>
        <pt x="268" y="41" on="1"/>
        <pt x="208" y="84" on="0"/>
        <pt x="128" y="209" on="0"/>
        <pt x="78" y="353" on="0"/>
        <pt x="57" y="506" on="0"/>
        <pt x="57" y="578" on="1"/>
        <pt x="57" y="720" on="0"/>
        <pt x="122" y="926" on="0"/>
        <pt x="235" y="1060" on="0"/>
        <pt x="388" y="1124" on="0"/>
        <pt x="477" y="1124" on="1"/>
        <pt x="531" y="1124" on="0"/>
        <pt x="623" y="1107" on="0"/>
        <pt x="662" y="1092" on="1"/>
        <pt x="760" y="1341" on="1"/>
        <pt x="905" y="1239" on="1"/>
      </contour>
      <contour>
        <pt x="778" y="573" on="1"/>
        <pt x="778" y="604" on="0"/>
        <pt x="773" y="682" on="0"/>
        <pt x="756" y="764" on="0"/>
        <pt x="725" y="845" on="0"/>
        <pt x="700" y="879" on="1"/>
        <pt x="610" y="719" on="1"/>
        <pt x="532" y="762" on="1"/>
        <pt x="608" y="956" on="1"/>
        <pt x="582" y="967" on="0"/>
        <pt x="520" y="981" on="0"/>
        <pt x="483" y="981" on="1"/>
        <pt x="337" y="975" on="0"/>
        <pt x="201" y="769" on="0"/>
        <pt x="201" y="580" on="1"/>
        <pt x="201" y="450" on="0"/>
        <pt x="250" y="272" on="0"/>
        <pt x="328" y="163" on="0"/>
        <pt x="425" y="115" on="0"/>
        <pt x="473" y="115" on="1"/>
        <pt x="524" y="115" on="0"/>
        <pt x="631" y="166" on="0"/>
        <pt x="720" y="277" on="0"/>
        <pt x="777" y="450" on="0"/>
      </contour>
    </TTGlyph>
</ttFont>
